<?xml version="1.0" encoding="utf-8"?>
<!-- Generator: Adobe Illustrator 19.0.0, SVG Export Plug-In . SVG Version: 6.00 Build 0)  -->
<svg version="1.1" id="Layer_1" xmlns="http://www.w3.org/2000/svg" xmlns:xlink="http://www.w3.org/1999/xlink" x="0px" y="0px"
	 viewBox="294 -204 1200 1200" style="enable-background:new 294 -204 1200 1200;" xml:space="preserve">
<style type="text/css">
	.st0{stroke:#000000;stroke-miterlimit:10;}
	.st1{fill:#FFFFFF;stroke:#FFFFFF;stroke-width:30;stroke-miterlimit:10;}
</style>
<rect x="3445.5" y="-1043.4" class="st0" width="1836" height="1708"/>
<title>PC ICONS</title>
<g>
	<path class="st1" d="M1123.6,747.6c-8.3-0.3-16.7-0.6-25-0.8c-7.3-0.2-7.5-0.1-7.9-7.3c-1.9-39.1-14.5-74.5-37.6-105.9
		c-21.9-29.6-48.9-53.7-81.7-70.9c-51.6-27.1-106.5-38.1-164.5-34.4c-46.3,3-90,15.4-130.2,38.8c-43.7,25.4-77,60.2-97,107.1
		c-9.5,22.3-14,45.7-15.4,69.8c-0.1,1.2-0.5,2.4-0.8,3.6c-14.2,0-28.4,0-42.6,0c0-4.8,0-9.6,0-14.5c1-6.9,2-13.7,2.9-20.6
		c6.4-44.9,25-84.3,54-118.8c38.1-45.2,86.2-75.6,142.3-93.4c25.6-8.1,51.8-13.3,78.5-15.7c12.3-1.1,24.8-0.3,37.3-0.2
		c37.9,0.1,74.6,6.9,110.2,19.6c35.3,12.6,67.9,30,96.4,54.5c35.7,30.8,63.7,67.2,79.3,112.4c8,23.1,12.9,46.6,12.5,71.1
		c0,1.9,0.1,3.8,0.1,5.7C1130.7,747.6,1127.1,747.6,1123.6,747.6z"/>
	<path class="st1" d="M981.1,286.6c0,83.8-69.7,152.9-153.9,152.7c-83.6-0.2-152.8-69.6-152.8-153.1c0-80.7,63.8-150.8,147-153.2
		C914.5,130.4,981,203.4,981.1,286.6z M936.7,287.2c2.6-57.9-48.6-109.4-105.7-110.6c-63.8-1.4-112,51-112.5,108.1
		c-0.6,63.9,52.5,109.8,107.9,110.9C888,396.8,939.1,342.2,936.7,287.2z"/>
	<path class="st1" d="M1134.1,176.2c-1.8,0-3.2,0-4.5,0c-17.2,0-34.5,0-51.7-0.2c-4.2,0-8.4-0.3-12.5-0.7
		c-10.7-1-18.5-9.8-18.5-20.9c-0.1-12.3,9.5-21.2,18.2-21.2c11.2,0,22.3-0.5,33.5-0.6c10.3-0.1,20.5,0,30.8,0c1.4,0,2.7,0,4.6,0
		c0-2,0-3.6,0-5.3c0.4-18.1,0.7-36.3,1.1-54.4c0.1-3.7,0.4-7.4,0.9-11c1.8-12.8,14.4-20.5,27.1-16.4c8.4,2.7,14.2,8.2,14.7,17.4
		c0.7,14.7,1,29.4,1.4,44.1c0.2,8.3,0,16.7,0,25.5c1.9,0,3.3,0,4.6,0c17,0,34,0,51,0.1c4.3,0,8.6,0.4,12.9,0.6
		c8.8,0.4,15,5,18.1,12.9c3.5,9.1,0.9,19.4-6.5,24.7c-3.3,2.4-7.8,4.1-11.9,4.2c-20.9,0.7-41.8,0.8-62.7,1c-1.6,0-3.2,0-5.4,0
		c0,1.8,0,3.3,0,4.8c-0.3,20.2-0.4,40.3-0.9,60.5c-0.2,6.8-1.7,13.4-7.5,18c-6.8,5.5-14.3,7.1-22.4,3.6
		c-8.2-3.6-13.1-10.2-13.3-19.2c-0.6-20.7-0.7-41.3-1-62C1134.1,180.1,1134.1,178.5,1134.1,176.2z"/>
</g>
</svg>
