<?xml version="1.0" encoding="utf-8"?>
<!-- Generator: Adobe Illustrator 19.0.0, SVG Export Plug-In . SVG Version: 6.00 Build 0)  -->
<svg version="1.1" id="Layer_1" xmlns="http://www.w3.org/2000/svg" xmlns:xlink="http://www.w3.org/1999/xlink" x="0px" y="0px"
	 viewBox="0 0 612 792" style="enable-background:new 0 0 612 792;" xml:space="preserve">
<style type="text/css">
	.st0{fill:#F3F9FD;}
	.st1{fill:#9CE0F7;}
	.st2{fill:#B1E5F9;}
	.st3{fill:#BEEAFA;}
	.st4{fill:#B7E7F9;}
	.st5{fill:#FED634;}
	.st6{fill:#FEDA49;}
	.st7{fill:#FECD07;}
	.st8{fill:#FECC00;}
	.st9{fill:#FECE09;}
	.st10{fill:#FECF11;}
	.st11{fill:#2D7BBE;}
	.st12{fill:#2F7CBF;}
	.st13{fill:#317DC0;}
	.st14{fill:#ADE4F9;}
	.st15{fill:#008F3D;}
	.st16{fill:#BDE9F9;}
	.st17{fill:#B9E8F9;}
	.st18{fill:#BFC5C9;}
	.st19{fill:#C5CBCF;}
	.st20{fill:#BCC2C6;}
	.st21{fill:#C0C6CA;}
	.st22{fill:#3580C1;}
	.st23{fill:#3882C2;}
</style>
<path class="st0" d="M343.9,325c37.2,0,74.3,0.1,111.5,0c4.2,0,7.9,1,11.4,3c3.9,2.2,5.4,5.5,5.3,9.9c-0.1,4.3-1.8,7.3-5.5,9.3
	c-3.4,1.9-7,3-10.9,2.9c-4.5-0.2-9,0-14.5,0c6.2,2.5,10.8,5.2,10.8,11.9c0,7-4.5,11.8-11.6,12.1c-6.6,0.2-13.3-0.5-19.9,0.9
	c-6.6,1.5-11.7,6.6-11.5,12c0.4,7,5.9,12.1,13.4,12.1c12,0,24,0,36,0c3.9,0,7.7,0.6,10.9,2.9c5.1,3.8,6.9,8.2,5.3,12.9
	c-1.7,5.1-7.2,9-13.6,9.2c-6.8,0.2-13.7,0-20.5,0c-18,0-36,0-54,0c-5,0-9.8,1.3-13,5.3c-5.5,6.7-2.1,16.1,6.5,18.6
	c2.7,0.8,5.4,1.3,8.3,1.2c16.2-0.1,32.3-0.1,48.5,0c7,0,13.2,4.4,14.1,9.7c1.2,7.2-4.7,14.1-12.4,14.3c-7.5,0.1-15,0-22.5,0.1
	c-1.4,0-2.9-0.6-4.5,0.7c4.5,2.7,9.1,5.2,9.4,11.2c0.4,6.7-4.9,12.3-12.3,13.1c-1,0.1-2,0-3,0c-76.5,0-153,0-229.5,0
	c-8.2,0-14.1-4.8-14.3-11.5c-0.2-6.8,5.2-12.4,12.1-12.5c2,0,4,0,7,0c-4.8-3.6-9.7-5.9-10.2-12c-0.5-6.4,3.6-9.5,9.3-13
	c-8.9,0-16.5,0.2-24-0.1c-4.6-0.2-9.2-0.8-13-4.1c-8.8-7.8-2.1-17.2,4.8-19.6c2.6-0.9,5.4-1.3,8.3-1.3c14.7,0.1,29.3,0,44,0.1
	c3.5,0,6.8-0.6,9.4-2.6c3.5-2.6,6.7-5.7,5.9-10.7c-0.9-5.7-5-9.5-10.5-10.7c-4.6-1-9.2-1-13.9-1.1c-8.1-0.2-13.6-5.7-13.3-13
	c0.2-4.4,2.9-6.9,6.2-9c1.5-1,3.2-1.6,5.9-3c-9.1,0-17,0.1-24.9-0.1c-5.1-0.1-8.6-2.9-11-7.4c-2.1-3.9-1.5-7.6,1-10.7
	c3.1-3.9,7.6-5.8,12.7-5.8c7,0,14,0,21.5,0c-2.8-2.2-6.2-2.6-8.1-5.3c-4.9-7-1.9-16.1,6.4-18.3c3-0.8,6.1-1.4,9.3-1.4
	c30,0.1,60,0.1,90,0.1c4,3.4,5.9,8.7,11,11.9c0.3-3.4-1.7-5-3.1-6.8c-1.1-1.5-3.3-2.6-2-5.1c6.4,0,12.8,0,19.1-0.1
	c4.5,1.1,3.2-3.5,5-5c0.6,4.5,3.3,5.5,7.5,5.1c4.4-0.4,8.9-0.1,13.4-0.1c1.5,2,0.1,3.8-0.3,5.6c-0.6,2.3-1.8,4.6-1.3,7.4
	c2.7-0.6,2.3-2.8,3-4.3C340.8,330.8,340.1,326.7,343.9,325z"/>
<path class="st1" d="M343.9,325c-1.9,3.7-2.9,7.6-3.9,11.6c-0.5,2-1.2,4.1-3.9,3.3c-2.7-0.8-1.5-2.8-1-4.5c0.9-3.5,2-6.9,3-10.4
	c1.2-3.8,2.5-7.5,3.8-11.3c0.6-1.7,1.5-3.2,3.6-2.5c2.1,0.8,1.6,2.5,1.1,4.2C345.4,318.6,343.9,321.6,343.9,325z"/>
<path class="st2" d="M292.9,325.1c0.8,3.5,4.3,5,5.8,8c1,1.9,2.3,3.7,0.1,5.2c-1.9,1.4-3.1-0.8-3.9-1.9c-2.7-3.7-6.6-6.6-7.9-11.3
	C289,322.9,291,323,292.9,325.1z"/>
<path class="st3" d="M317.1,320c0,1,0,2-0.1,3c-0.1,1.4,0.6,3.1-1.3,3.9c-1.8,0.7-2.6-0.9-3.7-1.8c0-2.5-0.1-4.9,0-7.4
	c0-1.7-0.4-4.2,2.2-4.1c2,0.1,2.8,2,2.8,4C317,318.3,317,319.2,317.1,320z"/>
<path class="st4" d="M287,319.4c0.1,1.6-0.6,3-2.1,2.5c-3.4-1.2-5.1-4.4-6.7-7.4c-0.7-1.3,0.4-2.6,1.9-2.9
	C281.8,311.3,286.8,317.1,287,319.4z"/>
<path class="st5" d="M390.9,307.8c0-0.5-0.1-1,0-1.5c0.3-1.1-0.8-3,1.2-3.2c2-0.2,1.4,1.7,1.7,2.9c0.1,0.6,0.3,1.3,0.5,1.9
	c-0.2,0.8-0.7,1.3-1.4,1.7c-0.8,0.2-1.5,0-2.1-0.4C390.5,308.6,390.6,308.2,390.9,307.8z"/>
<path class="st6" d="M391.2,309.1c0.5,0,1,0,1.6,0c0.8,0,1.2,0.4,1.4,1.1c-0.1,0.3-0.2,0.6-0.3,0.9c-0.4,1.3,0.2,3.6-1.8,3.4
	c-2.3-0.2-1-2.6-1.2-4C390.4,309.9,390.5,309.4,391.2,309.1z"/>
<path class="st7" d="M224.8,304.2c0.1,1.5-0.9,1.6-1.9,1.6c-1,0-2.5,0.5-2.7-1.2c-0.2-1.4,0.9-1.5,1.9-1.5
	C223.1,303.2,224.4,302.8,224.8,304.2z"/>
<path class="st8" d="M212.9,304.9c-0.3,1.1-1.4,0.9-2.3,0.9c-1.1,0-2-0.4-1.6-1.7c0.4-1.2,1.6-0.9,2.5-0.9
	C212.5,303.2,213.1,303.6,212.9,304.9z"/>
<path class="st8" d="M216.8,295.6c1.7,1.8,1.4,3.4,0.9,4.9c-0.1,0.2-1.1,0.4-1.2,0.2C215.4,299.2,215.5,297.7,216.8,295.6z"/>
<path class="st9" d="M391.2,309.1c-0.1,0.5-0.2,1-0.3,1.5c-1.4-1-4.5,0.7-4.4-1.5c0-2.2,2.9-0.7,4.4-1.3
	C391,308.2,391.1,308.6,391.2,309.1z"/>
<path class="st10" d="M394.2,310.2c-0.5-0.4-1-0.7-1.4-1.1c0.5-0.4,1-0.8,1.4-1.2c1.2,0.1,3.1-0.6,3.2,0.9
	C397.6,311,395.4,309.9,394.2,310.2z"/>
<path class="st8" d="M218.1,310c-0.1,0.7,0.1,1.8-1,1.8c-1.5,0-1.1-1.3-1.2-2.2c0-0.8,0.2-1.8,1.3-1.6
	C218.2,308.3,218,309.3,218.1,310z"/>
<path class="st11" d="M246.7,309.6c-0.1,0-0.5,0.3-0.9,0.4c-0.7,0.2-1.3-0.1-1.3-0.9c0-0.3,0.4-0.8,0.8-1
	C246,307.8,246.5,308.2,246.7,309.6z"/>
<path class="st11" d="M260.7,309.1c-0.2,0.2-0.4,0.7-0.8,0.9c-0.7,0.3-1.3-0.1-1.4-0.8c0-0.3,0.4-0.9,0.7-1
	C259.9,307.8,260.4,308.2,260.7,309.1z"/>
<path class="st11" d="M316.1,447.6c-11.2,0-22.3-0.1-33.5,0c-4.5,0.1-6.8-1.4-8-6.1c-6.4-25.7-13.2-51.2-19.6-76.9
	c-1-4-2.6-5.5-6.7-5.1c-5.1,0.4-10.3,0.1-15.5,0.1c-2.9,0-5.7-0.6-5.7-4.2c0-3.3,2.8-3.6,5.5-3.6c7.5,0,15,0.1,22.5,0
	c3.2-0.1,5,1.4,5.7,4.4c1,3.9,2.3,7.7,2.9,11.6c0.6,3.8,2.4,4.7,6,4.7c31-0.1,62-0.1,93-0.1c1.7,0,3.3-0.1,5,0.1
	c3.5,0.5,5.3,2.5,3.9,5.9c-6.9,16.8-13.9,33.5-20.9,50.2c-1.4,3.3-4.3,3.2-7.2,3.2c-19.2,0-38.3-0.1-57.5,0.1
	c-1.6,0-4.9-1.9-4.9,1.9c0,3.3,0.9,5.7,5.5,5.7c20.7-0.3,41.3-0.2,62-0.1c3.3,0,8.1-1,8.1,4c0,4.9-4.8,4.1-8.1,4.1
	C337.8,447.7,326.9,447.6,316.1,447.6z"/>
<path class="st11" d="M293.3,478.3c-6.6,0-11.8-5.1-11.8-11.6c0-6.2,5.2-11.5,11.4-11.6c6.3-0.2,11.9,5.3,12,11.5
	C305,473,299.8,478.3,293.3,478.3z"/>
<path class="st11" d="M338.3,478.3c-6.6,0-11.7-5-11.7-11.7c0-6.3,5-11.5,11.3-11.6c6.3-0.2,11.9,5.2,12,11.5
	C350.1,473,344.8,478.3,338.3,478.3z"/>
<path class="st12" d="M240,415.1c-5.8,0-11.6,0-17.4,0c-2.8,0-5.2-0.6-5.5-3.7c-0.2-3.2,2.3-4.3,5-4.3c11.8-0.1,23.6-0.1,35.3,0
	c2.6,0,4.6,1.1,4.7,4c0,3-2.1,3.9-4.7,3.9C251.6,415.2,245.8,415.1,240,415.1z"/>
<path class="st13" d="M253.4,436.1c-3.3,0-6.6,0-9.9,0c-2.4,0-4.3-1-4.5-3.6c-0.2-2.7,1.6-4,4-4c7-0.1,13.9-0.1,20.9,0
	c2.4,0,4.2,1.2,4.2,3.9c-0.1,2.7-1.8,3.8-4.3,3.8C260.3,436.2,256.9,436.1,253.4,436.1z"/>
<path class="st12" d="M244.5,395.9c-2,0-4,0.2-6,0c-2.2-0.2-3.7-1.4-3.7-3.8c0-2.2,1.3-3.7,3.2-3.8c4.5-0.3,9-0.2,13.4,0
	c2,0.1,3.3,1.7,3.3,3.8c-0.1,2.3-1.5,3.7-3.8,3.9C248.8,396.1,246.7,395.9,244.5,395.9z"/>
<path class="st14" d="M358.7,347.9c-0.9,0.1-1.6-0.3-2.1-1c-0.8-1.1-0.6-2.4,0.4-3.1c4.2-3.4,8.5-6.8,12.9-10.1
	c0.9-0.7,1.9-0.5,2.6,0.4c0.6,0.7,0.6,1.5,0.3,2.3C372.1,338.3,360.4,347.8,358.7,347.9z"/>
<path class="st15" d="M210,337.1c0.8-1.6-1-4.8,1.4-4.8c2.6-0.1,0.7,3.1,1.5,4.7c0.6,0.7,0.6,1.4,0,2c-0.7,1.2,1,3.8-1.5,3.7
	c-2.4-0.1-0.7-2.6-1.4-3.9C209.4,338.3,209.4,337.7,210,337.1z"/>
<path class="st16" d="M321,344c-0.9,1.8-2.2,2.5-4,1.4c-0.8-0.5-2-0.9-1.7-2.1c0.3-1.6,1.7-1.2,2.8-1.3
	C319.4,342.1,320.1,343.2,321,344z"/>
<path class="st15" d="M213,339c0-0.7,0-1.4,0-2c1.3,0.1,3.6-0.9,3.7,0.8C216.8,340.1,214.3,338.5,213,339z"/>
<path class="st17" d="M321,344c-1.4,0-2.4-0.7-3-2C320,340.3,320,340.3,321,344z"/>
<path class="st15" d="M210,337.1c0,0.6,0,1.2,0,1.7c-1.4-0.1-3.9,1.1-3.9-0.9C206.2,335.9,208.6,337,210,337.1z"/>
<path class="st18" d="M415.6,341c0,0.7-0.3,1.3-1.1,1.4c-0.7,0.1-1.3-0.5-1.3-1.2c0-0.3,0.5-0.9,0.8-1
	C414.8,340,415.4,340.2,415.6,341z"/>
<path class="st18" d="M414.2,349.3c0.7,0.2,1.2,0.6,1.1,1.3c-0.1,0.8-0.7,1.1-1.4,1c-0.3-0.1-0.7-0.6-0.8-1
	C413.1,349.9,413.4,349.4,414.2,349.3z"/>
<path class="st19" d="M406.1,341.7c-0.4,0.3-0.8,0.8-1.1,0.7c-0.3-0.1-0.8-0.6-0.8-1c-0.1-0.7,0.4-1.3,1.2-1.1
	C405.6,340.5,405.8,341.2,406.1,341.7z"/>
<path class="st20" d="M418.3,346.8c-0.5,0.2-0.8,0.6-1.3,0.6c-0.9,0-1.1-0.7-0.9-1.3c0.1-0.3,0.7-0.8,1-0.7
	C417.5,345.5,417.7,346,418.3,346.8z"/>
<path class="st20" d="M406.1,350.3c-0.3,0.5-0.5,1.1-0.9,1.2c-0.9,0.2-1.1-0.5-1-1.1c0-0.3,0.5-0.9,0.9-0.9
	C405.3,349.5,405.7,350,406.1,350.3z"/>
<path class="st21" d="M402.6,347.6c-0.3-0.6-0.6-1-0.5-1.3c0.1-0.3,0.6-0.6,0.9-0.9c0.2,0.3,0.7,0.7,0.6,1
	C403.6,346.7,403.1,347,402.6,347.6z"/>
<path class="st0" d="M314.8,380.6c14.2,0,28.3,0.2,42.5-0.1c4.6-0.1,4.7,1.2,3.1,4.9c-5,11.4-9.7,23-14.4,34.5c-1,2.6-2.2,4-5.4,3.9
	c-19.7-0.2-39.3-0.1-59,0c-2.7,0-3.8-1.1-4.4-3.5c-3-11.9-6-23.8-9.3-35.7c-0.9-3.4-0.1-4.2,3.3-4.2
	C285.9,380.7,300.4,380.6,314.8,380.6z"/>
<path class="st22" d="M306.1,402c7.9,0.9,14.7,2.8,19.5,8.8c0.7,0.8,2,1.8,0.9,3c-1.2,1.2-1.9-0.1-2.7-1c-6.7-7-14.5-9.5-23.9-6.2
	c-1,0.3-2.1,0.9-2.6-0.2c-0.6-1.3,0.6-2.2,1.7-2.5C301.6,403.1,304.1,402.5,306.1,402z"/>
<path class="st23" d="M329.9,391.8c-0.1,2.2-1.2,3.3-3.5,3.3c-2.2,0-3.4-1.1-3.4-3.3c0-2.2,1.4-3.4,3.4-3.4
	C328.6,388.4,329.8,389.6,329.9,391.8z"/>
<path class="st13" d="M302.1,391.7c0.1,2.2-0.9,3.4-3.2,3.4c-2.2,0.1-3.4-1.1-3.4-3.2c-0.1-2.1,1.1-3.4,3.3-3.5
	C300.8,388.4,302.2,389.4,302.1,391.7z"/>
</svg>
