<?xml version="1.0" encoding="utf-8"?>
<!-- Generator: Adobe Illustrator 19.0.0, SVG Export Plug-In . SVG Version: 6.00 Build 0)  -->
<svg version="1.1" id="Layer_1" xmlns="http://www.w3.org/2000/svg" xmlns:xlink="http://www.w3.org/1999/xlink" x="0px" y="0px"
	 viewBox="294 -204 1200 1200" style="enable-background:new 294 -204 1200 1200;" xml:space="preserve">
<style type="text/css">
	.st0{stroke:#000000;stroke-miterlimit:10;}
	.st1{fill:none;stroke:#FFFFFF;stroke-width:60;}
</style>
<rect x="2563.5" y="-431.4" class="st0" width="1836" height="1708"/>
<title>PC ICONS</title>
<path id="CART" class="st1" d="M1087.8,302.6l-162.9-244c-7.1-10-18.6-15.9-30.9-15.6c-12.3-0.3-24,5.8-30.9,16L700.2,302.6H522
	c-20.5,0.1-37.1,16.7-37.2,37.2c0,3.4,0.5,6.8,1.5,10l94.5,344.9c8.9,32.1,38.1,54.3,71.4,54.3h483.6c33.4,0,62.7-22.2,71.8-54.3
	l94.5-344.9l1.1-10c-0.1-20.5-16.7-37.2-37.2-37.2H1087.8z M782.4,302.6L894,138.9l111.6,163.7H782.4z M894,600.2
	c-41.1,0-74.4-33.3-74.4-74.4s33.3-74.4,74.4-74.4s74.4,33.3,74.4,74.4c0,0,0,0,0,0C968.4,566.9,935.1,600.2,894,600.2
	C894,600.2,894,600.2,894,600.2z"/>
</svg>
