<?xml version="1.0" encoding="utf-8"?>
<!-- Generator: Adobe Illustrator 19.0.0, SVG Export Plug-In . SVG Version: 6.00 Build 0)  -->
<svg version="1.1" id="Layer_1" xmlns="http://www.w3.org/2000/svg" xmlns:xlink="http://www.w3.org/1999/xlink" x="0px" y="0px"
	 viewBox="294 -204 1200 1200" style="enable-background:new 294 -204 1200 1200;" xml:space="preserve">
<style type="text/css">
	.st0{fill:#0032A0;stroke:#0032A0;stroke-width:20;}
</style>
<path class="st0" d="M1286.9,386.4c-13.3,0-23.9,10.6-23.9,23.9v217.2c0,59.1-48.1,107-107,107H632c-59.1,0-107-48.1-107-107V406.7
	c0-13.3-10.6-23.9-23.9-23.9c-13.3,0-23.9,10.6-23.9,23.9v220.8c0,85.4,69.5,154.8,154.8,154.8h524c85.4,0,154.8-69.5,154.8-154.8
	V410.3C1310.8,397.2,1300.2,386.4,1286.9,386.4z"/>
<path class="st0" d="M759,202.4L870.1,91.3v484.5c0,13.3,10.6,23.9,23.9,23.9c13.3,0,23.9-10.6,23.9-23.9V91.3L1029,202.4
	c4.6,4.6,10.8,7.1,16.8,7.1c6.2,0,12.2-2.3,16.8-7.1c9.4-9.4,9.4-24.4,0-33.8L910.8,16.8c-4.4-4.4-10.6-7.1-16.8-7.1
	c-6.4,0-12.4,2.5-16.8,7.1L725.4,168.6c-9.4,9.4-9.4,24.4,0,33.8C734.6,211.6,749.8,211.6,759,202.4z"/>
<path class="st0" d="M1310.8,462V275.6c0-13.1-10.6-23.9-23.9-23.9s-23.9,10.7-23.9,23.9v186.3h47.8V462z"/>
<path class="st0" d="M525,462V272.1c0-13.3-10.6-23.9-23.9-23.9c-13.3,0-23.9,10.6-23.9,23.9V462H525z"/>
</svg>
