<?xml version="1.0" encoding="utf-8"?>
<!-- Generator: Adobe Illustrator 19.0.0, SVG Export Plug-In . SVG Version: 6.00 Build 0)  -->
<svg version="1.1" id="Layer_1" xmlns="http://www.w3.org/2000/svg" xmlns:xlink="http://www.w3.org/1999/xlink" x="0px" y="0px"
	 viewBox="294 -204 1200 1200" style="enable-background:new 294 -204 1200 1200;" xml:space="preserve">
<style type="text/css">
	.st0{fill:none;stroke:#FFFFFF;stroke-width:60;}
</style>
<title>PC ICONS</title>
<g id="SETTINGS">
	<g id="Group_1607">
		<path id="Path_1341" class="st0" d="M1219.1,337.5h-33c-12.3,0.1-23.3-7.8-27-19.5c-7.3-24.7-18-48.2-31.9-69.9
			c-6.7-10.9-5-25,4.2-33.9c10.9-10.9,10.9-28.5,0-39.4l-16.2-16.2c-10.9-10.8-28.4-10.8-39.3,0l0,0c-8.9,9.1-23,10.8-33.9,4.1
			c-21.7-13.9-45.2-24.6-69.9-31.8c-11.8-3.8-19.7-14.8-19.5-27.1v-33c0-15.3-12.5-27.8-27.9-27.7h-61.4
			c-15.4,0-27.8,12.5-27.8,27.8v33c0.1,12.3-7.8,23.3-19.5,27c-24.7,7.3-48.3,18-70,31.9c-10.9,6.7-24.9,5-33.9-4.1
			c-10.9-10.8-28.5-10.8-39.3,0l0,0l-16.2,16.2c-10.8,10.9-10.8,28.5,0,39.3c9.1,9,10.9,23,4.2,33.9c-13.9,21.7-24.6,45.2-31.9,69.9
			c-3.8,11.7-14.7,19.7-27.1,19.5h-32.9c-15.4,0-27.8,12.5-27.8,27.8v61.4c0,15.4,12.4,27.8,27.8,27.8l0,0h33
			c12.3-0.2,23.3,7.7,27.1,19.5c7.3,24.7,18.1,48.3,31.9,70c6.7,10.9,5,25-4.2,33.9c-10.8,10.9-10.8,28.4,0,39.3l16.2,16.2
			c10.9,10.9,28.5,10.9,39.3,0c0,0,0,0,0,0l0,0c8.9-9.1,23-10.9,33.9-4.2c21.7,13.9,45.3,24.6,70,31.9c11.7,3.8,19.6,14.8,19.4,27.1
			v33c0,15.3,12.4,27.8,27.7,27.8h0h61.5c15.3,0,27.8-12.4,27.8-27.8v-33c-0.2-12.3,7.7-23.2,19.4-27c24.7-7.3,48.2-18,70-31.9
			c10.9-6.7,25-5,33.9,4.2c10.9,10.9,28.5,10.9,39.3,0l16.2-16.2c10.8-10.9,10.8-28.4,0-39.3c-9.2-9-11-23.1-4.2-34
			c13.9-21.7,24.6-45.2,31.9-69.9c3.8-11.7,14.7-19.7,27.1-19.5h33c15.3,0,27.8-12.5,27.8-27.8v-61.4
			C1247,350,1234.6,337.6,1219.1,337.5C1219.2,337.5,1219.2,337.5,1219.1,337.5L1219.1,337.5z M893.9,527.3
			c-72.5,0-131.3-58.8-131.3-131.3s58.8-131.3,131.3-131.3c72.5,0,131.3,58.8,131.3,131.3C1025.2,468.5,966.4,527.3,893.9,527.3
			C893.9,527.3,893.9,527.3,893.9,527.3L893.9,527.3z"/>
	</g>
</g>
</svg>
