<?xml version="1.0" encoding="utf-8"?>
<!-- Generator: Adobe Illustrator 19.0.0, SVG Export Plug-In . SVG Version: 6.00 Build 0)  -->
<svg version="1.1" id="Layer_1" xmlns="http://www.w3.org/2000/svg" xmlns:xlink="http://www.w3.org/1999/xlink" x="0px" y="0px"
	 viewBox="294 -204 1200 1200" style="enable-background:new 294 -204 1200 1200;" xml:space="preserve">
<style type="text/css">
	.st0{fill:#FFFFFF;}
</style>
<title>PC ICONS</title>
<g>
	<path id="XMLID_5_" class="st0" d="M868.3,50.9c-115.2,0-222.3,57.2-286.6,152.7c-13,19.4-7.8,45.5,11.5,58.5
		c19.4,13,45.5,7.8,58.5-11.5C700.4,178.3,781.3,135,868.3,135C1012,135,1129,252,1129,395.7s-117,260.9-260.7,260.9
		c-86.8,0-167.6-43-216.2-114.9c-13.1-19.3-39.2-24.4-58.6-11.3c-19.3,13.1-24.4,39.2-11.3,58.6c64.3,95.2,171.3,152.1,286.1,152.1
		c190.3,0,345.1-154.8,345.1-345.1S1058.5,50.9,868.3,50.9z"/>
	<path class="st0" d="M734.6,327.8c0-4.6,0-8.5,0-12.4c0.2-16.8,0.2-33.5,0.6-50.3c0.1-3.7,1.2-7.6,2.9-10.8
		c4.5-8.5,15.3-10,22.6-3.7c32.2,27.9,64.5,55.8,96.7,83.7c22.4,19.4,44.9,38.9,67.3,58.3c1.2,1,2.5,1.9,4.3,3.3
		c-6.9,6-13,11.3-19.2,16.7c-27.2,23.6-54.4,47.2-81.6,70.8c-22.8,19.8-45.6,39.5-68.4,59.2c-6.5,5.6-18.9,2.2-22.1-6.6
		c-2-5.5-2.9-11.6-3.1-17.5c-0.4-16-0.1-31.9-0.1-47.9c0-1.8,0-3.7,0-5.9c-2.6,0-4.4,0-6.3,0c-42.2,0-84.4-0.4-126.7,0.2
		c-18,0.2-27.3-11.5-27-27.3c0.6-27.8,0.1-55.7,0.2-83.5c0-17.4,8.9-26.3,26.2-26.3c42.4,0,84.8,0,127.1,0
		C730,327.8,731.9,327.8,734.6,327.8z"/>
</g>
</svg>
