<?xml version="1.0" encoding="utf-8"?>
<!-- Generator: Adobe Illustrator 19.0.0, SVG Export Plug-In . SVG Version: 6.00 Build 0)  -->
<svg version="1.1" id="Layer_1" xmlns="http://www.w3.org/2000/svg" xmlns:xlink="http://www.w3.org/1999/xlink" x="0px" y="0px"
	 viewBox="294 -204 1200 1200" style="enable-background:new 294 -204 1200 1200;" xml:space="preserve">
<style type="text/css">
	.st0{stroke:#000000;stroke-miterlimit:10;}
	.st1{fill:#FFFFFF;}
</style>
<rect x="3151.5" y="-839.4" class="st0" width="1836" height="1708"/>
<title>PC ICONS</title>
<g>
	<g id="XMLID_2_">
		<path id="XMLID_4_" class="st1" d="M918.8,227.5h411.1c19.6,0,35.5-15.9,35.5-35.5s-15.9-35.5-35.5-35.5H918.8l45.9-45.9
			c13.9-13.9,13.9-36.3,0-50.2c-13.9-13.9-36.3-13.9-50.2,0L808.1,166.9c-0.8,0.8-1.6,1.7-2.3,2.6c-0.2,0.2-0.3,0.5-0.5,0.7
			c-0.5,0.7-1.1,1.4-1.6,2.1c-0.1,0.2-0.3,0.4-0.4,0.7c-0.5,0.8-1,1.5-1.4,2.3c-0.1,0.2-0.2,0.3-0.2,0.5c-0.4,0.9-0.9,1.7-1.3,2.7
			c0,0.1-0.1,0.2-0.1,0.3c-0.4,1-0.7,1.9-1,2.9c0,0.1-0.1,0.3-0.1,0.4c-0.3,1-0.5,2-0.7,3c-0.1,0.3-0.1,0.6-0.1,0.9
			c-0.1,0.8-0.3,1.7-0.4,2.5c-0.1,1.2-0.2,2.4-0.2,3.5c0,1.2,0.1,2.4,0.2,3.5c0.1,0.9,0.2,1.7,0.4,2.6c0.1,0.3,0.1,0.6,0.1,0.9
			c0.2,1,0.5,2,0.8,3c0,0.1,0.1,0.2,0.1,0.4c0.3,1,0.7,2,1.1,2.9c0,0.1,0.1,0.2,0.1,0.3c0.4,0.9,0.8,1.8,1.3,2.7
			c0.1,0.2,0.1,0.3,0.2,0.5c0.4,0.8,0.9,1.6,1.4,2.4c0.1,0.2,0.2,0.4,0.4,0.6c0.5,0.7,1,1.4,1.6,2.1c0.2,0.2,0.3,0.5,0.5,0.7
			c0.7,0.9,1.5,1.8,2.3,2.6l106.4,106.4c6.9,6.9,16,10.4,25.1,10.4s18.2-3.5,25.1-10.4c13.9-13.9,13.9-36.3,0-50.2L918.8,227.5z"/>
		<path id="XMLID_5_" class="st1" d="M1288.1-98.3c-96.9,0-187,48.1-241.1,128.5c-10.9,16.3-6.6,38.3,9.7,49.2
			c16.3,10.9,38.3,6.6,49.2-9.7c40.9-60.8,109-97.2,182.2-97.2c120.9,0,219.3,98.4,219.3,219.3s-98.4,219.5-219.3,219.5
			c-73,0-141-36.2-181.9-96.7c-11-16.2-33-20.5-49.3-9.5c-16.2,11-20.5,33-9.5,49.3c54.1,80.1,144.1,128,240.7,128
			c160.1,0,290.3-130.2,290.3-290.3S1448.1-98.3,1288.1-98.3z"/>
	</g>
</g>
</svg>
