<?xml version="1.0" encoding="utf-8"?>
<!-- Generator: Adobe Illustrator 19.0.0, SVG Export Plug-In . SVG Version: 6.00 Build 0)  -->
<svg version="1.1" id="Layer_1" xmlns="http://www.w3.org/2000/svg" xmlns:xlink="http://www.w3.org/1999/xlink" x="0px" y="0px"
	 viewBox="294 -204 1200 1200" style="enable-background:new 294 -204 1200 1200;" xml:space="preserve">
<style type="text/css">
	.st0{fill:none;stroke:#FFFFFF;stroke-width:30;stroke-linecap:round;stroke-linejoin:round;}
</style>
<title>REVIEWS - SNOWFLAKE</title>
<g id="Group_1676">
	<path id="Path_204" class="st0" d="M1210.1,510l-267.3-44.3l25.6,269.7l-95.3-253.6l-220.8,157l172-209.3L577.9,316.7L845.1,361
		L819.6,91.4L914.9,345l220.8-157l-172,209.3L1210.1,510z"/>
	<g id="Group_40">
		<line id="Line_13" class="st0" x1="873.1" y1="481.8" x2="746.1" y2="897.2"/>
		<line id="Line_14" class="st0" x1="848.3" y1="798.1" x2="716.8" y2="757.9"/>
	</g>
	<g id="Group_41">
		<line id="Line_15" class="st0" x1="942.8" y1="465.7" x2="1239.1" y2="783.4"/>
		<line id="Line_16" class="st0" x1="1204.4" y1="645.3" x2="1103.8" y2="739.2"/>
	</g>
	<g id="Group_42">
		<line id="Line_17" class="st0" x1="963.7" y1="397.3" x2="1387" y2="299.5"/>
		<line id="Line_18" class="st0" x1="1250.1" y1="260.6" x2="1281.1" y2="394.6"/>
	</g>
	<g id="Group_43">
		<line id="Line_19" class="st0" x1="915" y1="344.9" x2="1042" y2="-70.5"/>
		<line id="Line_20" class="st0" x1="939.7" y1="28.6" x2="1071.3" y2="68.8"/>
	</g>
	<g id="Group_44">
		<line id="Line_21" class="st0" x1="845.2" y1="361" x2="548.9" y2="43.3"/>
		<line id="Line_22" class="st0" x1="583.6" y1="181.4" x2="684.3" y2="87.6"/>
	</g>
	<g id="Group_45">
		<line id="Line_23" class="st0" x1="824.3" y1="429.5" x2="401" y2="527.2"/>
		<line id="Line_24" class="st0" x1="537.9" y1="566.2" x2="507" y2="432.1"/>
	</g>
</g>
</svg>
