<?xml version="1.0" encoding="utf-8"?>
<!-- Generator: Adobe Illustrator 19.0.0, SVG Export Plug-In . SVG Version: 6.00 Build 0)  -->
<svg version="1.1" id="Layer_1" xmlns="http://www.w3.org/2000/svg" xmlns:xlink="http://www.w3.org/1999/xlink" x="0px" y="0px"
	 viewBox="294 -204 1200 1200" style="enable-background:new 294 -204 1200 1200;" xml:space="preserve">
<style type="text/css">
	.st0{fill:#FFFFFF;stroke:#FFFFFF;stroke-width:20;stroke-miterlimit:10;}
</style>
<title>PC ICONS</title>
<g>
	<g>
		<g>
			<path class="st0" d="M896.7,31.3c-108.2-1.5-196.5,86.8-195,195c1.4,103.7,85.9,188.2,189.6,189.6c108.2,1.5,196.5-86.8,195-195
				C1084.9,117.2,1000.4,32.7,896.7,31.3z M897.4,373.2c-85.1,1.9-154.8-67.8-152.9-152.9c1.8-79.7,66.5-144.4,146.2-146.2
				c85.1-1.9,154.8,67.8,152.9,152.9C1041.8,306.6,977,371.4,897.4,373.2z"/>
		</g>
	</g>
	<g>
		<g>
			<path class="st0" d="M1133.3,541.6c-52.7-53.5-122.5-82.9-196.6-82.9h-85.5c-74.1,0-143.9,29.4-196.6,82.9
				c-52.4,53.2-81.3,123.5-81.3,197.9c0,11.8,9.6,21.2,21.4,21.2h598.3c11.8,0,21.4-9.5,21.4-21.2
				C1214.6,665.1,1185.7,594.8,1133.3,541.6z M617.1,718c10.7-121.2,111.6-216.5,234.1-216.5h85.5c122.5,0,223.4,95.3,234.1,216.5
				H617.1z"/>
		</g>
	</g>
</g>
</svg>
