<svg id="Layer_1" data-name="Layer 1" xmlns="http://www.w3.org/2000/svg" viewBox="0 0 1200 1200"><defs><style>.cls-1{fill:none;stroke:#fff;stroke-linecap:round;stroke-linejoin:round;stroke-width:10px;}</style></defs><title>YOUR ACCOUNT</title><g id="icon-orders"><path id="rectangle-2" class="cls-1" d="M401.57,252.79H960.35a86.06,86.06,0,0,1,86.06,86.06h0v75.89a86.07,86.07,0,0,1-86.06,86.05H401.57v-248Z"/><path id="rectangle-3" class="cls-1" d="M401.57,699.21H960.35a86.08,86.08,0,0,1,86.06,86.06v75.9a86.08,86.08,0,0,1-86.06,86.05H401.57v-248Z"/><path id="path-2" class="cls-1" d="M401.57,500.79H234.41a79.37,79.37,0,0,1-80.82-77.85V331.06A79.36,79.36,0,0,1,234,252.77H401.6Z"/><path id="path-3" class="cls-1" d="M401.57,947.22H234.41a79.38,79.38,0,0,1-80.82-77.85V777.48A79.35,79.35,0,0,1,234,699.21H401.6Z"/></g></svg>