<svg id="Layer_1" data-name="Layer 1" xmlns="http://www.w3.org/2000/svg" viewBox="0 0 1200 1200"><defs><style>.cls-1{fill:none;stroke:#fff;stroke-width:10px;}</style></defs><title>YOUR ACCOUNT</title><path id="ic_enhanced_encryption_24px" data-name="ic enhanced encryption 24px" class="cls-1" d="M809.85,475.78h-35v-69.9a174.89,174.89,0,0,0-349.71,0v69.94h-35a70.13,70.13,0,0,0-69.94,69.9V895.43a70.16,70.16,0,0,0,69.94,70H809.85a70.15,70.15,0,0,0,69.9-69.94V545.72A70.14,70.14,0,0,0,809.85,475.78Zm-318.24-69.9a108.41,108.41,0,1,1,216.82,0v69.94H491.61Zm248.33,349.7H635V860.46H565V755.55H460.13V685.61H565V580.69h70V685.61H739.91Z"/></svg>