<?xml version="1.0" standalone="no"?>
<!DOCTYPE svg PUBLIC "-//W3C//DTD SVG 1.1//EN" "http://www.w3.org/Graphics/SVG/1.1/DTD/svg11.dtd" >
<svg>
<metadata>
Created by FontForge 20090622 at Mon Mar 23 10:32:16 2020
 By deploy user
Copyright &#194;&#169; 2011-2019 Rod McDonald. Published by Canada Type. All rights reserved.
</metadata>
<defs>
<font id="Gibson-Regular" horiz-adv-x="667" >
  <font-face 
    font-family="Gibson"
    font-weight="400"
    font-stretch="normal"
    units-per-em="1000"
    panose-1="0 0 0 0 0 0 0 0 0 0"
    ascent="800"
    descent="-200"
    x-height="474"
    cap-height="690"
    bbox="-150 -225 1098 946"
    underline-thickness="50"
    underline-position="-75"
    unicode-range="U+000D-U+FB04"
  />
<missing-glyph horiz-adv-x="200" 
 />
    <glyph glyph-name="ff" unicode="ff" horiz-adv-x="548" 
d="M580 619q-8 3 -17 5q-8 1 -17.5 2.5t-19.5 1.5q-24 0 -38 -8t-22 -22t-10.5 -32.5t-2.5 -38.5v-53h113v-77h-113v-397h-95v397h-179v-397h-95v397h-68v77h68v48q0 47 8.5 77.5t23.5 49.5q16 20 44 36t70 16q21 0 36 -1.5t26 -3.5q12 -3 20 -6l-6 -71q-8 3 -17 5
q-8 1 -17.5 2.5t-19.5 1.5q-24 0 -38 -8t-22 -22t-10.5 -32.5t-2.5 -38.5v-53h179v48q0 47 8.5 77.5t23.5 49.5q16 20 44 36t70 16q21 0 36 -1.5t26 -3.5q12 -3 20 -6z" />
    <glyph glyph-name="fi" unicode="fi" horiz-adv-x="520" 
d="M464 631q0 -26 -17.5 -42.5t-45.5 -16.5q-27 0 -44.5 16.5t-17.5 42.5t17.5 42.5t44.5 16.5q28 0 45.5 -16.5t17.5 -42.5zM354 0v475h95v-475h-95zM302 619q-22 9 -50 9t-43 -11.5t-21.5 -30t-7.5 -40.5t-1 -43v-29h113v-77h-113v-397h-95v397h-68v77h68v48q0 47 7.5 77
t24.5 50t43.5 36t74.5 16q15 0 28.5 -1.5t24.5 -3.5q12 -3 22 -6z" />
    <glyph glyph-name="fl" unicode="fl" horiz-adv-x="521" 
d="M354 0v690h96v-690h-96zM302 619q-19 9 -50 9q-24 0 -38 -8t-22 -22t-10.5 -32.5t-2.5 -38.5v-53h113v-77h-113v-397h-95v397h-68v77h68v52q0 37 8 69t26 55.5t46.5 37t69.5 13.5q18 0 31.5 -1.5t23.5 -3.5q11 -3 20 -6z" />
    <glyph glyph-name="ffi" unicode="ffi" horiz-adv-x="784" 
d="M580 619q-8 3 -17 5q-8 1 -17.5 2.5t-19.5 1.5q-24 0 -38 -8t-22 -22t-10.5 -32.5t-2.5 -38.5v-53h113v-77h-113v-397h-95v397h-179v-397h-95v397h-68v77h68v48q0 47 8.5 77.5t23.5 49.5q16 20 44 36t70 16q21 0 36 -1.5t26 -3.5q12 -3 20 -6l-6 -71q-8 3 -17 5
q-8 1 -17.5 2.5t-19.5 1.5q-24 0 -38 -8t-22 -22t-10.5 -32.5t-2.5 -38.5v-53h179v48q0 47 8.5 77.5t23.5 49.5q16 20 44 36t70 16q21 0 36 -1.5t26 -3.5q12 -3 20 -6zM728 631q0 -26 -17.5 -42.5t-44.5 -16.5q-28 0 -45.5 16.5t-17.5 42.5t17.5 42.5t45.5 16.5
q27 0 44.5 -16.5t17.5 -42.5zM618 0v475h96v-475h-96z" />
    <glyph glyph-name="ffl" unicode="ffl" horiz-adv-x="785" 
d="M580 619q-27 9 -54 9q-24 0 -38 -8t-22 -22t-10.5 -32.5t-2.5 -38.5v-53h113v-77h-113v-397h-95v397h-179v-397h-95v397h-68v77h68v48q0 47 8.5 77.5t23.5 49.5q16 20 44 36t70 16q21 0 36 -1.5t26 -3.5q12 -3 20 -6l-6 -71q-8 3 -17 5q-8 1 -17.5 2.5t-19.5 1.5
q-24 0 -38 -8t-22 -22t-10.5 -32.5t-2.5 -38.5v-53h179v48q0 47 8.5 77.5t23.5 49.5q16 20 44 36t70 16q21 0 36 -1.5t26 -3.5q12 -3 20 -6zM619 0v690h95v-690h-95z" />
    <glyph glyph-name="f_j" unicode="fj" horiz-adv-x="510" 
d="M306 619q-27 9 -54 9q-24 0 -38 -8t-22 -22t-10.5 -32.5t-2.5 -38.5v-53h113v-77h-113v-397h-95v397h-68v77h68v48q0 47 8.5 77.5t23.5 49.5q16 20 44 36t70 16q21 0 36 -1.5t26 -3.5q12 -3 20 -6zM454 631q0 -26 -17.5 -42.5t-44.5 -16.5q-28 0 -45.5 16.5t-17.5 42.5
t17.5 42.5t45.5 16.5q27 0 44.5 -16.5t17.5 -42.5zM440 -1q0 -38 -6.5 -73t-23.5 -62t-46 -43.5t-74 -16.5q-15 0 -26 1t-19 3q-9 2 -15 4l1 76q6 -2 13 -4q7 -1 15 -2t17 -1q23 0 36.5 9.5t20.5 26t9 38.5t2 47v473h96v-476z" />
    <glyph glyph-name="f_t" unicode="ft" horiz-adv-x="585" 
d="M571 5q-36 -16 -87 -16q-45 0 -70 17t-37 44t-15 61t-3 69v217h-180v-397h-95v397h-68v77h68v48q0 47 8.5 77.5t23.5 49.5q16 20 44 36t70 16q21 0 36 -1.5t26 -3.5q12 -3 20 -6l-6 -71q-8 3 -17 5q-8 1 -17.5 2.5t-19.5 1.5q-24 0 -38 -8t-22 -22t-10.5 -32.5
t-2.5 -38.5v-53h180v142h96v-142h114v-77h-114v-215q0 -30 2 -51t10 -36q7 -11 18 -17.5t31 -6.5q11 0 19.5 1.5t15.5 4.5q8 2 14 5z" />
    <glyph glyph-name=".notdef" horiz-adv-x="200" 
 />
    <glyph glyph-name=".null" horiz-adv-x="0" 
 />
    <glyph glyph-name=".null" horiz-adv-x="0" 
 />
    <glyph glyph-name="nonmarkingreturn" unicode="&#xd;" horiz-adv-x="199" 
 />
    <glyph glyph-name="space" unicode=" " horiz-adv-x="199" 
 />
    <glyph glyph-name="exclam" unicode="!" horiz-adv-x="301" 
d="M192 184h-83l-8 506h100zM217 52q0 -29 -18.5 -45.5t-47.5 -16.5t-48 16.5t-19 45.5t19 46t48 17t47.5 -17t18.5 -46z" />
    <glyph glyph-name="quotedbl" unicode="&#x22;" horiz-adv-x="446" 
d="M339 476h-71l-10 214h92zM178 476h-72l-10 214h92z" />
    <glyph glyph-name="numbersign" unicode="#" horiz-adv-x="597" 
d="M439 441l-23 -151h112v-63h-122l-32 -208h-64l32 208h-133l-33 -208h-64l33 208h-108v63h118l23 151h-109v62h119l33 209h63l-32 -209h133l33 209h64l-33 -209h111v-62h-121zM242 441l-24 -151h134l23 151h-133z" />
    <glyph glyph-name="dollar" unicode="$" horiz-adv-x="586" 
d="M519 186q0 -39 -16 -72.5t-42 -59t-60.5 -41t-72.5 -19.5l-1 -73h-56v72q-64 1 -118.5 33.5t-85.5 90.5l58 55q21 -47 64 -74t87 -28l1 247l-37 17q-30 14 -56 30t-45.5 37t-31 49t-11.5 65q0 41 15 73t40.5 54.5t59 36t71.5 17.5l1 68h56v-69q45 -4 88.5 -25t73.5 -68
l-49 -57q-21 34 -52.5 53.5t-65.5 23.5l-1 -231l60 -28q25 -11 48 -27t40 -37.5t27.5 -49t10.5 -63.5zM281 623q-45 -5 -71.5 -31.5t-26.5 -70.5q0 -21 7.5 -37t19 -28t26 -21t28.5 -16l16 -8zM431 175q0 45 -21 69t-55 41l-25 12l-1 -228q18 1 36 9t33 22t24 33t9 42z" />
    <glyph glyph-name="percent" unicode="%" horiz-adv-x="779" 
d="M748 154q0 -37 -12 -67.5t-34 -52.5t-52 -34t-65 -12t-65 12t-51.5 34t-34 52.5t-12.5 67.5t12.5 67.5t34 52.5t51.5 34t65 12t65 -12t52 -34t34 -52.5t12 -67.5zM201 -23l-50 30l427 699l50 -30zM357 529q0 -37 -12 -68t-34 -53t-52 -34t-65 -12t-65 12t-51.5 34t-34 53
t-12.5 68t12.5 67.5t34 52.5t51.5 34t65 12t65 -12t52 -34t34 -52.5t12 -67.5zM678 155q0 45 -25 74.5t-68 29.5t-68 -29.5t-25 -74.5q0 -46 25 -75t68 -29t68 29t25 75zM287 529q0 46 -25 75t-68 29t-68 -29t-25 -75q0 -45 25 -74t68 -29t68 29t25 74z" />
    <glyph glyph-name="ampersand" unicode="&#x26;" horiz-adv-x="691" 
d="M569 0l-85 99q-24 -24 -48.5 -44.5t-52.5 -35.5t-60.5 -23t-71.5 -8q-45 0 -84 12.5t-68 37.5t-45.5 61t-16.5 82q0 41 15 73t39.5 57.5t57.5 46t69 38.5l-26.5 31.5t-25 35.5t-19 41.5t-7.5 49.5q0 34 13.5 61t37 46t55.5 29.5t70 10.5t69.5 -10.5t54.5 -29t35.5 -45.5
t12.5 -60q0 -29 -11 -54.5t-30 -47t-44 -40.5t-52 -34l134 -158q8 9 20 27l24.5 38t24 40.5t17.5 34.5l75 -34l-18 -32.5t-27.5 -45.5l-31.5 -47.5t-30 -38.5l145 -158v-6h-115zM401 554q0 38 -23.5 57.5t-60.5 19.5q-36 0 -60.5 -21.5t-24.5 -59.5q0 -26 12 -47.5t26 -37.5
l28 -32l30 18t34 26t27.5 34t11.5 43zM242 325q-18 -10 -37.5 -23t-35 -29.5t-25.5 -38t-10 -48.5t10 -49.5t27 -38.5t41 -25t51 -9t52.5 9t47 22.5t39 30t28.5 31.5l-159 184z" />
    <glyph glyph-name="quotesingle" unicode="'" horiz-adv-x="304" 
d="M188 476h-72l-10 214h92z" />
    <glyph glyph-name="parenleft" unicode="(" horiz-adv-x="284" 
d="M196 -148q-28 43 -55 92.5t-47 107t-32.5 122t-12.5 137.5t12.5 137.5t32.5 122t47 107t55 92.5l61 -33q-19 -28 -40 -73.5t-39 -101.5t-30 -120.5t-12 -130.5t12 -130.5t30 -120.5t39 -101.5t40 -73.5z" />
    <glyph glyph-name="parenright" unicode=")" horiz-adv-x="284" 
d="M235 311q0 -73 -12.5 -137.5t-33 -122t-47 -107t-55.5 -92.5l-61 33q19 28 40 73.5t39 101.5t30 120.5t12 130.5t-12 130.5t-30 120.5t-39 101.5t-40 73.5l61 33q29 -43 55.5 -92.5t47 -107t33 -122t12.5 -137.5z" />
    <glyph glyph-name="asterisk" unicode="*" horiz-adv-x="525" 
d="M300 518l98 -129l-52 -36l-84 136l-83 -136l-52 36l98 129l-149 44l22 60l140 -56l-9 144h67l-9 -144l140 56l22 -60z" />
    <glyph glyph-name="plus" unicode="+" 
d="M371 308v-224h-74v224h-225v74h225v224h74v-224h224v-74h-224z" />
    <glyph glyph-name="comma" unicode="," horiz-adv-x="301" 
d="M137 -140h-76l70 246h98z" />
    <glyph glyph-name="hyphen" unicode="-" horiz-adv-x="292" 
d="M25 234v80h242v-80h-242z" />
    <glyph glyph-name="period" unicode="." horiz-adv-x="301" 
d="M217 52q0 -29 -18.5 -45.5t-47.5 -16.5t-48 16.5t-19 45.5t19 46t48 17t47.5 -17t18.5 -46z" />
    <glyph glyph-name="slash" unicode="/" horiz-adv-x="520" 
d="M85 -93l-64 29l416 853l64 -28z" />
    <glyph glyph-name="zero" unicode="0" horiz-adv-x="586" 
d="M557 344q0 -67 -15 -131t-47 -113.5t-82 -80t-120 -30.5t-120 30.5t-82 80t-47 113.5t-15 131q0 68 15 132t47.5 113.5t82.5 80t119 30.5q70 0 120 -30.5t82 -80t47 -113.5t15 -132zM459 346q0 59 -10.5 109t-31 86t-51.5 56.5t-73 20.5t-73 -20.5t-51.5 -56.5t-31 -86
t-10.5 -109t10.5 -109t31 -86t51.5 -56.5t73 -20.5t73 20.5t51.5 56.5t31 86t10.5 109z" />
    <glyph glyph-name="one" unicode="1" horiz-adv-x="436" 
d="M197 0v619h-135v71h229v-690h-94z" />
    <glyph glyph-name="two" unicode="2" horiz-adv-x="586" 
d="M76 0l-14 65l244 231q20 19 40 40.5t36 45.5t26 50t10 55q0 59 -38 96.5t-104 37.5q-33 0 -59.5 -11t-47.5 -27.5t-36 -36t-26 -36.5l-51 57q7 16 24 38.5t45 43.5t67 36t90 15q52 0 94.5 -14.5t73 -41t47 -64t16.5 -83.5t-17 -84.5t-40 -70t-48 -55l-41 -38.5l-177 -169
h352v-80h-466z" />
    <glyph glyph-name="three" unicode="3" horiz-adv-x="586" 
d="M525 193q0 -47 -19 -84.5t-53 -64t-79 -40.5t-98 -14q-52 0 -92 16.5t-68 37t-44 39.5l-20 24l54 59q4 -5 18 -21t36 -33t51 -30t63 -13q68 0 111.5 32.5t43.5 95.5q0 31 -11 54.5t-30.5 39t-45.5 23.5t-56 8h-51v77h51q55 0 89.5 29t34.5 83q0 27 -10.5 48t-28.5 35.5
t-41.5 21.5t-49.5 7q-53 0 -91.5 -22.5t-73.5 -56.5l-45 58q17 19 37 36.5t46.5 31t59.5 22t75 8.5t81 -12t69 -35t48 -56.5t18 -75.5q0 -38 -11.5 -65.5t-28.5 -45.5t-36.5 -29t-35.5 -16v-3q20 -4 43.5 -15.5t43.5 -32.5t33 -51t13 -70z" />
    <glyph glyph-name="four" unicode="4" horiz-adv-x="586" 
d="M466 151v-151h-94v151h-348v71l341 472h101v-463h100v-80h-100zM373 580l-254 -350h254v350z" />
    <glyph glyph-name="five" unicode="5" horiz-adv-x="586" 
d="M527 221q0 -57 -21.5 -100.5t-57 -73t-81.5 -44.5t-95 -15t-87 12t-66 29.5t-46.5 38t-27.5 36.5l54 56q23 -38 68.5 -65t103.5 -27q29 0 58 9t51.5 28t36.5 48t14 68t-14 68t-36.5 48t-51 28t-58.5 9q-34 0 -68 -9.5t-54 -27.5l-49 29l60 324h347v-78h-277l-36 -183
q41 18 98 18q42 0 84 -14t75.5 -42.5t54.5 -70.5t21 -99z" />
    <glyph glyph-name="six" unicode="6" horiz-adv-x="586" 
d="M544 226q0 -50 -16.5 -93.5t-47 -75.5t-74 -50.5t-97.5 -18.5q-48 0 -84 13.5t-61 32t-40.5 39t-23.5 34.5q-17 29 -32.5 82t-15.5 143q0 67 14.5 133t47.5 118t86.5 84.5t130.5 32.5q40 0 71.5 -8.5t55.5 -19.5t40.5 -23l26.5 -19l-41 -65q-32 26 -70 42.5t-83 16.5
q-55 0 -91 -27.5t-57 -69.5t-29.5 -92t-8.5 -95q9 17 24.5 34.5t38 31.5t53 23t71.5 9t79 -14.5t67.5 -42t47.5 -66.5t18 -89zM450 216q0 29 -9 56.5t-27 48.5t-45 33.5t-63 12.5q-35 0 -62 -12.5t-45 -33.5t-27.5 -48.5t-9.5 -56.5t9.5 -56.5t28 -48.5t45.5 -33.5t62 -12.5
q36 0 62.5 12.5t44.5 33.5t27 48.5t9 56.5z" />
    <glyph glyph-name="seven" unicode="7" horiz-adv-x="586" 
d="M224 0h-102l326 612h-388v78h470l26 -56z" />
    <glyph glyph-name="eight" unicode="8" horiz-adv-x="586" 
d="M531 191q0 -49 -18 -86.5t-50 -63t-75.5 -39t-94.5 -13.5t-94.5 13.5t-75 39t-49.5 63t-18 86.5q0 66 35.5 110t93.5 62v3q-17 6 -36 17t-35 29t-26.5 44.5t-10.5 64.5q0 43 17.5 76t47 56t69 35t82.5 12q44 0 83 -12t68.5 -35t47 -56t17.5 -76q0 -38 -10.5 -64.5
t-26 -44.5t-34.5 -29t-36 -18v-2q57 -19 93 -62.5t36 -109.5zM415 512q0 54 -35 83t-87 29t-87 -29t-35 -83q0 -55 35 -83.5t87 -28.5t87 28.5t35 83.5zM435 198q0 62 -40.5 96.5t-101.5 34.5t-101.5 -34.5t-40.5 -96.5q0 -31 11.5 -55t31 -41t45 -26t54.5 -9t55 9t45.5 26
t30.5 41t11 55z" />
    <glyph glyph-name="nine" unicode="9" horiz-adv-x="586" 
d="M534 356q0 -66 -14.5 -131.5t-47.5 -118t-85.5 -85.5t-128.5 -33q-45 0 -79.5 9t-59 21t-39.5 23.5t-22 17.5l41 64q21 -20 62 -38.5t95 -18.5q56 0 92 28t56.5 70t28.5 92.5t8 95.5q-9 -18 -24 -36t-37.5 -32.5t-53.5 -24t-72 -9.5q-40 0 -78.5 14.5t-68 42t-47.5 67
t-18 88.5q0 50 16.5 93.5t47 75.5t74 50.5t97.5 18.5q47 0 82 -13t60 -31.5t41.5 -39t25.5 -35.5q17 -28 32.5 -82.5t15.5 -142.5zM424 474q0 29 -9 56.5t-27.5 48.5t-45.5 33.5t-63 12.5t-62.5 -12.5t-44.5 -33.5t-27 -48.5t-9 -56.5t9 -56.5t27 -48.5t44.5 -33.5
t62.5 -12.5t63 12.5t45.5 33.5t27.5 48.5t9 56.5z" />
    <glyph glyph-name="colon" unicode=":" horiz-adv-x="301" 
d="M217 420q0 -29 -18.5 -46t-47.5 -17t-48 17t-19 46t19 46t48 17t47.5 -17t18.5 -46zM217 52q0 -29 -18.5 -45.5t-47.5 -16.5t-48 16.5t-19 45.5t19 46t48 17t47.5 -17t18.5 -46z" />
    <glyph glyph-name="semicolon" unicode=";" horiz-adv-x="301" 
d="M217 420q0 -29 -18.5 -46t-47.5 -17t-48 17t-19 46t19 46t48 17t47.5 -17t18.5 -46zM137 -140h-76l70 246h98z" />
    <glyph glyph-name="less" unicode="&#x3c;" 
d="M72 304v82l523 224v-81l-430 -184l430 -184v-81z" />
    <glyph glyph-name="equal" unicode="=" 
d="M72 399v73h523v-73h-523zM72 217v74h523v-74h-523z" />
    <glyph glyph-name="greater" unicode="&#x3e;" 
d="M72 80v81l430 184l-430 184v81l523 -224v-82z" />
    <glyph glyph-name="question" unicode="?" horiz-adv-x="492" 
d="M436 536q0 -30 -7 -53.5t-18.5 -42t-26 -34.5t-30.5 -31q-26 -26 -47 -44t-30 -40q-7 -15 -8 -37l-2 -70h-81l-2 71q-1 30 5 51.5t16.5 38.5t23 30t25.5 25l58 53q14 14 23 32t9 41q0 45 -30.5 69.5t-81.5 24.5q-50 0 -82.5 -23.5t-48.5 -50.5l-42 60q6 11 20 27t36.5 31
t54.5 25.5t76 10.5t79.5 -13.5t60 -36t37.5 -52.5t13 -62zM293 52q0 -29 -18.5 -45.5t-47.5 -16.5t-47.5 16.5t-18.5 45.5t18.5 46t47.5 17t47.5 -17t18.5 -46z" />
    <glyph glyph-name="at" unicode="@" horiz-adv-x="800" 
d="M759 282q0 -66 -21.5 -119t-56.5 -89q-32 -35 -72 -54.5t-78 -19.5q-41 0 -60 18t-24 45q-63 -63 -128 -63q-16 0 -37 6.5t-40 24t-31.5 47.5t-12.5 76q0 47 16.5 95t46 87t70.5 63.5t90 24.5q32 0 54 -8t36 -17q16 -11 25 -25l10 32h65l-85 -267q-10 -34 -8 -58t33 -24
q24 0 50.5 16.5t48.5 45.5t36.5 70.5t14.5 90.5q0 53 -20 98t-56.5 79t-88.5 53t-117 19t-122.5 -24t-101 -66.5t-68.5 -102t-25 -130.5t22 -128t61 -97.5t93 -62.5t118 -22q57 0 103 10.5t80 24t55 26.5t30 18l22 -41l-28.5 -20t-57.5 -30.5t-88 -28t-121 -12.5
q-73 0 -137 25.5t-111.5 72.5t-74.5 114.5t-27 150.5q0 84 31 153t83.5 118.5t120.5 77t141 27.5q67 0 128.5 -20t109 -58.5t76 -94t28.5 -127.5zM519 320q-1 0 -5.5 8t-16 17t-29.5 16.5t-46 7.5q-37 0 -66 -20.5t-49 -52t-31 -68t-11 -68.5q0 -30 7 -50t18 -31t25 -15.5
t27 -4.5q14 0 32 5.5t37 20t36 38.5t28 60z" />
    <glyph glyph-name="A" unicode="A" horiz-adv-x="651" 
d="M541 0l-71 180h-296l-71 -180h-102l281 692h85l282 -692h-108zM322 571l-121 -310h242z" />
    <glyph glyph-name="B" unicode="B" horiz-adv-x="587" 
d="M548 196q0 -54 -21 -89.5t-53 -61.5t-74.5 -35.5t-99.5 -9.5h-224v690h186q49 0 90.5 -6t73.5 -27q32 -20 53 -53t21 -87q0 -55 -30.5 -96t-74.5 -55v-2q70 -14 111.5 -56.5t41.5 -111.5zM403 506q0 33 -11.5 54t-31 32.5t-45 16t-53.5 4.5h-89v-219h81q36 0 61 4t42 17
t31.5 33t14.5 58zM448 200q0 33 -12 55.5t-38 39.5t-57 21t-64 4h-104v-241h104q33 0 64 3.5t57 20.5q50 34 50 97z" />
    <glyph glyph-name="C" unicode="C" horiz-adv-x="665" 
d="M642 90q-16 -18 -39 -36t-54.5 -33t-71 -24t-88.5 -9q-75 0 -139.5 25.5t-112 72t-74 112t-26.5 146.5t27.5 146.5t75 112t112 72t138.5 25.5q48 0 87 -9t69.5 -22.5t52.5 -29.5t36 -30l-41 -78q-10 13 -29 27.5t-45 27t-58 21t-68 8.5q-56 0 -103 -19t-81.5 -54.5
t-53.5 -85t-19 -110.5t19.5 -110.5t53.5 -84.5t81.5 -54.5t102.5 -19.5q69 0 120.5 23.5t85.5 60.5z" />
    <glyph glyph-name="D" unicode="D" horiz-adv-x="686" 
d="M649 345q0 -80 -28 -144t-77 -108.5t-115.5 -68.5t-144.5 -24h-208v690h208q78 0 144.5 -24t115.5 -68.5t77 -108.5t28 -144zM550 345q0 60 -19.5 108t-55 82.5t-84 53t-107.5 18.5h-111v-523h111q59 0 107.5 18.5t84 52.5t55 82t19.5 108z" />
    <glyph glyph-name="E" unicode="E" horiz-adv-x="531" 
d="M76 0v690h404v-81h-307v-206h290v-82h-290v-239h315v-82h-412z" />
    <glyph glyph-name="F" unicode="F" horiz-adv-x="494" 
d="M173 609v-230h269v-81h-269v-298h-97v690h383v-81h-286z" />
    <glyph glyph-name="G" unicode="G" horiz-adv-x="747" 
d="M682 100l-24 -23t-54 -38t-88 -35.5t-127 -15.5t-138 25.5t-111.5 72.5t-75 112.5t-27.5 146.5t27.5 146.5t74.5 112t111.5 71.5t137.5 25q66 0 114.5 -15t81.5 -35t53 -40l30 -30l-66 -61q-15 18 -35 35.5t-46 31.5t-58.5 22.5t-73.5 8.5q-53 0 -99 -18.5t-79.5 -53.5
t-53 -85.5t-19.5 -114.5t20 -114.5t54.5 -85.5t81.5 -53.5t101 -18.5t91 10t60 22q27 13 43 31v153h-186v79h280v-268z" />
    <glyph glyph-name="H" unicode="H" horiz-adv-x="714" 
d="M540 0v322h-367v-322h-97v690h97v-285h367v285h97v-690h-97z" />
    <glyph glyph-name="I" unicode="I" horiz-adv-x="249" 
d="M76 0v690h97v-690h-97z" />
    <glyph glyph-name="J" unicode="J" horiz-adv-x="249" 
d="M173 2q0 -51 -8 -87t-23 -59q-16 -22 -43.5 -39t-67.5 -17q-30 0 -50 5.5t-25 8.5l2 74q8 -3 21.5 -6.5t31.5 -3.5q22 0 35 10t19.5 26.5t8.5 38.5t2 46v691h97v-688z" />
    <glyph glyph-name="K" unicode="K" horiz-adv-x="579" 
d="M473 0l-229 346l-71 -72v-274h-97v690h97v-294l281 294h118l-263 -272l282 -418h-118z" />
    <glyph glyph-name="L" unicode="L" horiz-adv-x="426" 
d="M76 0v690h97v-608h243v-82h-340z" />
    <glyph glyph-name="M" unicode="M" horiz-adv-x="854" 
d="M713 0l-45 545h-3l-211 -551h-55l-211 551h-3l-44 -545h-96l62 690h120l199 -533h2l199 533h119l63 -690h-96z" />
    <glyph glyph-name="N" unicode="N" horiz-adv-x="740" 
d="M568 0l-398 550q1 -27 1 -58q0 -28 0.5 -59.5t0.5 -65.5v-367h-96v690h102l391 -542v54q-1 26 -1 57v65v366h95v-690h-95z" />
    <glyph glyph-name="O" unicode="O" horiz-adv-x="786" 
d="M749 344q0 -83 -28.5 -149t-77 -112t-113 -70.5t-137.5 -24.5t-137.5 24.5t-113 70.5t-77 112t-28.5 149t28.5 149t77 112t113 70.5t137.5 24.5t137.5 -24.5t113 -70.5t77 -112t28.5 -149zM650 346q0 63 -20.5 113.5t-55.5 85t-81.5 53t-99.5 18.5t-99.5 -18.5t-81.5 -53
t-55.5 -85t-20.5 -113.5t20.5 -113t55.5 -85t82 -53.5t99 -18.5q53 0 99.5 18.5t81.5 53.5t55.5 85t20.5 113z" />
    <glyph glyph-name="P" unicode="P" horiz-adv-x="531" 
d="M504 493q0 -52 -19 -89.5t-51 -61.5t-74.5 -35t-89.5 -11h-97v-296h-97v690h194q51 0 93 -11t74 -38q32 -28 49.5 -63t17.5 -85zM404 493q0 32 -11.5 54.5t-31 36.5t-45 20.5t-54.5 6.5h-89v-236h89q29 0 54.5 6t45 20t31 36.5t11.5 55.5z" />
    <glyph glyph-name="Q" unicode="Q" horiz-adv-x="786" 
d="M749 344q0 -80 -25.5 -143.5t-70.5 -109.5l76 -87l-63 -56l-79 91q-42 -25 -91 -38t-103 -13q-73 0 -137.5 24.5t-113 70.5t-77 112t-28.5 149t28.5 149t77 112t113 70.5t137.5 24.5t137.5 -24.5t113 -70.5t77 -112t28.5 -149zM650 346q0 63 -20.5 113.5t-55.5 85
t-81.5 53t-99.5 18.5t-99.5 -18.5t-81.5 -53t-55.5 -85t-20.5 -113.5t20.5 -113t55.5 -85t82 -53.5t99 -18.5q72 0 132 34l-58 66l63 56l59 -68q29 35 45 80.5t16 101.5z" />
    <glyph glyph-name="R" unicode="R" horiz-adv-x="540" 
d="M427 0l-180 297h-74v-297h-97v690h195q46 0 88 -11t74.5 -34.5t51.5 -60.5t19 -88q0 -45 -14.5 -78.5t-37 -56t-50.5 -36t-55 -18.5l197 -307h-117zM404 494q0 31 -10.5 53t-33.5 39t-51.5 21t-64.5 4h-71v-234h71q36 0 64.5 3.5t51.5 20.5t33.5 39t10.5 54z" />
    <glyph glyph-name="S" unicode="S" horiz-adv-x="534" 
d="M498 192q0 -50 -20.5 -88.5t-54.5 -64t-77.5 -38.5t-88.5 -13t-81 13t-63.5 31t-47 38t-31.5 34l57 65q13 -18 31.5 -35.5t41 -31.5t48.5 -23t54 -9t52.5 8t43 23t29 36.5t10.5 48.5t-12.5 46t-30.5 32.5t-37 22t-32 13.5l-58.5 23.5t-51.5 22.5q-54 25 -84 66.5
t-30 102.5q0 46 19 80.5t50.5 57.5t71.5 34.5t81 11.5q42 0 76 -11t58.5 -26t40.5 -29.5t23 -22.5l-51 -66q-26 27 -63.5 50.5t-88.5 23.5t-85.5 -24t-34.5 -72q0 -24 8 -41t21 -29t28.5 -20.5t31.5 -14.5l127 -53q54 -25 87 -67.5t33 -104.5z" />
    <glyph glyph-name="T" unicode="T" horiz-adv-x="501" 
d="M299 609v-609h-97v609h-195v81h486v-81h-194z" />
    <glyph glyph-name="U" unicode="U" 
d="M596 282q0 -65 -10 -116.5t-45 -93.5q-35 -41 -86.5 -62.5t-120.5 -21.5t-120.5 21.5t-86.5 62.5q-36 42 -46 93.5t-10 116.5v408h98v-399q0 -44 4.5 -84t27.5 -71q21 -29 54.5 -45t78.5 -16t78 16t55 45q23 31 27.5 71.5t4.5 83.5v399h97v-408z" />
    <glyph glyph-name="V" unicode="V" horiz-adv-x="596" 
d="M341 -1h-86l-254 691h104l194 -550l194 550h102z" />
    <glyph glyph-name="W" unicode="W" horiz-adv-x="929" 
d="M725 -1h-95l-166 558l-165 -558h-95l-199 691h102l149 -544l159 544h99l159 -544l149 544h102z" />
    <glyph glyph-name="X" unicode="X" horiz-adv-x="579" 
d="M464 0l-175 293l-174 -293h-116l228 356l-212 334h114l160 -269l161 269h114l-212 -334l229 -356h-117z" />
    <glyph glyph-name="Y" unicode="Y" horiz-adv-x="575" 
d="M336 289v-289h-97v289l-240 401h109l179 -317l180 317h109z" />
    <glyph glyph-name="Z" unicode="Z" horiz-adv-x="566" 
d="M30 0v74l377 535h-366v81h493v-66l-387 -542h394v-82h-511z" />
    <glyph glyph-name="bracketleft" unicode="[" horiz-adv-x="284" 
d="M52 -140v901h189v-57h-106v-788h106v-56h-189z" />
    <glyph glyph-name="backslash" unicode="\" horiz-adv-x="516" 
d="M434 -34l-412 801l60 28l413 -800z" />
    <glyph glyph-name="bracketright" unicode="]" horiz-adv-x="284" 
d="M50 -140v56h106v788h-106v57h189v-901h-189z" />
    <glyph glyph-name="asciicircum" unicode="^" 
d="M476 300l-142 317l-143 -317h-81l182 399h83l182 -399h-81z" />
    <glyph glyph-name="underscore" unicode="_" horiz-adv-x="500" 
d="M0 -38v75h500v-75h-500z" />
    <glyph glyph-name="grave" unicode="`" horiz-adv-x="335" 
d="M186 545l-110 145h94l89 -145h-73z" />
    <glyph glyph-name="a" unicode="a" horiz-adv-x="492" 
d="M342 0l-1 60l-19.5 -19.5t-30.5 -23.5t-43 -19.5t-58 -8.5t-62.5 10t-52 29t-36 46.5t-13.5 61.5q0 70 52 105.5t134 39.5l127 5v19q0 54 -33 81t-85 27q-26 0 -49.5 -5t-42 -11.5t-32 -13.5t-19.5 -11l-29 64q26 15 72 31.5t106 16.5q208 0 208 -208v-276h-93zM229 221
q-58 -3 -83 -25.5t-25 -56.5t25 -58t73 -24q23 0 42.5 7t34.5 17.5t26 22.5t18 22v102z" />
    <glyph glyph-name="b" unicode="b" horiz-adv-x="597" 
d="M563 238q0 -53 -16.5 -98.5t-46.5 -79t-72.5 -52.5t-95.5 -19q-52 0 -95 21t-72 65h-2v-75h-92v690h95v-289h2q26 39 67.5 61t98.5 22q52 0 94.5 -18.5t72.5 -51.5t46 -78t16 -98zM465 239q0 36 -10 66.5t-29.5 53t-47.5 35t-64 12.5t-64 -12.5t-47.5 -35t-30 -53
t-10.5 -66.5t10.5 -66.5t30 -53t47.5 -35.5t64 -13t64 13t47.5 35.5t29.5 53t10 66.5z" />
    <glyph glyph-name="c" unicode="c" horiz-adv-x="475" 
d="M464 61l-17.5 -17t-35 -24t-56 -21.5t-81.5 -9.5t-91.5 17.5t-76.5 49.5t-52.5 78t-19.5 103t20.5 103t54 78t77.5 49t91 17q48 0 82 -10t56 -22t33 -23l13 -13l-34 -70q-6 6 -17 16t-28.5 19t-41 16t-55.5 7q-31 0 -59 -11.5t-49 -33t-33.5 -51.5t-12.5 -68
q0 -37 11 -68.5t31.5 -53.5t49 -34.5t62.5 -12.5q35 0 62 9.5t45 20.5q22 13 38 30z" />
    <glyph glyph-name="d" unicode="d" horiz-adv-x="597" 
d="M434 0v76h-2q-29 -44 -72 -65.5t-95 -21.5q-53 0 -95.5 19t-72.5 52.5t-46.5 79t-16.5 98.5t16 98t46 78t72.5 51.5t94.5 18.5q58 0 99.5 -23t66.5 -60h2v289h95v-690h-92zM434 239q0 36 -10 66.5t-29.5 53t-47.5 35t-64 12.5t-64 -12.5t-47.5 -35t-29.5 -53t-10 -66.5
t10 -66.5t29.5 -53t47.5 -35.5t64 -13t64 13t47.5 35.5t29.5 53t10 66.5z" />
    <glyph glyph-name="e" unicode="e" horiz-adv-x="529" 
d="M500 257q0 -7 -0.5 -14.5t-0.5 -13.5l-2 -14h-366q4 -71 45.5 -111t107.5 -40q33 0 60.5 7.5t47.5 17.5t32.5 18.5t16.5 11.5l40 -55q-2 -2 -15 -14t-38.5 -25.5t-64 -24.5t-91.5 -11t-96.5 17.5t-75 50t-49 78.5t-17.5 103q0 56 19 101.5t52 77.5t77 49.5t93 17.5
q50 0 91 -17t71 -47t46.5 -71.5t16.5 -91.5zM409 279q0 20 -8 43.5t-24.5 44t-42.5 34.5t-62 14t-61.5 -13t-43 -33.5t-26 -44.5t-9.5 -45h277z" />
    <glyph glyph-name="f" unicode="f" horiz-adv-x="274" 
d="M306 619q-8 3 -17 5q-8 1 -17.5 2.5t-19.5 1.5q-24 0 -38 -8t-22 -22t-10.5 -32.5t-2.5 -38.5v-53h113v-77h-113v-397h-95v397h-68v77h68v48q0 47 8.5 77.5t23.5 49.5q16 20 44 36t70 16q21 0 36 -1.5t26 -3.5q12 -3 20 -6z" />
    <glyph glyph-name="g" unicode="g" horiz-adv-x="593" 
d="M526 100q0 -79 -13 -126t-39 -79q-13 -16 -31 -32.5t-43.5 -29.5t-59.5 -21t-78 -8t-80.5 9.5t-64 22t-45 24t-22.5 15.5l45 67q9 -8 27 -18.5t41 -19.5t49 -15.5t53 -6.5q45 0 77 13t51.5 37.5t28.5 58.5t9 76v24h-2q-24 -36 -65 -60.5t-101 -24.5q-46 0 -87.5 16
t-73 47t-50 75t-18.5 101t18.5 101t50 75t73 47t87.5 16q63 0 104 -25.5t62 -58.5h3l-1 75h95v-375zM434 245q0 34 -10 63.5t-29 51.5t-47 34.5t-65 12.5q-36 0 -64.5 -12.5t-47.5 -34.5t-29 -51.5t-10 -63.5t10 -63t29 -51t47.5 -34.5t64.5 -12.5q37 0 65 12.5t47 34.5
t29 51t10 63z" />
    <glyph glyph-name="h" unicode="h" horiz-adv-x="548" 
d="M388 0v269q0 26 -3 50t-13.5 43.5t-29.5 31t-52 11.5t-56.5 -13t-38.5 -36t-22 -54t-7 -67v-235h-95v690h95v-290h2q19 35 56.5 59.5t89.5 24.5q51 0 84 -15.5t52 -42.5t26.5 -64t7.5 -79v-283h-96z" />
    <glyph glyph-name="i" unicode="i" horiz-adv-x="236" 
d="M180 631q0 -26 -17.5 -42.5t-44.5 -16.5q-28 0 -45.5 16.5t-17.5 42.5t17.5 42.5t45.5 16.5q27 0 44.5 -16.5t17.5 -42.5zM70 0v475h96v-475h-96z" />
    <glyph glyph-name="j" unicode="j" horiz-adv-x="236" 
d="M180 631q0 -26 -17.5 -42.5t-44.5 -16.5q-28 0 -45.5 16.5t-17.5 42.5t17.5 42.5t45.5 16.5q27 0 44.5 -16.5t17.5 -42.5zM166 -1q0 -38 -6.5 -73t-23.5 -62t-46 -43.5t-74 -16.5q-15 0 -26 1t-19 3q-9 2 -15 4l1 76q6 -2 13 -4q7 -1 15 -2t17 -1q23 0 36.5 9.5t20.5 26
t9 38.5t2 47v473h96v-476z" />
    <glyph glyph-name="k" unicode="k" horiz-adv-x="487" 
d="M384 0l-163 230l-55 -52v-178h-95v690h95v-405l194 190h112l-186 -179l210 -296h-112z" />
    <glyph glyph-name="l" unicode="l" horiz-adv-x="237" 
d="M71 0v690h95v-690h-95z" />
    <glyph glyph-name="m" unicode="m" horiz-adv-x="816" 
d="M659 0v277q0 21 -3 43.5t-12 41t-26 31t-46 12.5q-28 0 -49.5 -12.5t-36 -34.5t-21.5 -50.5t-7 -60.5v-247h-96v277q0 26 -3.5 49.5t-13.5 41t-26.5 27.5t-42.5 10q-28 0 -49.5 -12.5t-36 -34.5t-21.5 -50.5t-7 -60.5v-247h-96v475h96l-1 -75h3q17 33 53 58.5t84 25.5
q108 0 141 -94q24 45 62 69.5t89 24.5q48 0 79 -16t49 -43t25.5 -62.5t7.5 -74.5v-288h-95z" />
    <glyph glyph-name="n" unicode="n" horiz-adv-x="541" 
d="M383 0v265q0 30 -3.5 55.5t-14 44.5t-30 29.5t-51.5 10.5q-33 0 -56.5 -13t-38 -35.5t-21 -53t-6.5 -64.5v-239h-96v475h96l-1 -75h3q19 35 56 59.5t89 24.5q51 0 83.5 -15.5t52 -43t27 -64.5t7.5 -80v-281h-96z" />
    <glyph glyph-name="o" unicode="o" horiz-adv-x="571" 
d="M537 236q0 -55 -19.5 -101t-53 -78t-79.5 -50t-99 -18t-99 18t-80 50t-53.5 78t-19.5 101t19.5 100.5t53.5 78.5t80 51t99 18t99 -18t79.5 -51t53 -78.5t19.5 -100.5zM440 239q0 35 -10.5 65.5t-30.5 53t-48.5 35.5t-64.5 13t-64.5 -13t-49 -35.5t-31 -53t-10.5 -65.5
t10.5 -66t31 -53.5t49 -35.5t64.5 -13t64.5 13t48.5 35.5t30.5 53.5t10.5 66z" />
    <glyph glyph-name="p" unicode="p" horiz-adv-x="596" 
d="M562 238q0 -53 -16.5 -98.5t-46.5 -79t-72.5 -52.5t-95.5 -19q-57 0 -97.5 22.5t-66.5 62.5l-1 1v-261h-96v661h92v-75h2q63 84 169 84q53 0 95 -18.5t72 -51.5t46 -78t16 -98zM464 239q0 36 -10 66.5t-29.5 53t-47.5 35t-64 12.5t-64 -12.5t-47.5 -35t-29.5 -53
t-10 -66.5t10 -66.5t29.5 -53t47.5 -35.5t64 -13t64 13t47.5 35.5t29.5 53t10 66.5z" />
    <glyph glyph-name="q" unicode="q" horiz-adv-x="592" 
d="M431 -186v260h-2q-26 -40 -66.5 -62.5t-97.5 -22.5q-53 0 -95.5 19t-72.5 52.5t-46.5 79t-16.5 98.5t16 98t46 78t72.5 51.5t94.5 18.5q108 0 169 -84h3l-1 75h92v-661h-95zM434 239q0 36 -10 66.5t-29.5 53t-47.5 35t-64 12.5t-64 -12.5t-47.5 -35t-29.5 -53t-10 -66.5
t10 -66.5t29.5 -53t47.5 -35.5t64 -13t64 13t47.5 35.5t29.5 53t10 66.5z" />
    <glyph glyph-name="r" unicode="r" horiz-adv-x="335" 
d="M325 387h-4q-7 3 -19.5 6.5t-32.5 3.5q-32 0 -53 -15.5t-33 -39t-16.5 -51.5t-4.5 -54v-237h-96v475h96l-1 -73h3q17 41 48 61.5t69 20.5q12 0 21.5 -1t15.5 -3q7 -2 13 -4z" />
    <glyph glyph-name="s" unicode="s" horiz-adv-x="414" 
d="M386 139q0 -38 -15.5 -66.5t-40.5 -47t-57.5 -27.5t-67.5 -9q-60 0 -107.5 23t-77.5 62l46 56q30 -32 68.5 -50t71.5 -18q17 0 33 3.5t29 11t21 21t8 32.5q0 20 -12 33t-29.5 22t-35.5 14.5t-30 9.5q-26 9 -51.5 19t-45 25.5t-31.5 38t-12 56.5q0 33 13 58.5t35.5 42.5
t51.5 26t60 9q63 0 101 -19t61 -43l-40 -59q-21 22 -53 36.5t-67 14.5t-55.5 -15t-20.5 -44q0 -15 8 -25.5t21 -19t29.5 -14.5l34.5 -12l34.5 -12t29.5 -11q40 -17 66.5 -46t26.5 -76z" />
    <glyph glyph-name="t" unicode="t" horiz-adv-x="311" 
d="M297 5q-36 -16 -87 -16q-45 0 -70 17t-37 44t-15 61t-3 69v217h-70v77h70v142h96v-142h114v-77h-114v-215q0 -30 2 -51t10 -36q7 -11 18 -17.5t31 -6.5q11 0 19.5 1.5t15.5 4.5q8 2 14 5z" />
    <glyph glyph-name="u" unicode="u" horiz-adv-x="536" 
d="M377 0l-1 68q-20 -35 -58 -57t-89 -22q-49 0 -81.5 15t-51.5 42t-26.5 64t-7.5 81v285h95v-281q0 -24 3.5 -47t14 -40.5t30 -28t51.5 -10.5t54 12.5t36.5 33.5t21 48.5t6.5 57.5v255h96v-476h-93z" />
    <glyph glyph-name="v" unicode="v" horiz-adv-x="482" 
d="M283 0h-84l-198 475h100l141 -358l140 358h99z" />
    <glyph glyph-name="w" unicode="w" horiz-adv-x="761" 
d="M594 0h-88l-125 355l-126 -355h-88l-157 475h97l110 -359l125 360h77l125 -360l110 359h97z" />
    <glyph glyph-name="x" unicode="x" horiz-adv-x="496" 
d="M389 0l-141 193l-141 -193h-108l193 250l-171 225h106l121 -171l121 171h107l-172 -225l193 -250h-108z" />
    <glyph glyph-name="y" unicode="y" horiz-adv-x="479" 
d="M252 -83q-25 -62 -55 -86t-70 -24q-20 0 -36.5 2.5t-28.5 5.5q-14 4 -25 9l19 78l16 -6q8 -2 16.5 -3.5t17.5 -1.5q29 0 40.5 15t21.5 41l23 63l-193 466l100 -1l144 -369l140 370l99 -1z" />
    <glyph glyph-name="z" unicode="z" horiz-adv-x="456" 
d="M21 0v59l278 338h-264v77h386v-58l-277 -337h291v-79h-414z" />
    <glyph glyph-name="braceleft" unicode="{" horiz-adv-x="284" 
d="M202 -140q-38 0 -62.5 9t-39 27.5t-20 46.5t-5.5 66v182q0 27 -6.5 43.5t-16 25.5t-20.5 11.5t-21 2.5v72q10 0 21 2.5t20.5 11.5t16 25.5t6.5 44.5v181q0 38 5.5 66t20 47t39 28t62.5 9h44v-57h-22q-38 0 -52.5 -14t-14.5 -52v-199q0 -34 -5 -56t-14 -36t-22.5 -22
t-30.5 -13v-4q17 -5 30.5 -13t22.5 -21.5t14 -35.5t5 -56v-200q0 -38 14.5 -52t52.5 -14h22v-56h-44z" />
    <glyph glyph-name="bar" unicode="|" horiz-adv-x="284" 
d="M107 -119v919h70v-919h-70z" />
    <glyph glyph-name="braceright" unicode="}" horiz-adv-x="284" 
d="M272 274q-10 0 -21 -2.5t-20.5 -11.5t-15.5 -25.5t-6 -43.5v-182q0 -38 -5.5 -66t-20 -46.5t-39 -27.5t-62.5 -9h-45v56h23q38 0 52 14t14 52v200q0 34 5 56t14 35.5t22.5 21.5t31.5 13v4q-18 5 -31.5 13t-22.5 22t-14 36t-5 56v199q0 38 -14 52t-52 14h-23v57h45
q38 0 62.5 -9t39 -28t20 -47t5.5 -66v-181q0 -28 6 -44.5t15.5 -25.5t20.5 -11.5t21 -2.5v-72z" />
    <glyph glyph-name="asciitilde" unicode="~" 
d="M590 320q-24 -40 -61 -70.5t-88 -30.5q-37 0 -66 12.5t-53 24.5l-48 22.5t-50 11.5q-30 0 -54.5 -21t-41.5 -49l-51 49q12 20 27.5 38t34 32t40.5 22.5t47 8.5q37 0 66.5 -12.5t52.5 -24.5t48.5 -23t49.5 -11q30 0 54.5 20.5t41.5 49.5z" />
    <glyph glyph-name="nonbreakingspace" unicode="&#xa0;" horiz-adv-x="199" 
 />
    <glyph glyph-name="exclamdown" unicode="&#xa1;" horiz-adv-x="301" 
d="M217 423q0 -29 -18.5 -46t-47.5 -17t-48 17t-19 46t19 46t48 17t47.5 -17t18.5 -46zM101 -215l8 507h83l9 -507h-100z" />
    <glyph glyph-name="cent" unicode="&#xa2;" horiz-adv-x="586" 
d="M510 121q-7 -8 -23 -18.5t-37 -20t-45.5 -16t-48.5 -7.5v-89h-59v90q-48 5 -88.5 24.5t-70 51.5t-46 75t-16.5 94t16.5 94t46 75t70 52t88.5 25v89h59v-88q26 -1 49.5 -7.5t43.5 -15.5t35 -18.5t23 -18.5l-30 -70q-14 15 -45.5 32t-75.5 21v-337q18 0 37 5t36.5 12.5
t31 16.5t21.5 17zM297 472q-29 -5 -53 -20t-40.5 -37.5t-25.5 -50t-9 -58.5q0 -61 33.5 -107t94.5 -57v330z" />
    <glyph glyph-name="sterling" unicode="&#xa3;" horiz-adv-x="586" 
d="M62 0v77h117q7 11 13 27t11 34t8 35.5t3 32.5q0 14 -1 28t-2 26l-4 25h-115v64h104l-22 62q-8 23 -15.5 52t-7.5 62q0 41 15 73.5t41.5 55t61 34.5t73.5 12q47 0 93 -16.5t80 -66.5l-46 -55l-11 14.5t-22.5 22t-36 20t-50.5 8.5q-30 0 -50.5 -9.5t-33 -24.5t-18.5 -34
t-6 -37q0 -36 8.5 -64.5t16.5 -51.5l20 -57h150v-64h-139l4 -25q1 -12 2 -26t1 -28q0 -15 -3 -32.5t-8 -35.5t-11 -34t-13 -27h268v-77h-475z" />
    <glyph glyph-name="currency" unicode="&#xa4;" horiz-adv-x="586" 
d="M550 80l-14.5 -18.5t-34.5 -31t-58.5 -29.5t-85.5 -13q-100 0 -167.5 68t-87.5 193h-67v65l60 1v12q-1 5 -1 11v12v34h-59v65h68q8 50 28.5 95.5t53 80t76.5 55t98 20.5q38 0 67 -8t50.5 -18.5t35.5 -22l23 -19.5l-33 -75q-8 11 -20.5 22t-29.5 21t-39.5 16t-51.5 6
q-57 0 -100.5 -41t-57.5 -132h249v-65h-258v-34v-11.5t1 -11.5v-13h257v-65h-249q11 -85 53 -131t106 -46q32 0 56.5 8.5t42.5 20.5t30 24l19 19z" />
    <glyph glyph-name="yen" unicode="&#xa5;" horiz-adv-x="586" 
d="M397 397h122v-65h-158l-20 -40v-34h178v-65h-178v-193h-96v193h-178v65h178v33l-19 41h-159v65h122l-172 293h109l167 -313l168 313h108z" />
    <glyph glyph-name="brokenbar" unicode="&#xa6;" horiz-adv-x="284" 
d="M107 487v313h70v-313h-70zM107 0v312h70v-312h-70z" />
    <glyph glyph-name="section" unicode="&#xa7;" horiz-adv-x="611" 
d="M515 251q0 -38 -15.5 -64.5t-33.5 -42.5q-22 -20 -50 -33q14 -7 29 -20t27.5 -31t20.5 -41t8 -50q0 -39 -16 -69.5t-43 -51.5t-63 -32.5t-77 -11.5q-81 0 -131 32.5t-75 88.5l63 44q19 -47 58.5 -71t87.5 -24q47 0 76.5 23t29.5 68q0 22 -9.5 39.5t-25 31t-37 24.5
t-45.5 22l-86 40q-42 20 -70.5 56t-28.5 90q0 36 13 62t30 43.5t34 27.5t25 13q-20 13 -36 32q-15 17 -25.5 40.5t-10.5 55.5q0 37 14 66.5t38.5 49.5t58 31t71.5 11q76 0 122.5 -30t70.5 -76l-54 -47q-23 43 -58 64.5t-78 21.5q-44 0 -70.5 -21.5t-26.5 -63.5
q0 -21 9 -36.5t24 -28.5t35.5 -24t44.5 -22l69 -31q43 -20 74.5 -58t31.5 -97zM432 244q0 36 -21 58t-46 34q-6 3 -22.5 10.5l-34.5 15.5l-46 19q-34 -11 -52.5 -37.5t-18.5 -64.5t21 -58t45 -33q6 -3 22.5 -10l34.5 -15l46 -20q37 13 54.5 39t17.5 62z" />
    <glyph glyph-name="dieresis" unicode="&#xa8;" horiz-adv-x="335" 
d="M297 617q0 -24 -15.5 -38.5t-37.5 -14.5q-21 0 -36.5 14.5t-15.5 38.5q0 25 15.5 39.5t36.5 14.5q22 0 37.5 -14.5t15.5 -39.5zM143 617q0 -24 -15.5 -38.5t-36.5 -14.5q-22 0 -37.5 14.5t-15.5 38.5q0 25 15.5 39.5t37.5 14.5q21 0 36.5 -14.5t15.5 -39.5z" />
    <glyph glyph-name="copyright" unicode="&#xa9;" horiz-adv-x="787" 
d="M750 345q0 -75 -27.5 -140t-75.5 -113t-113 -75.5t-140 -27.5t-140 27.5t-113 75.5t-75.5 113t-27.5 140t27.5 140t75.5 113t113 75.5t140 27.5t140 -27.5t113 -75.5t75.5 -113t27.5 -140zM703 345q0 64 -24.5 120.5t-66.5 98.5t-98 66t-120 24t-120.5 -24t-98.5 -66
t-66 -98.5t-24 -120.5t24 -120.5t66 -98.5t98.5 -66t120.5 -24t120.5 24t98.5 66t66 98.5t24 120.5zM564 196q-8 -9 -21.5 -20t-33 -20.5t-44.5 -16t-56 -6.5q-44 0 -82.5 15.5t-66.5 43.5t-44 67t-16 86t16 86t44 67t66.5 43.5t82.5 15.5q60 0 97 -19.5t54 -38.5l-32 -48
q-12 15 -42 32.5t-75 17.5q-29 0 -55 -10t-46 -29.5t-31.5 -48t-11.5 -66.5q0 -37 11 -66t30.5 -49t46 -30t56.5 -10q40 0 70 13.5t52 34.5z" />
    <glyph glyph-name="ordfeminine" unicode="&#xaa;" horiz-adv-x="351" 
d="M230 188l-1 36q-10 -11 -35 -26t-59 -15q-18 0 -36.5 5t-33.5 16.5t-24.5 28.5t-9.5 41t10 40.5t26 26.5t37 14.5t43 5.5l81 3v6q0 33 -21 48t-51 15q-31 0 -56 -10t-32 -16l-23 45q17 11 48 21.5t69 10.5q69 0 103 -32t34 -101v-163h-69zM162 321q-24 -2 -40.5 -12
t-16.5 -32q0 -23 15 -34.5t41 -11.5q14 0 25 4t20 9.5t14.5 11t7.5 8.5v59z" />
    <glyph glyph-name="guillemotleft" unicode="&#xab;" horiz-adv-x="489" 
d="M369 40l-148 198l148 198l53 -39l-119 -159l119 -161zM203 40l-149 198l149 198l52 -39l-118 -159l119 -161z" />
    <glyph glyph-name="logicalnot" unicode="&#xac;" horiz-adv-x="669" 
d="M521 167v225h-449v74h523v-299h-74z" />
    <glyph glyph-name="uni00AD" unicode="&#xad;" horiz-adv-x="292" 
d="M25 234v80h242v-80h-242z" />
    <glyph glyph-name="registered" unicode="&#xae;" horiz-adv-x="787" 
d="M750 345q0 -75 -27.5 -140t-75.5 -113t-113 -75.5t-140 -27.5t-140 27.5t-113 75.5t-75.5 113t-27.5 140t27.5 140t75.5 113t113 75.5t140 27.5t140 -27.5t113 -75.5t75.5 -113t27.5 -140zM703 345q0 64 -24.5 120.5t-66.5 98.5t-98 66t-120 24t-120.5 -24t-98.5 -66
t-66 -98.5t-24 -120.5t24 -120.5t66 -98.5t98.5 -66t120.5 -24t120 24t98 66t66.5 98.5t24.5 120.5zM478 139l-99 171h-51v-171h-64v412l142 -1q26 0 49 -8t41 -23t28.5 -37t10.5 -51t-9 -49t-22.5 -33.5t-29.5 -21t-30 -10.5l111 -178h-77zM469 430q0 21 -7 34t-19 20.5
t-27.5 10t-32.5 2.5h-55v-134h55q17 0 32.5 3t27.5 10.5t19 20.5t7 33z" />
    <glyph glyph-name="macron" unicode="&#xaf;" horiz-adv-x="335" 
d="M38 592v55h259v-55h-259z" />
    <glyph glyph-name="degree" unicode="&#xb0;" horiz-adv-x="412" 
d="M360 584q0 -33 -12 -61t-33 -48t-49 -31.5t-60 -11.5q-31 0 -59 11.5t-49 31.5t-33.5 48t-12.5 61t12.5 60.5t33.5 47.5t49 31.5t59 11.5q32 0 60 -11.5t49 -31.5t33 -47.5t12 -60.5zM304 584q0 20 -7.5 37.5t-20.5 30.5t-31 21t-39 8q-42 0 -69.5 -29t-27.5 -68
q0 -40 27.5 -69t69.5 -29t70 29t28 69z" />
    <glyph glyph-name="plusminus" unicode="&#xb1;" 
d="M371 396v-195h-75v195h-224v73h224v195h75v-195h224v-73h-224zM72 86v73h523v-73h-523z" />
    <glyph glyph-name="twosuperior" unicode="&#xb2;" horiz-adv-x="379" 
d="M46 289l-5 52l158 154q31 31 47.5 54t16.5 52t-22 48t-60 19q-39 0 -62.5 -20.5t-36.5 -55.5l-46 29q3 21 14.5 40t31 34t45.5 24t59 9q32 0 59.5 -9t47 -25t30.5 -38t11 -49t-9.5 -49t-23.5 -41t-30.5 -35.5l-31.5 -30.5l-103 -102h206v-60h-296z" />
    <glyph glyph-name="threesuperior" unicode="&#xb3;" horiz-adv-x="379" 
d="M346 413q0 -30 -12.5 -53.5t-33.5 -40.5t-49 -26t-59 -9q-55 0 -94.5 23.5t-56.5 70.5l48 31q11 -32 37.5 -49t61.5 -17t61 19t26 52q0 35 -25.5 54t-61.5 20h-25v56h29q30 1 51.5 18t21.5 49q0 26 -18.5 43t-54.5 17q-31 0 -55 -15t-38 -44l-40 34q16 36 50.5 59
t85.5 23q29 0 54 -8t44.5 -23t30.5 -35.5t11 -46.5q0 -35 -19.5 -59.5t-50.5 -36.5v-2q36 -10 58.5 -38t22.5 -66z" />
    <glyph glyph-name="acute" unicode="&#xb4;" horiz-adv-x="335" 
d="M149 545h-73l89 145h94z" />
    <glyph glyph-name="mu" unicode="&#xb5;" horiz-adv-x="541" 
d="M382 0l-1 64q-7 -12 -20.5 -24.5t-31 -23t-38.5 -17t-43 -6.5q-37 0 -60 12t-30 26l2 -217h-94v660h95v-268q0 -28 4.5 -53t15.5 -43t30.5 -28.5t50.5 -10.5q62 0 89.5 39.5t27.5 99.5v264h96v-474h-93z" />
    <glyph glyph-name="paragraph" unicode="&#xb6;" horiz-adv-x="601" 
d="M492 621v-807h-72v807h-91v-807h-73v463q-45 1 -82.5 14.5t-64.5 39.5t-42.5 64.5t-15.5 88.5q0 100 58 153t167 53h268v-69h-52z" />
    <glyph glyph-name="periodcentered" unicode="&#xb7;" horiz-adv-x="339" 
d="M235 289q0 -28 -18.5 -45.5t-47.5 -17.5t-47 17.5t-18 45.5t18 45t47 17t47.5 -17t18.5 -45z" />
    <glyph glyph-name="cedilla" unicode="&#xb8;" horiz-adv-x="350" 
d="M178 -146h-87l101 146h67z" />
    <glyph glyph-name="onesuperior" unicode="&#xb9;" horiz-adv-x="379" 
d="M189 288v376h-83v54h155v-430h-72z" />
    <glyph glyph-name="ordmasculine" unicode="&#xba;" horiz-adv-x="394" 
d="M353 333q0 -33 -12 -60.5t-33 -47.5t-49.5 -31t-61.5 -11t-61.5 11t-49.5 31t-33 47.5t-12 60.5t12 61t33 48t49.5 31t61.5 11t61.5 -11t49.5 -31t33 -48t12 -61zM281 336q0 45 -25 68t-59 23q-35 0 -60 -23t-25 -68t25 -69.5t60 -24.5q34 0 59 24.5t25 69.5z" />
    <glyph glyph-name="guillemotright" unicode="&#xbb;" horiz-adv-x="489" 
d="M286 40l-52 38l118 160l-119 160l53 38l148 -198zM119 40l-52 38l118 160l-119 160l53 38l149 -198z" />
    <glyph glyph-name="onequarter" unicode="&#xbc;" horiz-adv-x="890" 
d="M754 88v-88h-71v88h-226v44l230 305h67v-291h63v-58h-63zM202 -23l-50 30l427 699l50 -30zM151 290v346h-84v54h156v-400h-72zM683 347l-147 -201h147v201z" />
    <glyph glyph-name="onehalf" unicode="&#xbd;" horiz-adv-x="891" 
d="M537 0l-10 46l144 135q26 25 49 53.5t23 60.5q0 33 -22 52.5t-57 19.5q-34 0 -58.5 -20.5t-41.5 -47.5l-40 42q17 34 53 60.5t96 26.5q30 0 56 -9t44.5 -25.5t29.5 -38.5t11 -49t-8 -48.5t-21 -40t-28.5 -34l-30.5 -29.5l-99 -93h203v-61h-293zM198 -23l-50 30l427 699
l50 -30zM149 275v361h-84v54h156v-415h-72z" />
    <glyph glyph-name="threequarters" unicode="&#xbe;" horiz-adv-x="890" 
d="M754 88v-88h-71v88h-226v44l230 305h67v-291h63v-58h-63zM346 413q0 -30 -12.5 -53.5t-33.5 -40.5t-49 -26t-59 -9q-55 0 -94.5 23.5t-56.5 70.5l48 31q11 -32 37.5 -49t61.5 -17t61 19t26 52q0 35 -25.5 54t-61.5 20h-25v56h29q30 1 51.5 18t21.5 49q0 26 -20 43t-53 17
q-31 0 -55 -15t-38 -44l-40 34q16 36 50.5 59t85.5 23q29 0 54 -8t44.5 -23t30.5 -35.5t11 -46.5q0 -35 -19.5 -59.5t-50.5 -36.5v-2q36 -10 58.5 -38t22.5 -66zM246 -23l-50 30l427 699l50 -30zM683 347l-147 -201h147v201z" />
    <glyph glyph-name="questiondown" unicode="&#xbf;" horiz-adv-x="492" 
d="M332 422q0 -29 -18.5 -46t-47.5 -17t-48 17t-19 46t19 46t48 17t47.5 -17t18.5 -46zM434 -132q-7 -11 -20.5 -27t-36 -30.5t-55 -25t-76.5 -10.5t-79 13.5t-59.5 36t-37.5 52t-13 61.5q0 31 7 54.5t18 42t26 34.5t31 31q26 25 46.5 43t30.5 40q3 8 5 17t2 21l2 70h81
l2 -71q1 -30 -5 -51.5t-16 -38.5t-23 -30l-26 -25l-58 -54q-14 -13 -23 -31.5t-9 -41.5q0 -44 31 -68.5t81 -24.5t82.5 23t48.5 50z" />
    <glyph glyph-name="Agrave" unicode="&#xc0;" horiz-adv-x="650" 
d="M291 742l-110 145h94l89 -145h-73zM541 0l-71 180h-296l-71 -180h-102l281 692h85l282 -692h-108zM322 571l-121 -310h242z" />
    <glyph glyph-name="Aacute" unicode="&#xc1;" horiz-adv-x="650" 
d="M359 742h-73l89 145h94zM541 0l-71 180h-296l-71 -180h-102l281 692h85l282 -692h-108zM322 571l-121 -310h242z" />
    <glyph glyph-name="Acircumflex" unicode="&#xc2;" horiz-adv-x="650" 
d="M386 742l-61 99l-61 -99h-70l92 145h78l92 -145h-70zM541 0l-71 180h-296l-71 -180h-102l281 692h85l282 -692h-108zM322 571l-121 -310h242z" />
    <glyph glyph-name="Atilde" unicode="&#xc3;" horiz-adv-x="650" 
d="M481 853q-3 -42 -30.5 -67t-61.5 -25q-28 0 -45 8.5t-26 13.5l-25 14.5t-34 9.5q-17 0 -28.5 -12.5t-14.5 -29.5l-47 10q2 42 30 67t62 25q28 0 45 -8.5t26 -13.5l25 -14.5t34 -9.5q17 0 28.5 12.5t14.5 29.5zM541 0l-71 180h-296l-71 -180h-102l281 692h85l282 -692
h-108zM322 571l-121 -310h242z" />
    <glyph glyph-name="Adieresis" unicode="&#xc4;" horiz-adv-x="650" 
d="M454 811q0 -25 -15.5 -39.5t-37.5 -14.5t-37 14.5t-15 39.5q0 24 15 38.5t37 14.5t37.5 -14.5t15.5 -38.5zM301 811q0 -25 -15.5 -39.5t-36.5 -14.5q-22 0 -37.5 14.5t-15.5 39.5q0 24 15.5 38.5t37.5 14.5q21 0 36.5 -14.5t15.5 -38.5zM541 0l-71 180h-296l-71 -180
h-102l281 692h85l282 -692h-108zM322 571l-121 -310h242z" />
    <glyph glyph-name="Aring" unicode="&#xc5;" horiz-adv-x="650" 
d="M425 822q0 -42 -29 -68.5t-71 -26.5t-71 26.5t-29 68.5t29 68.5t71 26.5t71 -26.5t29 -68.5zM541 0l-71 180h-296l-71 -180h-102l281 692h85l282 -692h-108zM377 822q0 23 -14.5 37.5t-37.5 14.5t-37.5 -14.5t-14.5 -37.5t14.5 -38t37.5 -15t37.5 15t14.5 38zM322 571
l-121 -310h242z" />
    <glyph glyph-name="AE" unicode="&#xc6;" horiz-adv-x="879" 
d="M452 0v182h-263l-110 -182h-109l434 690h424v-81h-279v-202h262v-81h-262v-244h287v-82h-384zM452 611h-2l-212 -349h214v349z" />
    <glyph glyph-name="Ccedilla" unicode="&#xc7;" horiz-adv-x="665" 
d="M642 90q-16 -18 -38.5 -35.5t-51.5 -32t-64.5 -23.5t-77.5 -10l-64 -139h-98l83 143q-55 7 -108 32.5t-94 69.5t-66.5 106t-25.5 143t27.5 146.5t75 112t112 72t138.5 25.5q48 0 87 -9t69.5 -22.5t52.5 -29.5t36 -30l-41 -78q-10 13 -29 27.5t-45 27t-58 21t-68 8.5
q-56 0 -103 -19t-81.5 -54.5t-53.5 -85t-19 -110.5t19.5 -110.5t53.5 -84.5t81.5 -54.5t102.5 -19.5q69 0 120.5 23.5t85.5 60.5z" />
    <glyph glyph-name="Egrave" unicode="&#xc8;" horiz-adv-x="531" 
d="M261 742l-110 145h94l88 -145h-72zM76 0v690h404v-81h-307v-206h290v-81h-290v-240h315v-82h-412z" />
    <glyph glyph-name="Eacute" unicode="&#xc9;" horiz-adv-x="531" 
d="M283 742h-72l89 145h93zM76 0v690h404v-81h-307v-206h290v-81h-290v-240h315v-82h-412z" />
    <glyph glyph-name="Ecircumflex" unicode="&#xca;" horiz-adv-x="531" 
d="M339 742l-61 99l-61 -99h-70l92 145h78l92 -145h-70zM76 0v690h404v-81h-307v-206h290v-81h-290v-240h315v-82h-412z" />
    <glyph glyph-name="Edieresis" unicode="&#xcb;" horiz-adv-x="531" 
d="M407 811q0 -25 -15 -39.5t-37 -14.5t-37.5 14.5t-15.5 39.5q0 24 15.5 38.5t37.5 14.5t37 -14.5t15 -38.5zM254 811q0 -25 -15 -39.5t-37 -14.5t-37.5 14.5t-15.5 39.5q0 24 15.5 38.5t37.5 14.5t37 -14.5t15 -38.5zM76 0v690h404v-81h-307v-206h290v-81h-290v-240h315
v-82h-412z" />
    <glyph glyph-name="Igrave" unicode="&#xcc;" horiz-adv-x="249" 
d="M100 742l-110 145h94l89 -145h-73zM76 0v690h97v-690h-97z" />
    <glyph glyph-name="Iacute" unicode="&#xcd;" horiz-adv-x="249" 
d="M149 742h-72l89 145h93zM76 0v690h97v-690h-97z" />
    <glyph glyph-name="Icircumflex" unicode="&#xce;" horiz-adv-x="249" 
d="M185 742l-60 99l-61 -99h-70l91 145h79l91 -145h-70zM76 0v690h97v-690h-97z" />
    <glyph glyph-name="Idieresis" unicode="&#xcf;" horiz-adv-x="249" 
d="M254 814q0 -24 -15.5 -38.5t-37.5 -14.5q-21 0 -36.5 14.5t-15.5 38.5q0 25 15.5 39.5t36.5 14.5q22 0 37.5 -14.5t15.5 -39.5zM101 814q0 -24 -15.5 -38.5t-37.5 -14.5t-37 14.5t-15 38.5q0 25 15 39.5t37 14.5t37.5 -14.5t15.5 -39.5zM76 0v690h97v-690h-97z" />
    <glyph glyph-name="Eth" unicode="&#xd0;" horiz-adv-x="686" 
d="M649 345q0 -80 -28 -144t-77 -108.5t-115.5 -68.5t-144.5 -24h-208v325h-65v72h65v293h208q78 0 144.5 -24t115.5 -68.5t77 -108.5t28 -144zM550 345q0 60 -19.5 108t-55 82.5t-84 53t-107.5 18.5h-111v-210h175v-71h-175v-242h111q59 0 107.5 18.5t84 52.5t55 82
t19.5 108z" />
    <glyph glyph-name="Ntilde" unicode="&#xd1;" horiz-adv-x="740" 
d="M526 853q-3 -42 -30.5 -67t-61.5 -25q-28 0 -45 8.5t-26 13.5l-25 14.5t-34 9.5t-29 -12.5t-15 -29.5l-46 10q2 42 29.5 67t61.5 25q29 0 46 -8.5t26 -13.5l25 -14.5t33 -9.5q18 0 29.5 12.5t14.5 29.5zM568 0l-398 550q1 -27 1 -58q0 -28 0.5 -59.5t0.5 -65.5v-367h-96
v690h102l391 -542v54q-1 26 -1 57v65v366h95v-690h-95z" />
    <glyph glyph-name="Ograve" unicode="&#xd2;" horiz-adv-x="786" 
d="M357 742l-110 145h94l88 -145h-72zM749 344q0 -83 -28.5 -149t-77 -112t-113 -70.5t-137.5 -24.5t-137.5 24.5t-113 70.5t-77 112t-28.5 149t28.5 149t77 112t113 70.5t137.5 24.5t137.5 -24.5t113 -70.5t77 -112t28.5 -149zM650 346q0 63 -20.5 113.5t-55.5 85t-81.5 53
t-99.5 18.5t-99.5 -18.5t-81.5 -53t-55.5 -85t-20.5 -113.5t20.5 -113t55.5 -85t82 -53.5t99 -18.5q53 0 99.5 18.5t81.5 53.5t55.5 85t20.5 113z" />
    <glyph glyph-name="Oacute" unicode="&#xd3;" horiz-adv-x="786" 
d="M429 742h-72l89 145h93zM749 344q0 -83 -28.5 -149t-77 -112t-113 -70.5t-137.5 -24.5t-137.5 24.5t-113 70.5t-77 112t-28.5 149t28.5 149t77 112t113 70.5t137.5 24.5t137.5 -24.5t113 -70.5t77 -112t28.5 -149zM650 346q0 63 -20.5 113.5t-55.5 85t-81.5 53
t-99.5 18.5t-99.5 -18.5t-81.5 -53t-55.5 -85t-20.5 -113.5t20.5 -113t55.5 -85t82 -53.5t99 -18.5q53 0 99.5 18.5t81.5 53.5t55.5 85t20.5 113z" />
    <glyph glyph-name="Ocircumflex" unicode="&#xd4;" horiz-adv-x="786" 
d="M454 742l-61 99l-61 -99h-70l92 145h78l92 -145h-70zM749 344q0 -83 -28.5 -149t-77 -112t-113 -70.5t-137.5 -24.5t-137.5 24.5t-113 70.5t-77 112t-28.5 149t28.5 149t77 112t113 70.5t137.5 24.5t137.5 -24.5t113 -70.5t77 -112t28.5 -149zM650 346q0 63 -20.5 113.5
t-55.5 85t-81.5 53t-99.5 18.5t-99.5 -18.5t-81.5 -53t-55.5 -85t-20.5 -113.5t20.5 -113t55.5 -85t82 -53.5t99 -18.5q53 0 99.5 18.5t81.5 53.5t55.5 85t20.5 113z" />
    <glyph glyph-name="Otilde" unicode="&#xd5;" horiz-adv-x="786" 
d="M549 853q-2 -42 -30 -67t-62 -25q-28 0 -45 8.5t-26 13.5l-25 14.5t-34 9.5q-17 0 -28.5 -12.5t-14.5 -29.5l-47 10q3 42 30.5 67t61.5 25q28 0 45 -8.5t26 -13.5l25 -14.5t34 -9.5q17 0 28.5 12.5t14.5 29.5zM749 344q0 -83 -28.5 -149t-77 -112t-113 -70.5
t-137.5 -24.5t-137.5 24.5t-113 70.5t-77 112t-28.5 149t28.5 149t77 112t113 70.5t137.5 24.5t137.5 -24.5t113 -70.5t77 -112t28.5 -149zM650 346q0 63 -20.5 113t-55.5 85t-81.5 53.5t-99.5 18.5t-99.5 -18.5t-81.5 -53t-55.5 -85t-20.5 -113.5t20.5 -113t55.5 -85
t82 -53.5t99 -18.5q53 0 99.5 18.5t81.5 53.5t55.5 85t20.5 113z" />
    <glyph glyph-name="Odieresis" unicode="&#xd6;" horiz-adv-x="786" 
d="M522 811q0 -25 -15.5 -39.5t-36.5 -14.5q-22 0 -37.5 14.5t-15.5 39.5q0 24 15.5 38.5t37.5 14.5q21 0 36.5 -14.5t15.5 -38.5zM369 811q0 -25 -15.5 -39.5t-36.5 -14.5q-22 0 -37.5 14.5t-15.5 39.5q0 24 15.5 38.5t37.5 14.5q21 0 36.5 -14.5t15.5 -38.5zM749 344
q0 -83 -28.5 -149t-77 -112t-113 -70.5t-137.5 -24.5t-137.5 24.5t-113 70.5t-77 112t-28.5 149t28.5 149t77 112t113 70.5t137.5 24.5t137.5 -24.5t113 -70.5t77 -112t28.5 -149zM650 346q0 63 -20.5 113t-55.5 85t-81.5 53.5t-99.5 18.5t-99.5 -18.5t-81.5 -53t-55.5 -85
t-20.5 -113.5t20.5 -113t55.5 -85t82 -53.5t99 -18.5q53 0 99.5 18.5t81.5 53.5t55.5 85t20.5 113z" />
    <glyph glyph-name="multiply" unicode="&#xd7;" 
d="M535 90l-201 201l-202 -201l-51 54l200 200l-200 200l51 54l202 -201l201 201l52 -54l-200 -200l200 -200z" />
    <glyph glyph-name="Oslash" unicode="&#xd8;" horiz-adv-x="786" 
d="M749 344q0 -83 -28 -149t-76.5 -112t-113.5 -70.5t-138 -24.5q-65 0 -123 19.5t-105 56.5l-78 -80l-48 48l77 79q-37 45 -58 103t-21 130q0 83 28.5 149t77 112t113 70.5t137.5 24.5q65 0 123 -19t106 -56l79 81l48 -48l-79 -81q38 -45 58.5 -103t20.5 -130zM558 560
q-34 27 -76 41.5t-89 14.5q-53 0 -99.5 -18.5t-81.5 -53t-55.5 -85t-20.5 -113.5q0 -50 13 -91.5t36 -73.5zM650 346q0 49 -12 90t-35 74l-372 -379q34 -26 75 -40.5t87 -14.5q53 0 99.5 18.5t81.5 53.5t55.5 85t20.5 113z" />
    <glyph glyph-name="Ugrave" unicode="&#xd9;" 
d="M316 742l-110 145h94l89 -145h-73zM596 282q0 -65 -10 -116.5t-45 -93.5q-35 -41 -86.5 -62.5t-120.5 -21.5t-120.5 21.5t-86.5 62.5q-36 42 -46 93.5t-10 116.5v408h98v-399q0 -44 4.5 -84t27.5 -71q21 -29 54.5 -45t78.5 -16t78 16t55 45q23 31 27.5 71.5t4.5 83.5v399
h97v-408z" />
    <glyph glyph-name="Uacute" unicode="&#xda;" 
d="M351 742h-72l88 145h94zM596 282q0 -65 -10 -116.5t-45 -93.5q-35 -41 -86.5 -62.5t-120.5 -21.5t-120.5 21.5t-86.5 62.5q-36 42 -46 93.5t-10 116.5v408h98v-399q0 -44 4.5 -84t27.5 -71q21 -29 54.5 -45t78.5 -16t78 16t55 45q23 31 27.5 71.5t4.5 83.5v399h97v-408z
" />
    <glyph glyph-name="Ucircumflex" unicode="&#xdb;" 
d="M394 742l-60 99l-61 -99h-70l91 145h79l91 -145h-70zM596 282q0 -65 -10 -116.5t-45 -93.5q-35 -41 -86.5 -62.5t-120.5 -21.5t-120.5 21.5t-86.5 62.5q-36 42 -46 93.5t-10 116.5v408h98v-399q0 -44 4.5 -84t27.5 -71q21 -29 54.5 -45t78.5 -16t78 16t55 45
q23 31 27.5 71.5t4.5 83.5v399h97v-408z" />
    <glyph glyph-name="Udieresis" unicode="&#xdc;" 
d="M463 811q0 -25 -15.5 -39.5t-37.5 -14.5q-21 0 -36.5 14.5t-15.5 39.5q0 24 15.5 38.5t36.5 14.5q22 0 37.5 -14.5t15.5 -38.5zM310 811q0 -25 -15.5 -39.5t-37.5 -14.5t-37 14.5t-15 39.5q0 24 15 38.5t37 14.5t37.5 -14.5t15.5 -38.5zM596 282q0 -65 -10 -116.5
t-45 -93.5q-35 -41 -86.5 -62.5t-120.5 -21.5t-120.5 21.5t-86.5 62.5q-36 42 -46 93.5t-10 116.5v408h98v-399q0 -44 4.5 -84t27.5 -71q21 -29 54.5 -45t78.5 -16t78 16t55 45q23 31 27.5 71.5t4.5 83.5v399h97v-408z" />
    <glyph glyph-name="Yacute" unicode="&#xdd;" horiz-adv-x="575" 
d="M304 742h-72l89 145h93zM336 289v-289h-97v289l-240 401h109l179 -317l180 317h109z" />
    <glyph glyph-name="Thorn" unicode="&#xde;" horiz-adv-x="527" 
d="M495 363q0 -52 -19 -89.5t-51 -61.5t-74.5 -35t-89.5 -11h-88v-166h-97v690h97v-130h88q47 0 89.5 -11t74.5 -35t51 -61t19 -90zM395 363q0 32 -11.5 54.5t-31.5 36.5t-45.5 20.5t-54.5 6.5h-79v-237h79q29 0 55 6.5t45.5 21t31 37t11.5 54.5z" />
    <glyph glyph-name="germandbls" unicode="&#xdf;" horiz-adv-x="559" 
d="M525 207q0 -49 -17.5 -88.5t-49 -67.5t-76.5 -43t-101 -15q-11 0 -21 1t-18 2q-10 1 -18 3l6 75q6 -1 13 -2q7 -2 15 -2.5t19 -0.5q27 0 54.5 8t49 25t35 44t13.5 65q0 75 -46 111.5t-117 36.5h-30v73h28q53 0 80 28t27 76q0 24 -9 41.5t-24 29.5t-33.5 17.5t-37.5 5.5
q-34 0 -52 -11.5t-29 -26.5q-10 -16 -15 -37.5t-5 -63.5v-491h-95v447q0 42 2.5 78t12.5 62q23 62 75 87.5t114 25.5q43 0 77 -12t58 -33t36.5 -49t12.5 -60q0 -31 -9.5 -56t-23.5 -42.5t-30 -27.5t-30 -12v-2q30 -4 58.5 -19.5t51 -41t36 -60.5t13.5 -78z" />
    <glyph glyph-name="agrave" unicode="&#xe0;" horiz-adv-x="492" 
d="M217 545l-110 145h94l88 -145h-72zM342 0l-1 60l-19.5 -19.5t-30.5 -23.5t-43 -19.5t-58 -8.5t-62.5 10t-52 29t-36 46.5t-13.5 61.5q0 70 52 105.5t134 39.5l127 5v19q0 54 -33 81t-85 27q-26 0 -49.5 -5t-42 -11.5t-32 -13.5t-19.5 -11l-29 64q26 15 72 31.5t106 16.5
q208 0 208 -208v-276h-93zM229 221q-58 -3 -83 -25.5t-25 -56.5t25 -58t73 -24q23 0 42.5 7t34.5 17.5t26 22.5t18 22v102z" />
    <glyph glyph-name="aacute" unicode="&#xe1;" horiz-adv-x="492" 
d="M247 545h-72l89 145h93zM342 0l-1 60l-19.5 -19.5t-30.5 -23.5t-43 -19.5t-58 -8.5t-62.5 10t-52 29t-36 46.5t-13.5 61.5q0 70 52 105.5t134 39.5l127 5v19q0 54 -33 81t-85 27q-26 0 -49.5 -5t-42 -11.5t-32 -13.5t-19.5 -11l-29 64q26 15 72 31.5t106 16.5
q208 0 208 -208v-276h-93zM229 221q-58 -3 -83 -25.5t-25 -56.5t25 -58t73 -24q23 0 42.5 7t34.5 17.5t26 22.5t18 22v102z" />
    <glyph glyph-name="acircumflex" unicode="&#xe2;" horiz-adv-x="492" 
d="M295 545l-61 100l-60 -100h-70l91 145h79l91 -145h-70zM342 0l-1 60l-19.5 -19.5t-30.5 -23.5t-43 -19.5t-58 -8.5t-62.5 10t-52 29t-36 46.5t-13.5 61.5q0 70 52 105.5t134 39.5l127 5v19q0 54 -33 81t-85 27q-26 0 -49.5 -5t-42 -11.5t-32 -13.5t-19.5 -11l-29 64
q26 15 72 31.5t106 16.5q208 0 208 -208v-276h-93zM229 221q-58 -3 -83 -25.5t-25 -56.5t25 -58t73 -24q23 0 42.5 7t34.5 17.5t26 22.5t18 22v102z" />
    <glyph glyph-name="atilde" unicode="&#xe3;" horiz-adv-x="492" 
d="M405 659q-3 -42 -30.5 -67t-61.5 -25q-28 0 -45 8.5t-26 13.5t-25 15t-34 10t-29 -13t-15 -30l-47 10q3 42 30.5 67.5t61.5 25.5q29 0 46 -9l26 -14q8 -5 24.5 -14.5t33.5 -9.5q18 0 29.5 12.5t14.5 29.5zM342 0l-1 60l-19.5 -19.5t-30.5 -23.5t-43 -19.5t-58 -8.5
t-62.5 10t-52 29t-36 46.5t-13.5 61.5q0 70 52 105.5t134 39.5l127 5v19q0 54 -33 81t-85 27q-26 0 -49.5 -5t-42 -11.5t-32 -13.5t-19.5 -11l-29 64q26 15 72 31.5t106 16.5q208 0 208 -208v-276h-93zM229 221q-58 -3 -83 -25.5t-25 -56.5t25 -58t73 -24q23 0 42.5 7
t34.5 17.5t26 22.5t18 22v102z" />
    <glyph glyph-name="adieresis" unicode="&#xe4;" horiz-adv-x="492" 
d="M362 617q0 -24 -15.5 -38.5t-37.5 -14.5q-21 0 -36.5 14.5t-15.5 38.5q0 25 15.5 39.5t36.5 14.5q22 0 37.5 -14.5t15.5 -39.5zM209 617q0 -24 -15 -38.5t-37 -14.5t-37.5 14.5t-15.5 38.5q0 25 15.5 39.5t37.5 14.5t37 -14.5t15 -39.5zM342 0l-1 60l-19.5 -19.5
t-30.5 -23.5t-43 -19.5t-58 -8.5t-62.5 10t-52 29t-36 46.5t-13.5 61.5q0 70 52 105.5t134 39.5l127 5v19q0 54 -33 81t-85 27q-26 0 -49.5 -5t-42 -11.5t-32 -13.5t-19.5 -11l-29 64q26 15 72 31.5t106 16.5q208 0 208 -208v-276h-93zM229 221q-58 -3 -83 -25.5t-25 -56.5
t25 -58t73 -24q23 0 42.5 7t34.5 17.5t26 22.5t18 22v102z" />
    <glyph glyph-name="aring" unicode="&#xe5;" horiz-adv-x="492" 
d="M333 637q0 -42 -28.5 -68.5t-70.5 -26.5t-71 26.5t-29 68.5t29 68.5t71 26.5t70.5 -26.5t28.5 -68.5zM342 0l-1 60l-19.5 -19.5t-30.5 -23.5t-43 -19.5t-58 -8.5t-62.5 10t-52 29t-36 46.5t-13.5 61.5q0 70 52 105.5t134 39.5l127 5v19q0 54 -33 81t-85 27
q-26 0 -49.5 -5t-42 -11.5t-32 -13.5t-19.5 -11l-29 64q26 15 72 31.5t106 16.5q208 0 208 -208v-276h-93zM285 637q0 22 -14 37t-37 15t-37.5 -15t-14.5 -37t14.5 -37.5t37.5 -15.5t37 15.5t14 37.5zM229 221q-58 -3 -83 -25.5t-25 -56.5t25 -58t73 -24q23 0 42.5 7
t34.5 17.5t26 22.5t18 22v102z" />
    <glyph glyph-name="ae" unicode="&#xe6;" horiz-adv-x="831" 
d="M802 257q0 -8 -0.5 -15.5t-0.5 -13.5q0 -7 -1 -13h-367q4 -70 45.5 -110.5t108.5 -40.5q33 0 60 7.5t47 17.5t33 18.5t17 11.5l40 -55q-3 -2 -16 -14t-38 -25.5t-63.5 -24.5t-91.5 -11q-48 0 -81.5 12t-56.5 28.5t-36 32.5l-19 23q-36 -43 -79.5 -69.5t-111.5 -26.5
q-34 0 -64.5 10t-52.5 29t-35 46.5t-13 61.5q0 71 52 106.5t136 38.5l125 5v20q0 54 -32.5 80.5t-85.5 26.5q-26 0 -49.5 -5t-42 -11.5t-32 -13.5t-19.5 -11l-29 64q26 15 72 31.5t106 16.5q51 0 84.5 -12t53.5 -31q10 -9 16.5 -17t10.5 -14q4 -7 7 -13q29 42 75.5 64.5
t103.5 22.5q50 0 91 -17t70.5 -47t46 -71.5t16.5 -91.5zM711 279q0 20 -7.5 43.5t-24 44t-42.5 34.5t-62 14t-62 -13t-43 -33.5t-25.5 -44.5t-9.5 -45h276zM354 137q-5 11 -10 35t-5 56l-110 -7q-60 -3 -84 -26.5t-24 -55.5q0 -34 25 -58t72 -24q24 0 45.5 7.5t39.5 19.5
t31 26t20 27z" />
    <glyph glyph-name="ccedilla" unicode="&#xe7;" horiz-adv-x="475" 
d="M464 61q-5 -4 -15.5 -14.5t-28.5 -21.5t-45 -20.5t-65 -13.5l-74 -136h-94l95 137q-42 6 -79 26t-64.5 51.5t-43.5 74t-16 93.5q0 57 20.5 103t54 78t77.5 49t91 17q48 0 82 -10t56 -22t33 -23l13 -13l-34 -70q-6 6 -17 16t-28.5 19t-41 16t-55.5 7q-31 0 -59 -11.5
t-49 -33t-33.5 -51.5t-12.5 -68q0 -37 11.5 -68.5t31.5 -53.5t49 -34.5t63 -12.5q35 0 61.5 9.5t45.5 20.5q21 13 37 30z" />
    <glyph glyph-name="egrave" unicode="&#xe8;" horiz-adv-x="529" 
d="M256 545l-110 145h94l89 -145h-73zM500 257q0 -7 -0.5 -14.5t-0.5 -13.5l-2 -14h-366q4 -71 45.5 -111t107.5 -40q33 0 60.5 7.5t47.5 17.5t32.5 18.5t16.5 11.5l40 -55q-2 -2 -15 -14t-38.5 -25.5t-64 -24.5t-91.5 -11t-96.5 17.5t-75 50t-49 78.5t-17.5 103
q0 56 19 101.5t52 77.5t77 49.5t93 17.5q50 0 91 -17t71 -47t46.5 -71.5t16.5 -91.5zM409 279q0 20 -8 43.5t-24.5 44t-42.5 34.5t-62 14t-61.5 -13t-43 -33.5t-26 -44.5t-9.5 -45h277z" />
    <glyph glyph-name="eacute" unicode="&#xe9;" horiz-adv-x="529" 
d="M291 545h-73l89 145h94zM500 257q0 -7 -0.5 -14.5t-0.5 -13.5l-2 -14h-366q4 -71 45.5 -111t107.5 -40q33 0 60.5 7.5t47.5 17.5t32.5 18.5t16.5 11.5l40 -55q-2 -2 -15 -14t-38.5 -25.5t-64 -24.5t-91.5 -11t-96.5 17.5t-75 50t-49 78.5t-17.5 103q0 56 19 101.5
t52 77.5t77 49.5t93 17.5q50 0 91 -17t71 -47t46.5 -71.5t16.5 -91.5zM409 279q0 20 -8 43.5t-24.5 44t-42.5 34.5t-62 14t-61.5 -13t-43 -33.5t-26 -44.5t-9.5 -45h277z" />
    <glyph glyph-name="ecircumflex" unicode="&#xea;" horiz-adv-x="529" 
d="M334 545l-60 100l-61 -100h-70l91 145h79l91 -145h-70zM500 257q0 -7 -0.5 -14.5t-0.5 -13.5l-2 -14h-366q4 -71 45.5 -111t107.5 -40q33 0 60.5 7.5t47.5 17.5t32.5 18.5t16.5 11.5l40 -55q-2 -2 -15 -14t-38.5 -25.5t-64 -24.5t-91.5 -11t-96.5 17.5t-75 50t-49 78.5
t-17.5 103q0 56 19 101.5t52 77.5t77 49.5t93 17.5q50 0 91 -17t71 -47t46.5 -71.5t16.5 -91.5zM409 279q0 20 -8 43.5t-24.5 44t-42.5 34.5t-62 14t-61.5 -13t-43 -33.5t-26 -44.5t-9.5 -45h277z" />
    <glyph glyph-name="edieresis" unicode="&#xeb;" horiz-adv-x="529" 
d="M404 617q0 -24 -15.5 -38.5t-37.5 -14.5q-21 0 -36.5 14.5t-15.5 38.5q0 25 15.5 39.5t36.5 14.5q22 0 37.5 -14.5t15.5 -39.5zM251 617q0 -24 -15 -38.5t-37 -14.5t-37.5 14.5t-15.5 38.5q0 25 15.5 39.5t37.5 14.5t37 -14.5t15 -39.5zM500 257q0 -7 -0.5 -14.5
t-0.5 -13.5l-2 -14h-366q4 -71 45.5 -111t107.5 -40q33 0 60.5 7.5t47.5 17.5t32.5 18.5t16.5 11.5l40 -55q-2 -2 -15 -14t-38.5 -25.5t-64 -24.5t-91.5 -11t-96.5 17.5t-75 50t-49 78.5t-17.5 103q0 56 19 101.5t52 77.5t77 49.5t93 17.5q50 0 91 -17t71 -47t46.5 -71.5
t16.5 -91.5zM409 279q0 20 -8 43.5t-24.5 44t-42.5 34.5t-62 14t-61.5 -13t-43 -33.5t-26 -44.5t-9.5 -45h277z" />
    <glyph glyph-name="igrave" unicode="&#xec;" horiz-adv-x="236" 
d="M93 545l-110 145h94l89 -145h-73zM70 0v475h96v-475h-96z" />
    <glyph glyph-name="iacute" unicode="&#xed;" horiz-adv-x="236" 
d="M142 545h-72l89 145h93zM70 0v475h96v-475h-96z" />
    <glyph glyph-name="icircumflex" unicode="&#xee;" horiz-adv-x="236" 
d="M179 545l-61 100l-61 -100h-70l92 145h78l92 -145h-70zM70 0v475h96v-475h-96z" />
    <glyph glyph-name="idieresis" unicode="&#xef;" horiz-adv-x="236" 
d="M247 617q0 -24 -15.5 -38.5t-37.5 -14.5t-37 14.5t-15 38.5q0 25 15 39.5t37 14.5t37.5 -14.5t15.5 -39.5zM94 617q0 -24 -15.5 -38.5t-36.5 -14.5q-22 0 -37.5 14.5t-15.5 38.5q0 25 15.5 39.5t37.5 14.5q21 0 36.5 -14.5t15.5 -39.5zM70 0v475h96v-475h-96z" />
    <glyph glyph-name="eth" unicode="&#xf0;" horiz-adv-x="571" 
d="M536 232q0 -52 -19.5 -97t-53.5 -77t-80 -50.5t-100 -18.5t-99.5 18.5t-78.5 50.5t-52 77t-19 97t19 96t51 75.5t75 49t92 17.5t81.5 -15t51.5 -32q-26 51 -60.5 92t-76.5 78l-116 -72l-28 45l101 63q-20 16 -47.5 35.5t-50.5 33.5l63 43q8 -4 21 -13l28 -19l30 -21
t26 -20l121 75l28 -46l-106 -66q44 -37 81 -82t63 -96t40.5 -106.5t14.5 -114.5zM439 234q0 35 -11.5 65t-31.5 52t-48.5 34.5t-62.5 12.5t-62.5 -12.5t-48.5 -34.5t-31.5 -52t-11.5 -65t11.5 -65t31.5 -51.5t48.5 -34t62.5 -12.5t62.5 12.5t48.5 34t31.5 51.5t11.5 65z" />
    <glyph glyph-name="ntilde" unicode="&#xf1;" horiz-adv-x="541" 
d="M426 659q-3 -42 -30.5 -67t-61.5 -25q-29 0 -46 8.5t-26 13.5l-24.5 15t-33.5 10q-18 0 -29.5 -13t-14.5 -30l-47 10q3 42 30.5 67.5t61.5 25.5q28 0 45 -9l26 -14l25 -14.5t34 -9.5t29 12.5t15 29.5zM383 0v265q0 30 -3.5 55.5t-14 44.5t-30 29.5t-51.5 10.5
q-33 0 -56.5 -13t-38 -35.5t-21 -53t-6.5 -64.5v-239h-96v475h96l-1 -75h3q19 35 56 59.5t89 24.5q51 0 83.5 -15.5t52 -43t27 -64.5t7.5 -80v-281h-96z" />
    <glyph glyph-name="ograve" unicode="&#xf2;" horiz-adv-x="571" 
d="M267 545l-110 145h94l88 -145h-72zM537 236q0 -55 -19.5 -101t-53 -78t-79.5 -50t-99 -18t-99 18t-80 50t-53.5 78t-19.5 101t19.5 100.5t53.5 78.5t80 51t99 18t99 -18t79.5 -51t53 -78.5t19.5 -100.5zM440 239q0 35 -10.5 65.5t-30.5 53t-48.5 35.5t-64.5 13t-64.5 -13
t-49 -35.5t-31 -53t-10.5 -65.5t10.5 -66t31 -53.5t49 -35.5t64.5 -13t64.5 13t48.5 35.5t30.5 53.5t10.5 66z" />
    <glyph glyph-name="oacute" unicode="&#xf3;" horiz-adv-x="571" 
d="M304 545h-72l89 145h93zM537 236q0 -55 -19.5 -101t-53 -78t-79.5 -50t-99 -18t-99 18t-80 50t-53.5 78t-19.5 101t19.5 100.5t53.5 78.5t80 51t99 18t99 -18t79.5 -51t53 -78.5t19.5 -100.5zM440 239q0 35 -10.5 65.5t-30.5 53t-48.5 35.5t-64.5 13t-64.5 -13t-49 -35.5
t-31 -53t-10.5 -65.5t10.5 -66t31 -53.5t49 -35.5t64.5 -13t64.5 13t48.5 35.5t30.5 53.5t10.5 66z" />
    <glyph glyph-name="ocircumflex" unicode="&#xf4;" horiz-adv-x="571" 
d="M346 545l-60 100l-61 -100h-70l91 145h79l91 -145h-70zM537 236q0 -55 -19.5 -101t-53 -78t-79.5 -50t-99 -18t-99 18t-80 50t-53.5 78t-19.5 101t19.5 100.5t53.5 78.5t80 51t99 18t99 -18t79.5 -51t53 -78.5t19.5 -100.5zM440 239q0 35 -10.5 65.5t-30.5 53t-48.5 35.5
t-64.5 13t-64.5 -13t-49 -35.5t-31 -53t-10.5 -65.5t10.5 -66t31 -53.5t49 -35.5t64.5 -13t64.5 13t48.5 35.5t30.5 53.5t10.5 66z" />
    <glyph glyph-name="otilde" unicode="&#xf5;" horiz-adv-x="571" 
d="M442 659q-3 -42 -30.5 -67t-61.5 -25q-29 0 -45.5 8.5l-25.5 13.5t-25 15t-34 10t-29 -13t-15 -30l-47 10q3 42 30.5 67.5t61.5 25.5q29 0 46 -9t25 -14l25 -14.5t34 -9.5t29.5 12.5t14.5 29.5zM537 236q0 -55 -19.5 -101t-53 -78t-79.5 -50t-99 -18t-99 18t-80 50
t-53.5 78t-19.5 101t19.5 100.5t53.5 78.5t80 51t99 18t99 -18t79.5 -51t53 -78.5t19.5 -100.5zM440 239q0 35 -10.5 65.5t-30.5 53t-48.5 35.5t-64.5 13t-64.5 -13t-49 -35.5t-31 -53t-10.5 -65.5t10.5 -66t31 -53.5t49 -35.5t64.5 -13t64.5 13t48.5 35.5t30.5 53.5
t10.5 66z" />
    <glyph glyph-name="odieresis" unicode="&#xf6;" horiz-adv-x="571" 
d="M414 617q0 -24 -15 -38.5t-37 -14.5t-37.5 14.5t-15.5 38.5q0 25 15.5 39.5t37.5 14.5t37 -14.5t15 -39.5zM262 617q0 -24 -15.5 -38.5t-37.5 -14.5q-21 0 -36.5 14.5t-15.5 38.5q0 25 15.5 39.5t36.5 14.5q22 0 37.5 -14.5t15.5 -39.5zM537 236q0 -55 -19.5 -101
t-53 -78t-79.5 -50t-99 -18t-99 18t-80 50t-53.5 78t-19.5 101t19.5 100.5t53.5 78.5t80 51t99 18t99 -18t79.5 -51t53 -78.5t19.5 -100.5zM440 239q0 35 -10.5 65.5t-30.5 53t-48.5 35.5t-64.5 13t-64.5 -13t-49 -35.5t-31 -53t-10.5 -65.5t10.5 -66t31 -53.5t49 -35.5
t64.5 -13t64.5 13t48.5 35.5t30.5 53.5t10.5 66z" />
    <glyph glyph-name="divide" unicode="&#xf7;" 
d="M395 510q0 -26 -17.5 -44t-43.5 -18t-44 18t-18 44q0 25 18 43t44 18t43.5 -18t17.5 -43zM72 308v74h523v-74h-523zM395 180q0 -26 -17.5 -43.5t-43.5 -17.5t-44 17.5t-18 43.5t18 44t44 18t43.5 -18t17.5 -44z" />
    <glyph glyph-name="oslash" unicode="&#xf8;" horiz-adv-x="571" 
d="M485 393q25 -31 38.5 -70.5t13.5 -86.5q0 -55 -19 -101t-53 -78t-80 -50t-99 -18q-46 0 -86 13t-72 37l-59 -58l-42 41l58 59q-24 31 -37.5 70t-13.5 85q0 55 19.5 100.5t53.5 78.5t80 51t99 18q48 0 86 -13t70 -36l59 59l43 -42zM381 375q-39 31 -95 31q-36 0 -64.5 -13
t-49 -35.5t-31 -53t-10.5 -65.5q0 -50 22 -91zM440 239q0 50 -21 89l-228 -226q39 -31 95 -31q36 0 64.5 13t48.5 35.5t30.5 53.5t10.5 66z" />
    <glyph glyph-name="ugrave" unicode="&#xf9;" horiz-adv-x="536" 
d="M242 545l-110 145h94l88 -145h-72zM377 0l-1 68q-20 -35 -58 -57t-89 -22q-49 0 -81.5 15t-51.5 42t-26.5 64t-7.5 81v285h95v-281q0 -24 3.5 -47t14 -40.5t30 -28t51.5 -10.5t54 12.5t36.5 33.5t21 48.5t6.5 57.5v255h96v-476h-93z" />
    <glyph glyph-name="uacute" unicode="&#xfa;" horiz-adv-x="536" 
d="M289 545h-73l89 145h94zM377 0l-1 68q-20 -35 -58 -57t-89 -22q-49 0 -81.5 15t-51.5 42t-26.5 64t-7.5 81v285h95v-281q0 -24 3.5 -47t14 -40.5t30 -28t51.5 -10.5t54 12.5t36.5 33.5t21 48.5t6.5 57.5v255h96v-476h-93z" />
    <glyph glyph-name="ucircumflex" unicode="&#xfb;" horiz-adv-x="536" 
d="M327 545l-61 100l-61 -100h-70l92 145h78l92 -145h-70zM377 0l-1 68q-20 -35 -58 -57t-89 -22q-49 0 -81.5 15t-51.5 42t-26.5 64t-7.5 81v285h95v-281q0 -24 3.5 -47t14 -40.5t30 -28t51.5 -10.5t54 12.5t36.5 33.5t21 48.5t6.5 57.5v255h96v-476h-93z" />
    <glyph glyph-name="udieresis" unicode="&#xfc;" horiz-adv-x="536" 
d="M395 617q0 -24 -15.5 -38.5t-37.5 -14.5q-21 0 -36.5 14.5t-15.5 38.5q0 25 15.5 39.5t36.5 14.5q22 0 37.5 -14.5t15.5 -39.5zM242 617q0 -24 -15 -38.5t-37 -14.5t-37.5 14.5t-15.5 38.5q0 25 15.5 39.5t37.5 14.5t37 -14.5t15 -39.5zM377 0l-1 68q-20 -35 -58 -57
t-89 -22q-49 0 -81.5 15t-51.5 42t-26.5 64t-7.5 81v285h95v-281q0 -24 3.5 -47t14 -40.5t30 -28t51.5 -10.5t54 12.5t36.5 33.5t21 48.5t6.5 57.5v255h96v-476h-93z" />
    <glyph glyph-name="yacute" unicode="&#xfd;" horiz-adv-x="479" 
d="M260 545h-73l89 145h94zM252 -83q-25 -62 -55 -86t-70 -24q-20 0 -36.5 2.5t-28.5 5.5q-14 4 -25 9l19 78l16 -6q8 -2 16.5 -3.5t17.5 -1.5q29 0 40.5 15t21.5 41l23 63l-190 466l100 -1l141 -369l140 370l99 -1z" />
    <glyph glyph-name="thorn" unicode="&#xfe;" horiz-adv-x="597" 
d="M563 238q0 -53 -16.5 -98.5t-46.5 -79t-72.5 -52.5t-95.5 -19q-56 0 -97 22.5t-67 62.5h-2v-260h-95v876h95v-289h2q26 37 67.5 60t98.5 23q52 0 94.5 -18.5t72.5 -51.5t46 -78t16 -98zM465 239q0 36 -10 66.5t-29.5 53t-47.5 35t-64 12.5t-64 -12.5t-47.5 -35t-30 -53
t-10.5 -66.5t10.5 -66.5t30 -53t47.5 -35.5t64 -13t64 13t47.5 35.5t29.5 53t10 66.5z" />
    <glyph glyph-name="ydieresis" unicode="&#xff;" horiz-adv-x="479" 
d="M371 621q0 -24 -15.5 -39t-37.5 -15t-37 15t-15 39q0 25 15 39.5t37 14.5t37.5 -14.5t15.5 -39.5zM218 621q0 -24 -15.5 -39t-36.5 -15q-22 0 -37.5 15t-15.5 39q0 25 15.5 39.5t37.5 14.5q21 0 36.5 -14.5t15.5 -39.5zM252 -83q-25 -62 -55 -86t-70 -24q-20 0 -36.5 2.5
t-28.5 5.5q-14 4 -25 9l19 78l16 -6q8 -2 16.5 -3.5t17.5 -1.5q29 0 40.5 15t21.5 41l23 63l-190 466l100 -1l141 -369l140 370l99 -1z" />
    <glyph glyph-name="Amacron" unicode="&#x100;" horiz-adv-x="650" 
d="M541 0l-71 180h-296l-71 -180h-102l281 692h85l282 -692h-108zM322 571l-121 -310h242zM193 806v55h259v-55h-259z" />
    <glyph glyph-name="amacron" unicode="&#x101;" horiz-adv-x="492" 
d="M342 0l-1 60l-19.5 -19.5t-30.5 -23.5t-43 -19.5t-58 -8.5t-62.5 10t-52 29t-36 46.5t-13.5 61.5q0 70 52 105.5t134 39.5l127 5v19q0 54 -33 81t-85 27q-26 0 -49.5 -5t-42 -11.5t-32 -13.5t-19.5 -11l-29 64q26 15 72 31.5t106 16.5q208 0 208 -208v-276h-93zM229 221
q-58 -3 -83 -25.5t-25 -56.5t25 -58t73 -24q23 0 42.5 7t34.5 17.5t26 22.5t18 22v102zM109 592v55h259v-55h-259z" />
    <glyph glyph-name="Abreve" unicode="&#x102;" horiz-adv-x="650" 
d="M541 0l-71 180h-296l-71 -180h-102l281 692h85l282 -692h-108zM322 571l-121 -310h242zM471 893q-8 -62 -47.5 -92.5t-101.5 -30.5q-61 0 -100.5 30.5t-47.5 92.5h48q9 -35 36.5 -50t63.5 -15q37 0 64.5 15t35.5 50h49z" />
    <glyph glyph-name="abreve" unicode="&#x103;" horiz-adv-x="492" 
d="M342 0l-1 60l-19.5 -19.5t-30.5 -23.5t-43 -19.5t-58 -8.5t-62.5 10t-52 29t-36 46.5t-13.5 61.5q0 70 52 105.5t134 39.5l127 5v19q0 54 -33 81t-85 27q-26 0 -49.5 -5t-42 -11.5t-32 -13.5t-19.5 -11l-29 64q26 15 72 31.5t106 16.5q208 0 208 -208v-276h-93zM229 221
q-58 -3 -83 -25.5t-25 -56.5t25 -58t73 -24q23 0 42.5 7t34.5 17.5t26 22.5t18 22v102zM384 679q-8 -62 -47.5 -92.5t-101.5 -30.5q-61 0 -100.5 30.5t-47.5 92.5h48q9 -35 36.5 -50t63.5 -15q37 0 64.5 15t35.5 50h49z" />
    <glyph glyph-name="Aogonek" unicode="&#x104;" horiz-adv-x="650" 
d="M671 -165q-44 -43 -104 -43q-44 0 -73.5 23.5t-29.5 66.5q0 21 7.5 38.5t18.5 32.5t25 26.5l26 20.5l-71 180h-296l-71 -180h-102l281 692h85l282 -692q-35 -7 -58.5 -19t-37.5 -26.5t-19.5 -30t-5.5 -28.5q0 -28 18 -40t41 -12q22 0 41.5 8.5t27.5 13.5zM322 571
l-121 -310h242z" />
    <glyph glyph-name="aogonek" unicode="&#x105;" horiz-adv-x="492" 
d="M473 -165q-44 -43 -104 -43q-44 0 -73.5 23.5t-29.5 66.5q0 20 7 37.5t18.5 32.5t25 27t25.5 21l-1 60l-19.5 -19.5t-30.5 -23.5t-43 -19.5t-58 -8.5t-62.5 10t-52 29t-36 46.5t-13.5 61.5q0 70 52 105.5t134 39.5l127 5v19q0 54 -33 81t-85 27q-26 0 -49.5 -5t-42 -11.5
t-32 -13.5t-19.5 -11l-29 64q26 15 72 31.5t106 16.5q208 0 208 -208v-276q-25 -7 -44.5 -19t-33 -26.5t-20.5 -30t-7 -28.5q0 -28 18 -40t41 -12q22 0 41.5 8.5t27.5 13.5zM229 221q-58 -3 -83 -25.5t-25 -56.5t25 -58t73 -24q23 0 42.5 7t34.5 17.5t26 22.5t18 22v102z
" />
    <glyph glyph-name="Cacute" unicode="&#x106;" horiz-adv-x="665" 
d="M642 90q-16 -18 -39 -36t-54 -33t-70.5 -24t-88.5 -9q-75 0 -140 25.5t-112 72t-74 112t-27 146.5t27.5 146.5t75 112t112 72t138.5 25.5q48 0 87 -9t69.5 -22.5t52.5 -29.5t36 -30l-41 -78q-10 13 -29 27.5t-45 27t-58 21t-68 8.5q-56 0 -103 -19t-81.5 -54.5t-53.5 -85
t-19 -110.5t19.5 -110.5t53.5 -84.5t81.5 -54.5t102.5 -19.5q69 0 120.5 23.5t85.5 60.5zM380 759h-73l89 145h94z" />
    <glyph glyph-name="cacute" unicode="&#x107;" horiz-adv-x="475" 
d="M464 61l-17.5 -17t-35 -24t-56 -21.5t-81.5 -9.5t-91.5 17.5t-76.5 49.5t-52.5 78t-19.5 103t20.5 103t54 78t77.5 49t91 17q48 0 82 -10t56 -22t33 -23l13 -13l-34 -70q-6 6 -17 16t-28.5 19t-41 16t-55.5 7q-31 0 -59 -11.5t-49 -33t-33.5 -51.5t-12.5 -68
q0 -37 11.5 -68.5t31.5 -53.5t49 -34.5t63 -12.5q35 0 61.5 9.5t45.5 20.5q21 13 37 30zM260 545h-73l89 145h94z" />
    <glyph glyph-name="Ccircumflex" unicode="&#x108;" horiz-adv-x="665" 
d="M642 90q-16 -18 -39 -36t-54 -33t-70.5 -24t-88.5 -9q-75 0 -140 25.5t-112 72t-74 112t-27 146.5t27.5 146.5t75 112t112 72t138.5 25.5q48 0 87 -9t69.5 -22.5t52.5 -29.5t36 -30l-41 -78q-10 13 -29 27.5t-45 27t-58 21t-68 8.5q-56 0 -103 -19t-81.5 -54.5t-53.5 -85
t-19 -110.5t19.5 -110.5t53.5 -84.5t81.5 -54.5t102.5 -19.5q69 0 120.5 23.5t85.5 60.5zM429 759l-61 100l-60 -100h-70l91 145h79l91 -145h-70z" />
    <glyph glyph-name="ccircumflex" unicode="&#x109;" horiz-adv-x="475" 
d="M464 61l-17.5 -17t-35 -24t-56 -21.5t-81.5 -9.5t-91.5 17.5t-76.5 49.5t-52.5 78t-19.5 103t20.5 103t54 78t77.5 49t91 17q48 0 82 -10t56 -22t33 -23l13 -13l-34 -70q-6 6 -17 16t-28.5 19t-41 16t-55.5 7q-31 0 -59 -11.5t-49 -33t-33.5 -51.5t-12.5 -68
q0 -37 11.5 -68.5t31.5 -53.5t49 -34.5t63 -12.5q35 0 61.5 9.5t45.5 20.5q21 13 37 30zM327 545l-61 100l-60 -100h-70l91 145h79l91 -145h-70z" />
    <glyph glyph-name="Cdotaccent" unicode="&#x10a;" horiz-adv-x="665" 
d="M642 90q-16 -18 -39 -36t-54 -33t-70.5 -24t-88.5 -9q-75 0 -140 25.5t-112 72t-74 112t-27 146.5t27.5 146.5t75 112t112 72t138.5 25.5q48 0 87 -9t69.5 -22.5t52.5 -29.5t36 -30l-41 -78q-10 13 -29 27.5t-45 27t-58 21t-68 8.5q-56 0 -103 -19t-81.5 -54.5t-53.5 -85
t-19 -110.5t19.5 -110.5t53.5 -84.5t81.5 -54.5t102.5 -19.5q69 0 120.5 23.5t85.5 60.5zM414 832q0 -23 -15.5 -38t-38.5 -15t-38 15t-15 38t15 38t38 15t38.5 -15t15.5 -38z" />
    <glyph glyph-name="cdotaccent" unicode="&#x10b;" horiz-adv-x="475" 
d="M464 61l-17.5 -17t-35 -24t-56 -21.5t-81.5 -9.5t-91.5 17.5t-76.5 49.5t-52.5 78t-19.5 103t20.5 103t54 78t77.5 49t91 17q48 0 82 -10t56 -22t33 -23l13 -13l-34 -70q-6 6 -17 16t-28.5 19t-41 16t-55.5 7q-31 0 -59 -11.5t-49 -33t-33.5 -51.5t-12.5 -68
q0 -37 11.5 -68.5t31.5 -53.5t49 -34.5t63 -12.5q35 0 61.5 9.5t45.5 20.5q21 13 37 30zM312 618q0 -23 -15.5 -38t-38.5 -15t-38 15t-15 38t15 38t38 15t38.5 -15t15.5 -38z" />
    <glyph glyph-name="Ccaron" unicode="&#x10c;" horiz-adv-x="665" 
d="M642 90q-16 -18 -39 -36t-54 -33t-70.5 -24t-88.5 -9q-75 0 -140 25.5t-112 72t-74 112t-27 146.5t27.5 146.5t75 112t112 72t138.5 25.5q48 0 87 -9t69.5 -22.5t52.5 -29.5t36 -30l-41 -78q-10 13 -29 27.5t-45 27t-58 21t-68 8.5q-56 0 -103 -19t-81.5 -54.5t-53.5 -85
t-19 -110.5t19.5 -110.5t53.5 -84.5t81.5 -54.5t102.5 -19.5q69 0 120.5 23.5t85.5 60.5zM407 759h-79l-91 145h70l60 -100l61 100h70z" />
    <glyph glyph-name="ccaron" unicode="&#x10d;" horiz-adv-x="475" 
d="M464 61l-17.5 -17t-35 -24t-56 -21.5t-81.5 -9.5t-91.5 17.5t-76.5 49.5t-52.5 78t-19.5 103t20.5 103t54 78t77.5 49t91 17q48 0 82 -10t56 -22t33 -23l13 -13l-34 -70q-6 6 -17 16t-28.5 19t-41 16t-55.5 7q-31 0 -59 -11.5t-49 -33t-33.5 -51.5t-12.5 -68
q0 -37 11.5 -68.5t31.5 -53.5t49 -34.5t63 -12.5q35 0 61.5 9.5t45.5 20.5q21 13 37 30zM307 545h-79l-91 145h70l60 -100l61 100h70z" />
    <glyph glyph-name="Dcaron" unicode="&#x10e;" horiz-adv-x="686" 
d="M649 345q0 -80 -28 -144t-77 -108.5t-115.5 -68.5t-144.5 -24h-208v690h208q78 0 144.5 -24t115.5 -68.5t77 -108.5t28 -144zM550 345q0 60 -19.5 108t-55 82.5t-84 53t-107.5 18.5h-111v-523h111q59 0 107.5 18.5t84 52.5t55 82t19.5 108zM349 759h-79l-91 145h70
l60 -100l61 100h70z" />
    <glyph glyph-name="dcaron" unicode="&#x10f;" horiz-adv-x="680" 
d="M434 0v76h-2q-29 -44 -72 -65.5t-95 -21.5q-53 0 -95.5 19t-72.5 52.5t-46.5 79t-16.5 98.5t16 98t46 78t72.5 51.5t94.5 18.5q58 0 99.5 -23t66.5 -60h2v289h95v-690h-92zM434 239q0 36 -10 66.5t-29.5 53t-47.5 35t-64 12.5t-64 -12.5t-47.5 -35t-29.5 -53t-10 -66.5
t10 -66.5t29.5 -53t47.5 -35.5t64 -13t64 13t47.5 35.5t29.5 53t10 66.5zM636 476h-76l67 214h98z" />
    <glyph glyph-name="Dcroat" unicode="&#x110;" horiz-adv-x="686" 
d="M649 345q0 -80 -28 -144t-77 -108.5t-115.5 -68.5t-144.5 -24h-208v325h-65v72h65v293h208q78 0 144.5 -24t115.5 -68.5t77 -108.5t28 -144zM550 345q0 60 -19.5 108t-55 82.5t-84 53t-107.5 18.5h-111v-210h175v-71h-175v-242h111q59 0 107.5 18.5t84 52.5t55 82
t19.5 108z" />
    <glyph glyph-name="dcroat" unicode="&#x111;" horiz-adv-x="597" 
d="M526 553v-553h-92v76h-2q-29 -44 -72 -65.5t-95 -21.5q-53 0 -95.5 19t-72.5 52.5t-46.5 79t-16.5 98.5t16 98t46 78t72.5 51.5t94.5 18.5q58 0 99.5 -23t66.5 -60h2v152h-191v80h191v57h95v-57h66v-80h-66zM434 239q0 36 -10 66.5t-29.5 53t-47.5 35t-64 12.5t-64 -12.5
t-47.5 -35t-29.5 -53t-10 -66.5t10 -66.5t29.5 -53t47.5 -35.5t64 -13t64 13t47.5 35.5t29.5 53t10 66.5z" />
    <glyph glyph-name="Emacron" unicode="&#x112;" horiz-adv-x="531" 
d="M76 0v690h404v-81h-307v-206h290v-81h-290v-240h315v-82h-412zM156 806v55h259v-55h-259z" />
    <glyph glyph-name="emacron" unicode="&#x113;" horiz-adv-x="529" 
d="M500 257q0 -7 -0.5 -14.5t-0.5 -13.5l-2 -14h-366q4 -71 45.5 -111t107.5 -40q33 0 60.5 7.5t47.5 17.5t32.5 18.5t16.5 11.5l40 -55q-2 -2 -15 -14t-38.5 -25.5t-64 -24.5t-91.5 -11t-96.5 17.5t-75 50t-49 78.5t-17.5 103q0 56 19 101.5t52 77.5t77 49.5t93 17.5
q50 0 91 -17t71 -47t46.5 -71.5t16.5 -91.5zM409 279q0 20 -8 43.5t-24.5 44t-42.5 34.5t-62 14t-61.5 -13t-43 -33.5t-26 -44.5t-9.5 -45h277zM144 592v55h259v-55h-259z" />
    <glyph glyph-name="Ebreve" unicode="&#x114;" horiz-adv-x="531" 
d="M76 0v690h404v-81h-307v-206h290v-81h-290v-240h315v-82h-412zM440 893q-8 -62 -47.5 -92.5t-101.5 -30.5q-61 0 -100.5 30.5t-47.5 92.5h48q9 -35 36.5 -50t63.5 -15q37 0 64.5 15t35.5 50h49z" />
    <glyph glyph-name="ebreve" unicode="&#x115;" horiz-adv-x="529" 
d="M500 257q0 -7 -0.5 -14.5t-0.5 -13.5l-2 -14h-366q4 -71 45.5 -111t107.5 -40q33 0 60.5 7.5t47.5 17.5t32.5 18.5t16.5 11.5l40 -55q-2 -2 -15 -14t-38.5 -25.5t-64 -24.5t-91.5 -11t-96.5 17.5t-75 50t-49 78.5t-17.5 103q0 56 19 101.5t52 77.5t77 49.5t93 17.5
q50 0 91 -17t71 -47t46.5 -71.5t16.5 -91.5zM409 279q0 20 -8 43.5t-24.5 44t-42.5 34.5t-62 14t-61.5 -13t-43 -33.5t-26 -44.5t-9.5 -45h277zM413 679q-8 -62 -47.5 -92.5t-101.5 -30.5q-61 0 -100.5 30.5t-47.5 92.5h48q9 -35 36.5 -50t63.5 -15q37 0 64.5 15t35.5 50h49
z" />
    <glyph glyph-name="Edotaccent" unicode="&#x116;" horiz-adv-x="531" 
d="M76 0v690h404v-81h-307v-206h290v-81h-290v-240h315v-82h-412zM349 832q0 -23 -15.5 -38t-38.5 -15t-38 15t-15 38t15 38t38 15t38.5 -15t15.5 -38z" />
    <glyph glyph-name="edotaccent" unicode="&#x117;" horiz-adv-x="529" 
d="M500 257q0 -7 -0.5 -14.5t-0.5 -13.5l-2 -14h-366q4 -71 45.5 -111t107.5 -40q33 0 60.5 7.5t47.5 17.5t32.5 18.5t16.5 11.5l40 -55q-2 -2 -15 -14t-38.5 -25.5t-64 -24.5t-91.5 -11t-96.5 17.5t-75 50t-49 78.5t-17.5 103q0 56 19 101.5t52 77.5t77 49.5t93 17.5
q50 0 91 -17t71 -47t46.5 -71.5t16.5 -91.5zM409 279q0 20 -8 43.5t-24.5 44t-42.5 34.5t-62 14t-61.5 -13t-43 -33.5t-26 -44.5t-9.5 -45h277zM318 618q0 -23 -15.5 -38t-38.5 -15t-38 15t-15 38t15 38t38 15t38.5 -15t15.5 -38z" />
    <glyph glyph-name="Eogonek" unicode="&#x118;" horiz-adv-x="531" 
d="M488 -165q-44 -43 -104 -43q-44 0 -73.5 23.5t-29.5 66.5q0 20 7 37.5t18.5 32.5t25 27t25.5 21h-281v690h404v-81h-307v-206h290v-81h-290v-240h315v-82h-65q-15 -9 -29 -21t-25 -26t-17.5 -29t-6.5 -28q0 -28 18 -40t41 -12q22 0 41.5 8.5t27.5 13.5z" />
    <glyph glyph-name="eogonek" unicode="&#x119;" horiz-adv-x="529" 
d="M486 -144q-44 -43 -104 -43q-44 0 -73.5 23.5t-29.5 66.5q0 27 12 49.5t29 39.5q-22 -3 -48 -3q-53 0 -96.5 17.5t-75 50t-49 78.5t-17.5 103q0 56 19 101.5t52 77.5t77 49.5t93 17.5q50 0 91 -17t71 -47t46.5 -71.5t16.5 -91.5q0 -7 -0.5 -14.5t-0.5 -13.5l-2 -14h-366
q4 -71 45.5 -111t107.5 -40q33 0 60.5 7.5t47.5 17.5t32.5 18.5t16.5 11.5l40 -55q-2 -2 -17 -15t-43 -28q-15 -8 -29.5 -20.5t-25 -26.5t-17 -29t-6.5 -28q0 -28 18 -40t41 -12q22 0 41.5 8.5t27.5 13.5zM409 279q0 20 -8 43.5t-24.5 44t-42.5 34.5t-62 14t-61.5 -13
t-43 -33.5t-26 -44.5t-9.5 -45h277z" />
    <glyph glyph-name="Ecaron" unicode="&#x11a;" horiz-adv-x="531" 
d="M76 0v690h404v-81h-307v-206h290v-81h-290v-240h315v-82h-412zM323 759h-79l-91 145h70l60 -100l61 100h70z" />
    <glyph glyph-name="ecaron" unicode="&#x11b;" horiz-adv-x="529" 
d="M500 257q0 -7 -0.5 -14.5t-0.5 -13.5l-2 -14h-366q4 -71 45.5 -111t107.5 -40q33 0 60.5 7.5t47.5 17.5t32.5 18.5t16.5 11.5l40 -55q-2 -2 -15 -14t-38.5 -25.5t-64 -24.5t-91.5 -11t-96.5 17.5t-75 50t-49 78.5t-17.5 103q0 56 19 101.5t52 77.5t77 49.5t93 17.5
q50 0 91 -17t71 -47t46.5 -71.5t16.5 -91.5zM409 279q0 20 -8 43.5t-24.5 44t-42.5 34.5t-62 14t-61.5 -13t-43 -33.5t-26 -44.5t-9.5 -45h277zM304 545h-79l-91 145h70l60 -100l61 100h70z" />
    <glyph glyph-name="Gcircumflex" unicode="&#x11c;" horiz-adv-x="747" 
d="M682 100l-24 -23t-54 -38t-88 -35.5t-127 -15.5t-138 25.5t-111.5 72.5t-75 112.5t-27.5 146.5t27.5 146.5t74.5 112t111.5 71.5t137.5 25q66 0 114.5 -15t81.5 -35t53 -40l30 -30l-66 -61q-15 18 -35 35.5t-46 31.5t-58.5 22.5t-73.5 8.5q-53 0 -99 -18.5t-79.5 -53.5
t-53 -85.5t-19.5 -114.5t20 -114.5t54.5 -85.5t81.5 -53.5t101 -18.5t91 10t60 22q27 13 43 31v153h-186v79h280v-268zM434 759l-61 100l-60 -100h-70l91 145h79l91 -145h-70z" />
    <glyph glyph-name="gcircumflex" unicode="&#x11d;" horiz-adv-x="593" 
d="M526 100q0 -79 -13 -126t-39 -79q-13 -16 -31 -32.5t-43.5 -29.5t-59.5 -21t-78 -8t-80.5 9.5t-64 22t-45 24t-22.5 15.5l45 67q9 -8 27 -18.5t41 -19.5t49 -15.5t53 -6.5q45 0 77 13t51.5 37.5t28.5 58.5t9 76v24h-2q-24 -36 -65 -60.5t-101 -24.5q-46 0 -87.5 16
t-73 47t-50 75t-18.5 101t18.5 101t50 75t73 47t87.5 16q63 0 104 -25.5t62 -58.5h3l-1 75h95v-375zM434 245q0 34 -10 63.5t-29 51.5t-47 34.5t-65 12.5q-36 0 -64.5 -12.5t-47.5 -34.5t-29 -51.5t-10 -63.5t10 -63t29 -51t47.5 -34.5t64.5 -12.5q37 0 65 12.5t47 34.5
t29 51t10 63zM325 545l-61 100l-60 -100h-70l91 145h79l91 -145h-70z" />
    <glyph glyph-name="Gbreve" unicode="&#x11e;" horiz-adv-x="747" 
d="M682 100l-24 -23t-54 -38t-88 -35.5t-127 -15.5t-138 25.5t-111.5 72.5t-75 112.5t-27.5 146.5t27.5 146.5t74.5 112t111.5 71.5t137.5 25q66 0 114.5 -15t81.5 -35t53 -40l30 -30l-66 -61q-15 18 -35 35.5t-46 31.5t-58.5 22.5t-73.5 8.5q-53 0 -99 -18.5t-79.5 -53.5
t-53 -85.5t-19.5 -114.5t20 -114.5t54.5 -85.5t81.5 -53.5t101 -18.5t91 10t60 22q27 13 43 31v153h-186v79h280v-268zM524 893q-8 -62 -47.5 -92.5t-101.5 -30.5q-61 0 -100.5 30.5t-47.5 92.5h48q9 -35 36.5 -50t63.5 -15q37 0 64.5 15t35.5 50h49z" />
    <glyph glyph-name="gbreve" unicode="&#x11f;" horiz-adv-x="593" 
d="M526 100q0 -79 -13 -126t-39 -79q-13 -16 -31 -32.5t-43.5 -29.5t-59.5 -21t-78 -8t-80.5 9.5t-64 22t-45 24t-22.5 15.5l45 67q9 -8 27 -18.5t41 -19.5t49 -15.5t53 -6.5q45 0 77 13t51.5 37.5t28.5 58.5t9 76v24h-2q-24 -36 -65 -60.5t-101 -24.5q-46 0 -87.5 16
t-73 47t-50 75t-18.5 101t18.5 101t50 75t73 47t87.5 16q63 0 104 -25.5t62 -58.5h3l-1 75h95v-375zM434 245q0 34 -10 63.5t-29 51.5t-47 34.5t-65 12.5q-36 0 -64.5 -12.5t-47.5 -34.5t-29 -51.5t-10 -63.5t10 -63t29 -51t47.5 -34.5t64.5 -12.5q37 0 65 12.5t47 34.5
t29 51t10 63zM417 679q-8 -62 -47.5 -92.5t-101.5 -30.5q-61 0 -100.5 30.5t-47.5 92.5h48q9 -35 36.5 -50t63.5 -15q37 0 64.5 15t35.5 50h49z" />
    <glyph glyph-name="Gdotaccent" unicode="&#x120;" horiz-adv-x="747" 
d="M682 100l-24 -23t-54 -38t-88 -35.5t-127 -15.5t-138 25.5t-111.5 72.5t-75 112.5t-27.5 146.5t27.5 146.5t74.5 112t111.5 71.5t137.5 25q66 0 114.5 -15t81.5 -35t53 -40l30 -30l-66 -61q-15 18 -35 35.5t-46 31.5t-58.5 22.5t-73.5 8.5q-53 0 -99 -18.5t-79.5 -53.5
t-53 -85.5t-19.5 -114.5t20 -114.5t54.5 -85.5t81.5 -53.5t101 -18.5t91 10t60 22q27 13 43 31v153h-186v79h280v-268zM427 832q0 -23 -15.5 -38t-38.5 -15t-38 15t-15 38t15 38t38 15t38.5 -15t15.5 -38z" />
    <glyph glyph-name="gdotaccent" unicode="&#x121;" horiz-adv-x="593" 
d="M526 100q0 -79 -13 -126t-39 -79q-13 -16 -31 -32.5t-43.5 -29.5t-59.5 -21t-78 -8t-80.5 9.5t-64 22t-45 24t-22.5 15.5l45 67q9 -8 27 -18.5t41 -19.5t49 -15.5t53 -6.5q45 0 77 13t51.5 37.5t28.5 58.5t9 76v24h-2q-24 -36 -65 -60.5t-101 -24.5q-46 0 -87.5 16
t-73 47t-50 75t-18.5 101t18.5 101t50 75t73 47t87.5 16q63 0 104 -25.5t62 -58.5h3l-1 75h95v-375zM434 245q0 34 -10 63.5t-29 51.5t-47 34.5t-65 12.5q-36 0 -64.5 -12.5t-47.5 -34.5t-29 -51.5t-10 -63.5t10 -63t29 -51t47.5 -34.5t64.5 -12.5q37 0 65 12.5t47 34.5
t29 51t10 63zM326 618q0 -23 -15.5 -38t-38.5 -15t-38 15t-15 38t15 38t38 15t38.5 -15t15.5 -38z" />
    <glyph glyph-name="Gcommaaccent" unicode="&#x122;" horiz-adv-x="747" 
d="M682 100l-24 -23t-54 -38t-88 -35.5t-127 -15.5t-138 25.5t-111.5 72.5t-75 112.5t-27.5 146.5t27.5 146.5t74.5 112t111.5 71.5t137.5 25q66 0 114.5 -15t81.5 -35t53 -40l30 -30l-66 -61q-15 18 -35 35.5t-46 31.5t-58.5 22.5t-73.5 8.5q-53 0 -99 -18.5t-79.5 -53.5
t-53 -85.5t-19.5 -114.5t20 -114.5t54.5 -85.5t81.5 -53.5t101 -18.5t91 10t60 22q27 13 43 31v153h-186v79h280v-268zM387 -190h-71l36 140h98z" />
    <glyph glyph-name="gcommaaccent" unicode="&#x123;" horiz-adv-x="593" 
d="M526 100q0 -79 -13 -126t-39 -79q-13 -16 -31 -32.5t-43.5 -29.5t-59.5 -21t-78 -8t-80.5 9.5t-64 22t-45 24t-22.5 15.5l45 67q9 -8 27 -18.5t41 -19.5t49 -15.5t53 -6.5q45 0 77 13t51.5 37.5t28.5 58.5t9 76v24h-2q-24 -36 -65 -60.5t-101 -24.5q-46 0 -87.5 16
t-73 47t-50 75t-18.5 101t18.5 101t50 75t73 47t87.5 16q63 0 104 -25.5t62 -58.5h3l-1 75h95v-375zM434 245q0 34 -10 63.5t-29 51.5t-47 34.5t-65 12.5q-36 0 -64.5 -12.5t-47.5 -34.5t-29 -51.5t-10 -63.5t10 -63t29 -51t47.5 -34.5t64.5 -12.5q37 0 65 12.5t47 34.5
t29 51t10 63zM274 711h71l-36 -140h-98z" />
    <glyph glyph-name="Hcircumflex" unicode="&#x124;" horiz-adv-x="714" 
d="M540 0v322h-367v-322h-97v690h97v-285h367v285h97v-690h-97zM417 759l-61 100l-60 -100h-70l91 145h79l91 -145h-70z" />
    <glyph glyph-name="hcircumflex" unicode="&#x125;" horiz-adv-x="548" 
d="M388 0v269q0 26 -3 50t-13.5 43.5t-29.5 31t-52 11.5t-56.5 -13t-38.5 -36t-22 -54t-7 -67v-235h-95v690h95v-290h2q19 35 56.5 59.5t89.5 24.5q51 0 84 -15.5t52 -42.5t26.5 -64t7.5 -79v-283h-96zM180 750l-61 100l-60 -100h-70l91 145h79l91 -145h-70z" />
    <glyph glyph-name="Hbar" unicode="&#x126;" horiz-adv-x="714" 
d="M637 525v-525h-97v322h-367v-322h-97v525h-71v75h71v90h97v-90h367v90h97v-90h72v-75h-72zM540 525h-367v-120h367v120z" />
    <glyph glyph-name="hbar" unicode="&#x127;" horiz-adv-x="548" 
d="M388 0v269q0 26 -3 50t-13.5 43.5t-29.5 31t-52 11.5t-56.5 -13t-38.5 -36t-22 -54t-7 -67v-235h-95v553h-66v80h66v57h95v-57h191v-80h-191v-153h2q19 35 56.5 59.5t89.5 24.5q51 0 84 -15.5t52 -42.5t26.5 -64t7.5 -79v-283h-96z" />
    <glyph glyph-name="Itilde" unicode="&#x128;" horiz-adv-x="249" 
d="M76 0v690h97v-690h-97zM281 873q-3 -42 -30.5 -67t-61.5 -25q-29 0 -46 8.5t-25 13.5q-9 5 -25 15t-34 10t-29.5 -13t-14.5 -30l-47 10q3 42 30.5 67.5t61.5 25.5q29 0 45.5 -9l25.5 -14l25 -14.5t34 -9.5t29 12.5t15 29.5z" />
    <glyph glyph-name="itilde" unicode="&#x129;" horiz-adv-x="236" 
d="M70 0v475h96v-475h-96zM275 659q-3 -42 -30.5 -67t-61.5 -25q-29 0 -46 8.5t-25 13.5q-9 5 -25 15t-34 10t-29.5 -13t-14.5 -30l-47 10q3 42 30.5 67.5t61.5 25.5q29 0 45.5 -9l25.5 -14l25 -14.5t34 -9.5t29 12.5t15 29.5z" />
    <glyph glyph-name="Imacron" unicode="&#x12a;" horiz-adv-x="249" 
d="M76 0v690h97v-690h-97zM-5 806v55h259v-55h-259z" />
    <glyph glyph-name="imacron" unicode="&#x12b;" horiz-adv-x="236" 
d="M70 0v475h96v-475h-96zM-11 592v55h259v-55h-259z" />
    <glyph glyph-name="Ibreve" unicode="&#x12c;" horiz-adv-x="249" 
d="M76 0v690h97v-690h-97zM273 893q-8 -62 -47.5 -92.5t-101.5 -30.5q-61 0 -100.5 30.5t-47.5 92.5h48q9 -35 36.5 -50t63.5 -15q37 0 64.5 15t35.5 50h49z" />
    <glyph glyph-name="ibreve" unicode="&#x12d;" horiz-adv-x="236" 
d="M70 0v475h96v-475h-96zM267 679q-8 -62 -47.5 -92.5t-101.5 -30.5q-61 0 -100.5 30.5t-47.5 92.5h48q9 -35 36.5 -50t63.5 -15q37 0 64.5 15t35.5 50h49z" />
    <glyph glyph-name="Iogonek" unicode="&#x12e;" horiz-adv-x="249" 
d="M207 -165q-44 -43 -104 -43q-44 0 -73.5 23.5t-29.5 66.5q0 20 7 37.5t18.5 32.5t25 27t25.5 21v690h97v-690q-60 -20 -84.5 -48.5t-24.5 -55.5q0 -28 18 -40t41 -12q22 0 41.5 8.5t27.5 13.5z" />
    <glyph glyph-name="iogonek" unicode="&#x12f;" horiz-adv-x="236" 
d="M201 -165q-44 -43 -104 -43q-44 0 -73.5 23.5t-29.5 66.5q0 20 7 37.5t18.5 32.5t25 27t25.5 21v475h96v-475q-28 -6 -48 -18t-33.5 -26.5t-20 -30.5t-6.5 -29q0 -28 18 -40t41 -12q22 0 41.5 8.5t27.5 13.5zM180 631q0 -26 -17.5 -42.5t-44.5 -16.5q-28 0 -45.5 16.5
t-17.5 42.5t17.5 42.5t45.5 16.5q27 0 44.5 -16.5t17.5 -42.5z" />
    <glyph glyph-name="Idotaccent" unicode="&#x130;" horiz-adv-x="249" 
d="M76 0v690h97v-690h-97zM178 832q0 -23 -15.5 -38t-38.5 -15t-38 15t-15 38t15 38t38 15t38.5 -15t15.5 -38z" />
    <glyph glyph-name="dotlessi" unicode="&#x131;" horiz-adv-x="236" 
d="M70 0v475h96v-475h-96z" />
    <glyph glyph-name="IJ" unicode="&#x132;" horiz-adv-x="498" 
d="M76 0v690h97v-690h-97zM422 2q0 -51 -8 -87t-23 -59q-16 -22 -43.5 -39t-67.5 -17q-30 0 -51.5 5t-23.5 7l2 74q19 -8 53 -8q22 0 35 10t19.5 26.5t8.5 38.5t2 46v691h97v-688z" />
    <glyph glyph-name="ij" unicode="&#x133;" horiz-adv-x="472" 
d="M180 631q0 -26 -17.5 -42.5t-44.5 -16.5q-28 0 -45.5 16.5t-17.5 42.5t17.5 42.5t45.5 16.5q27 0 44.5 -16.5t17.5 -42.5zM70 0v475h96v-475h-96zM416 631q0 -26 -17.5 -42.5t-44.5 -16.5q-28 0 -45.5 16.5t-17.5 42.5t17.5 42.5t45.5 16.5q27 0 44.5 -16.5t17.5 -42.5z
M402 -1q0 -38 -6.5 -73t-23.5 -62t-46 -43.5t-74 -16.5q-15 0 -26 1t-19 3q-9 2 -15 4l1 76q6 -2 13 -4q7 -1 15 -2t17 -1q23 0 36.5 9.5t20.5 26t9 38.5t2 47v473h96v-476z" />
    <glyph glyph-name="Jcircumflex" unicode="&#x134;" horiz-adv-x="249" 
d="M173 2q0 -51 -8 -87t-23 -59q-16 -22 -43.5 -39t-67.5 -17q-30 0 -51.5 5t-23.5 7l2 74q19 -8 53 -8q22 0 35 10t19.5 26.5t8.5 38.5t2 46v691h97v-688zM185 759l-61 100l-60 -100h-70l91 145h79l91 -145h-70z" />
    <glyph glyph-name="jcircumflex" unicode="&#x135;" horiz-adv-x="236" 
d="M166 -1q0 -38 -6.5 -73t-23.5 -62t-46 -43.5t-74 -16.5q-15 0 -26 1t-19 3q-9 2 -15 4l1 76q6 -2 13 -4q7 -1 15 -2t17 -1q23 0 36.5 9.5t20.5 26t9 38.5t2 47v473h96v-476zM179 545l-61 100l-60 -100h-70l91 145h79l91 -145h-70z" />
    <glyph glyph-name="Kcommaaccent" unicode="&#x136;" horiz-adv-x="579" 
d="M473 0l-229 346l-71 -72v-274h-97v690h97v-294l281 294h118l-263 -272l282 -418h-118zM303 -190h-71l36 140h98z" />
    <glyph glyph-name="kcommaaccent" unicode="&#x137;" horiz-adv-x="487" 
d="M384 0l-163 230l-55 -52v-178h-95v690h95v-405l194 190h112l-186 -179l210 -296h-112zM265 -190h-71l36 140h98z" />
    <glyph glyph-name="kgreenlandic" unicode="&#x138;" horiz-adv-x="482" 
d="M379 0l-163 230l-55 -52v-178h-95v475h95v-190l194 190h112l-186 -179l210 -296h-112z" />
    <glyph glyph-name="Lacute" unicode="&#x139;" horiz-adv-x="426" 
d="M76 0v690h97v-607h243v-83h-340zM154 759h-73l89 145h94z" />
    <glyph glyph-name="lacute" unicode="&#x13a;" horiz-adv-x="237" 
d="M71 0v690h95v-690h-95zM134 765h-73l89 145h94z" />
    <glyph glyph-name="Lcommaaccent" unicode="&#x13b;" horiz-adv-x="426" 
d="M76 0v690h97v-607h243v-83h-340zM247 -190h-71l36 140h98z" />
    <glyph glyph-name="lcommaaccent" unicode="&#x13c;" horiz-adv-x="237" 
d="M71 0v690h95v-690h-95zM113 -190h-71l36 140h98z" />
    <glyph glyph-name="Lcaron" unicode="&#x13d;" horiz-adv-x="426" 
d="M76 0v690h97v-607h243v-83h-340zM344 476h-76l67 214h98z" />
    <glyph glyph-name="lcaron" unicode="&#x13e;" horiz-adv-x="320" 
d="M71 0v690h95v-690h-95zM276 476h-76l67 214h98z" />
    <glyph glyph-name="Ldot" unicode="&#x13f;" horiz-adv-x="426" 
d="M76 0v690h97v-607h243v-83h-340zM400 319q0 -28 -18.5 -45.5t-47.5 -17.5t-47 17.5t-18 45.5t18 45t47 17t47.5 -17t18.5 -45z" />
    <glyph glyph-name="ldot" unicode="&#x140;" horiz-adv-x="407" 
d="M71 0v690h95v-690h-95zM372 289q0 -28 -18.5 -45.5t-47.5 -17.5t-47 17.5t-18 45.5t18 45t47 17t47.5 -17t18.5 -45z" />
    <glyph glyph-name="Lslash" unicode="&#x141;" horiz-adv-x="426" 
d="M76 0v256l-61 -47v81l61 47v353h97v-285l114 89v-82l-114 -88v-241h243v-83h-340z" />
    <glyph glyph-name="lslash" unicode="&#x142;" horiz-adv-x="238" 
d="M167 374v-374h-96v294l-59 -57v84l59 56v313h96v-233l59 57v-84z" />
    <glyph glyph-name="Nacute" unicode="&#x143;" horiz-adv-x="740" 
d="M568 0l-398 550q1 -27 1 -58q0 -28 0.5 -59.5t0.5 -65.5v-367h-96v690h102l391 -542v54q-1 26 -1 57v65v366h95v-690h-95zM389 759h-73l89 145h94z" />
    <glyph glyph-name="nacute" unicode="&#x144;" horiz-adv-x="541" 
d="M383 0v265q0 30 -3.5 55.5t-14 44.5t-30 29.5t-51.5 10.5q-33 0 -56.5 -13t-38 -35.5t-21 -53t-6.5 -64.5v-239h-96v475h96l-1 -75h3q19 35 56 59.5t89 24.5q51 0 83.5 -15.5t52 -43t27 -64.5t7.5 -80v-281h-96zM252 545h-73l89 145h94z" />
    <glyph glyph-name="Ncommaaccent" unicode="&#x145;" horiz-adv-x="740" 
d="M568 0l-398 550q1 -27 1 -58q0 -28 0.5 -59.5t0.5 -65.5v-367h-96v690h102l391 -542v54q-1 26 -1 57v65v366h95v-690h-95zM374 -190h-71l36 140h98z" />
    <glyph glyph-name="ncommaaccent" unicode="&#x146;" horiz-adv-x="541" 
d="M383 0v265q0 30 -3.5 55.5t-14 44.5t-30 29.5t-51.5 10.5q-33 0 -56.5 -13t-38 -35.5t-21 -53t-6.5 -64.5v-239h-96v475h96l-1 -75h3q19 35 56 59.5t89 24.5q51 0 83.5 -15.5t52 -43t27 -64.5t7.5 -80v-281h-96zM274 -190h-71l36 140h98z" />
    <glyph glyph-name="Ncaron" unicode="&#x147;" horiz-adv-x="740" 
d="M568 0l-398 550q1 -27 1 -58q0 -28 0.5 -59.5t0.5 -65.5v-367h-96v690h102l391 -542v54q-1 26 -1 57v65v366h95v-690h-95zM409 759h-79l-91 145h70l60 -100l61 100h70z" />
    <glyph glyph-name="ncaron" unicode="&#x148;" horiz-adv-x="541" 
d="M383 0v265q0 30 -3.5 55.5t-14 44.5t-30 29.5t-51.5 10.5q-33 0 -56.5 -13t-38 -35.5t-21 -53t-6.5 -64.5v-239h-96v475h96l-1 -75h3q19 35 56 59.5t89 24.5q51 0 83.5 -15.5t52 -43t27 -64.5t7.5 -80v-281h-96zM310 545h-79l-91 145h70l60 -100l61 100h70z" />
    <glyph glyph-name="Eng" unicode="&#x14a;" horiz-adv-x="740" 
d="M665 2q0 -51 -8 -87t-23 -59q-16 -22 -43.5 -39t-67.5 -17q-30 0 -51.5 5t-23.5 7l2 74q19 -8 53 -8q22 0 35 10t19.5 26.5t8.5 38.5t2 47l-398 550q1 -27 1 -58q0 -28 0.5 -59.5t0.5 -65.5v-367h-96v690h102l390 -541v541h97v-688z" />
    <glyph glyph-name="eng" unicode="&#x14b;" horiz-adv-x="541" 
d="M479 -1q0 -38 -6.5 -73t-23.5 -62t-46 -43.5t-74 -16.5q-15 0 -26 1t-19 3q-9 2 -15 4l1 76q6 -2 13 -4q7 -1 15 -2t17 -1q23 0 36.5 9.5t20.5 26t9 38.5t2 47v263q0 30 -3.5 55.5t-14 44.5t-30 29.5t-51.5 10.5q-33 0 -56.5 -13t-38 -35.5t-21 -53t-6.5 -64.5v-239h-96
v475h96l-1 -75h3q19 35 56 59.5t89 24.5q51 0 83.5 -15.5t52 -43t27 -64.5t7.5 -80v-282z" />
    <glyph glyph-name="Omacron" unicode="&#x14c;" horiz-adv-x="786" 
d="M749 344q0 -83 -28.5 -149t-77 -112t-113 -70.5t-137.5 -24.5t-137.5 24.5t-113 70.5t-77 112t-28.5 149t28.5 149t77 112t113 70.5t137.5 24.5t137.5 -24.5t113 -70.5t77 -112t28.5 -149zM650 346q0 63 -20.5 113.5t-55.5 85t-81.5 53t-99.5 18.5t-99.5 -18.5t-81.5 -53
t-55.5 -85t-20.5 -113.5t20.5 -113t55.5 -85t82 -53.5t99 -18.5q53 0 99.5 18.5t81.5 53.5t55.5 85t20.5 113zM263 806v55h259v-55h-259z" />
    <glyph glyph-name="omacron" unicode="&#x14d;" horiz-adv-x="571" 
d="M537 236q0 -55 -19.5 -101t-53 -78t-79.5 -50t-99 -18t-99 18t-80 50t-53.5 78t-19.5 101t19.5 100.5t53.5 78.5t80 51t99 18t99 -18t79.5 -51t53 -78.5t19.5 -100.5zM440 239q0 35 -10.5 65.5t-30.5 53t-48.5 35.5t-64.5 13t-64.5 -13t-49 -35.5t-31 -53t-10.5 -65.5
t10.5 -66t31 -53.5t49 -35.5t64.5 -13t64.5 13t48.5 35.5t30.5 53.5t10.5 66zM156 592v55h259v-55h-259z" />
    <glyph glyph-name="Obreve" unicode="&#x14e;" horiz-adv-x="786" 
d="M749 344q0 -83 -28.5 -149t-77 -112t-113 -70.5t-137.5 -24.5t-137.5 24.5t-113 70.5t-77 112t-28.5 149t28.5 149t77 112t113 70.5t137.5 24.5t137.5 -24.5t113 -70.5t77 -112t28.5 -149zM650 346q0 63 -20.5 113.5t-55.5 85t-81.5 53t-99.5 18.5t-99.5 -18.5t-81.5 -53
t-55.5 -85t-20.5 -113.5t20.5 -113t55.5 -85t82 -53.5t99 -18.5q53 0 99.5 18.5t81.5 53.5t55.5 85t20.5 113zM541 893q-8 -62 -47.5 -92.5t-101.5 -30.5q-61 0 -100.5 30.5t-47.5 92.5h48q9 -35 36.5 -50t63.5 -15q37 0 64.5 15t35.5 50h49z" />
    <glyph glyph-name="obreve" unicode="&#x14f;" horiz-adv-x="571" 
d="M537 236q0 -55 -19.5 -101t-53 -78t-79.5 -50t-99 -18t-99 18t-80 50t-53.5 78t-19.5 101t19.5 100.5t53.5 78.5t80 51t99 18t99 -18t79.5 -51t53 -78.5t19.5 -100.5zM440 239q0 35 -10.5 65.5t-30.5 53t-48.5 35.5t-64.5 13t-64.5 -13t-49 -35.5t-31 -53t-10.5 -65.5
t10.5 -66t31 -53.5t49 -35.5t64.5 -13t64.5 13t48.5 35.5t30.5 53.5t10.5 66zM434 679q-8 -62 -47.5 -92.5t-101.5 -30.5q-61 0 -100.5 30.5t-47.5 92.5h48q9 -35 36.5 -50t63.5 -15q37 0 64.5 15t35.5 50h49z" />
    <glyph glyph-name="Ohungarumlaut" unicode="&#x150;" horiz-adv-x="786" 
d="M749 344q0 -83 -28.5 -149t-77 -112t-113 -70.5t-137.5 -24.5t-137.5 24.5t-113 70.5t-77 112t-28.5 149t28.5 149t77 112t113 70.5t137.5 24.5t137.5 -24.5t113 -70.5t77 -112t28.5 -149zM650 346q0 63 -20.5 113.5t-55.5 85t-81.5 53t-99.5 18.5t-99.5 -18.5t-81.5 -53
t-55.5 -85t-20.5 -113.5t20.5 -113t55.5 -85t82 -53.5t99 -18.5q53 0 99.5 18.5t81.5 53.5t55.5 85t20.5 113zM486 759h-71l90 145h92zM349 759h-72l90 145h93z" />
    <glyph glyph-name="ohungarumlaut" unicode="&#x151;" horiz-adv-x="571" 
d="M537 236q0 -55 -19.5 -101t-53 -78t-79.5 -50t-99 -18t-99 18t-80 50t-53.5 78t-19.5 101t19.5 100.5t53.5 78.5t80 51t99 18t99 -18t79.5 -51t53 -78.5t19.5 -100.5zM440 239q0 35 -10.5 65.5t-30.5 53t-48.5 35.5t-64.5 13t-64.5 -13t-49 -35.5t-31 -53t-10.5 -65.5
t10.5 -66t31 -53.5t49 -35.5t64.5 -13t64.5 13t48.5 35.5t30.5 53.5t10.5 66zM362 545h-71l90 145h92zM225 545h-72l90 145h93z" />
    <glyph glyph-name="OE" unicode="&#x152;" horiz-adv-x="992" 
d="M571 0v37q-31 -20 -75.5 -34.5t-106.5 -14.5q-71 0 -135 24.5t-112 70.5t-76.5 112t-28.5 149t28.5 149t76.5 112t112 70.5t135 24.5q60 0 103.5 -13.5t77.5 -33.5v37h371v-81h-278v-206h261v-81h-261v-240h286v-82h-378zM566 555q-30 26 -73 43.5t-104 17.5
q-51 0 -97 -18.5t-80.5 -53t-55 -85t-20.5 -113.5t20.5 -113t55 -85t80.5 -53.5t97 -18.5q58 0 102.5 17.5t74.5 43.5v418z" />
    <glyph glyph-name="oe" unicode="&#x153;" horiz-adv-x="930" 
d="M901 257q0 -8 -0.5 -15.5t-0.5 -13.5q0 -7 -1 -13h-367q4 -70 44.5 -110.5t108.5 -40.5q34 0 61 7.5t47 17.5t32.5 18.5t16.5 11.5l40 -55q-2 -2 -15 -14t-38 -25.5t-63.5 -24.5t-91.5 -11q-45 0 -78 12t-56 29t-36.5 35t-19.5 29q-28 -47 -77 -76t-121 -29q-53 0 -99 18
t-80 50t-53.5 78t-19.5 101t19.5 100.5t53.5 78.5t80 51t99 18q69 0 119.5 -29t79.5 -77q29 48 77 77t115 29q50 0 91 -17t70.5 -47t46 -71.5t16.5 -91.5zM810 279q0 20 -8 43.5t-24.5 44t-42 34.5t-61.5 14t-62 -13t-43 -33.5t-25.5 -44.5t-9.5 -45h276zM440 239
q0 35 -10.5 65.5t-30.5 53t-48.5 35.5t-64.5 13t-64.5 -13t-49 -35.5t-31 -53t-10.5 -65.5t10.5 -66t31 -53.5t49 -35.5t64.5 -13t64.5 13t48.5 35.5t30.5 53.5t10.5 66z" />
    <glyph glyph-name="Racute" unicode="&#x154;" horiz-adv-x="540" 
d="M427 0l-180 297h-74v-297h-97v690h195q46 0 88 -11t74.5 -34.5t51.5 -60.5t19 -88q0 -45 -14.5 -78.5t-37 -56t-50.5 -36t-55 -18.5l197 -307h-117zM404 494q0 31 -10.5 53t-33.5 39t-51.5 21t-64.5 4h-71v-234h71q36 0 64.5 3.5t51.5 20.5t33.5 39t10.5 54zM271 759h-73
l89 145h94z" />
    <glyph glyph-name="racute" unicode="&#x155;" horiz-adv-x="335" 
d="M321 387q-7 3 -19.5 6.5t-32.5 3.5q-32 0 -53 -15.5t-33 -39t-16.5 -51.5t-4.5 -54v-237h-96v475h96l-1 -73h3q17 41 48 61.5t69 20.5q12 0 21.5 -1t15.5 -3q7 -2 13 -4l-6 -89h-4zM189 545h-73l89 145h94z" />
    <glyph glyph-name="Rcommaaccent" unicode="&#x156;" horiz-adv-x="540" 
d="M427 0l-180 297h-74v-297h-97v690h195q46 0 88 -11t74.5 -34.5t51.5 -60.5t19 -88q0 -45 -14.5 -78.5t-37 -56t-50.5 -36t-55 -18.5l197 -307h-117zM404 494q0 31 -10.5 53t-33.5 39t-51.5 21t-64.5 4h-71v-234h71q36 0 64.5 3.5t51.5 20.5t33.5 39t10.5 54zM283 -190
h-71l36 140h98z" />
    <glyph glyph-name="rcommaaccent" unicode="&#x157;" horiz-adv-x="335" 
d="M321 387q-7 3 -19.5 6.5t-32.5 3.5q-32 0 -53 -15.5t-33 -39t-16.5 -51.5t-4.5 -54v-237h-96v475h96l-1 -73h3q17 41 48 61.5t69 20.5q12 0 21.5 -1t15.5 -3q7 -2 13 -4l-6 -89h-4zM121 -190h-71l36 140h98z" />
    <glyph glyph-name="Rcaron" unicode="&#x158;" horiz-adv-x="540" 
d="M427 0l-180 297h-74v-297h-97v690h195q46 0 88 -11t74.5 -34.5t51.5 -60.5t19 -88q0 -45 -14.5 -78.5t-37 -56t-50.5 -36t-55 -18.5l197 -307h-117zM404 494q0 31 -10.5 53t-33.5 39t-51.5 21t-64.5 4h-71v-234h71q36 0 64.5 3.5t51.5 20.5t33.5 39t10.5 54zM299 759h-79
l-91 145h70l60 -100l61 100h70z" />
    <glyph glyph-name="rcaron" unicode="&#x159;" horiz-adv-x="335" 
d="M321 387q-7 3 -19.5 6.5t-32.5 3.5q-32 0 -53 -15.5t-33 -39t-16.5 -51.5t-4.5 -54v-237h-96v475h96l-1 -73h3q17 41 48 61.5t69 20.5q12 0 21.5 -1t15.5 -3q7 -2 13 -4l-6 -89h-4zM227 545h-79l-91 145h70l60 -100l61 100h70z" />
    <glyph glyph-name="Sacute" unicode="&#x15a;" horiz-adv-x="534" 
d="M498 192q0 -50 -20.5 -88.5t-54.5 -64t-77.5 -38.5t-88.5 -13t-81 13t-63.5 31t-47 38t-31.5 34l57 65q13 -18 31.5 -35.5t41 -31.5t48.5 -23t54 -9t52.5 8t43 23t29 36.5t10.5 48.5t-12.5 46t-30.5 32.5t-37 22t-32 13.5l-58.5 23.5t-51.5 22.5q-54 25 -84 66.5
t-30 102.5q0 46 19 80.5t50.5 57.5t71.5 34.5t81 11.5q42 0 76 -11t58.5 -26t40.5 -29.5t23 -22.5l-51 -66q-26 27 -63.5 50.5t-88.5 23.5t-85.5 -24t-34.5 -72q0 -24 8 -41t21 -29t28.5 -20.5t31.5 -14.5l127 -53q54 -25 87 -67.5t33 -104.5zM248 759h-73l89 145h94z" />
    <glyph glyph-name="sacute" unicode="&#x15b;" horiz-adv-x="414" 
d="M386 139q0 -38 -15.5 -66.5t-40.5 -47t-57.5 -27.5t-67.5 -9q-60 0 -107.5 23t-77.5 62l46 56q27 -33 67 -50.5t73 -17.5q17 0 33 3.5t29 11t21 21t8 32.5q0 20 -12 33t-29.5 22t-35.5 14.5t-30 9.5q-26 9 -51.5 19t-45 25.5t-31.5 38t-12 56.5q0 33 13 58.5t35.5 42.5
t51.5 26t60 9q63 0 101 -19t61 -43l-40 -59q-21 22 -53 36.5t-67 14.5t-55.5 -15t-20.5 -44q0 -15 8 -25.5t21 -19t29.5 -14.5l34.5 -12l34.5 -12t29.5 -11q40 -17 66.5 -46t26.5 -76zM188 545h-73l89 145h94z" />
    <glyph glyph-name="Scircumflex" unicode="&#x15c;" horiz-adv-x="534" 
d="M498 192q0 -50 -20.5 -88.5t-54.5 -64t-77.5 -38.5t-88.5 -13t-81 13t-63.5 31t-47 38t-31.5 34l57 65q13 -18 31.5 -35.5t41 -31.5t48.5 -23t54 -9t52.5 8t43 23t29 36.5t10.5 48.5t-12.5 46t-30.5 32.5t-37 22t-32 13.5l-58.5 23.5t-51.5 22.5q-54 25 -84 66.5
t-30 102.5q0 46 19 80.5t50.5 57.5t71.5 34.5t81 11.5q42 0 76 -11t58.5 -26t40.5 -29.5t23 -22.5l-51 -66q-26 27 -63.5 50.5t-88.5 23.5t-85.5 -24t-34.5 -72q0 -24 8 -41t21 -29t28.5 -20.5t31.5 -14.5l127 -53q54 -25 87 -67.5t33 -104.5zM327 759l-61 100l-60 -100h-70
l91 145h79l91 -145h-70z" />
    <glyph glyph-name="scircumflex" unicode="&#x15d;" horiz-adv-x="414" 
d="M386 139q0 -38 -15.5 -66.5t-40.5 -47t-57.5 -27.5t-67.5 -9q-60 0 -107.5 23t-77.5 62l46 56q27 -33 67 -50.5t73 -17.5q17 0 33 3.5t29 11t21 21t8 32.5q0 20 -12 33t-29.5 22t-35.5 14.5t-30 9.5q-26 9 -51.5 19t-45 25.5t-31.5 38t-12 56.5q0 33 13 58.5t35.5 42.5
t51.5 26t60 9q63 0 101 -19t61 -43l-40 -59q-21 22 -53 36.5t-67 14.5t-55.5 -15t-20.5 -44q0 -15 8 -25.5t21 -19t29.5 -14.5l34.5 -12l34.5 -12t29.5 -11q40 -17 66.5 -46t26.5 -76zM267 545l-61 100l-60 -100h-70l91 145h79l91 -145h-70z" />
    <glyph glyph-name="Scedilla" unicode="&#x15e;" horiz-adv-x="534" 
d="M498 192q0 -39 -13.5 -72t-37 -58t-55.5 -42t-68 -25l-78 -141h-87l92 134q-44 1 -79 14t-61.5 31t-45.5 37.5t-31 33.5l57 65q13 -18 31.5 -35.5t41 -31.5t48.5 -23t54 -9t52.5 8t43 23t29 36.5t10.5 48.5t-12.5 46t-30.5 32.5t-37 22t-32 13.5l-58.5 23.5t-51.5 22.5
q-54 25 -84 66.5t-30 102.5q0 46 19 80.5t50.5 57.5t71.5 34.5t81 11.5q42 0 76 -11t58.5 -26t40.5 -29.5t23 -22.5l-51 -66q-26 27 -63.5 50.5t-88.5 23.5t-85.5 -24t-34.5 -72q0 -24 8 -41t21 -29t28.5 -20.5t31.5 -14.5l127 -53q54 -25 87 -67.5t33 -104.5z" />
    <glyph glyph-name="scedilla" unicode="&#x15f;" horiz-adv-x="414" 
d="M386 139q0 -57 -33 -92.5t-85 -49.5l-79 -143h-87l93 135q-57 2 -101.5 24.5t-73.5 60.5l46 56q27 -33 67 -50.5t73 -17.5q17 0 33 3.5t29 11t21 21t8 32.5q0 20 -12 33t-29.5 22t-35.5 14.5t-30 9.5q-26 9 -51.5 19t-45 25.5t-31.5 38t-12 56.5q0 33 13 58.5t35.5 42.5
t51.5 26t60 9q63 0 101 -19t61 -43l-40 -59q-21 22 -53 36.5t-67 14.5t-55.5 -15t-20.5 -44q0 -15 8 -25.5t21 -19t29.5 -14.5l34.5 -12l34.5 -12t29.5 -11q40 -17 66.5 -46t26.5 -76z" />
    <glyph glyph-name="Scaron" unicode="&#x160;" horiz-adv-x="534" 
d="M498 192q0 -50 -20.5 -88.5t-54.5 -64t-77.5 -38.5t-88.5 -13t-81 13t-63.5 31t-47 38t-31.5 34l57 65q13 -18 31.5 -35.5t41 -31.5t48.5 -23t54 -9t52.5 8t43 23t29 36.5t10.5 48.5t-12.5 46t-30.5 32.5t-37 22t-32 13.5l-58.5 23.5t-51.5 22.5q-54 25 -84 66.5
t-30 102.5q0 46 19 80.5t50.5 57.5t71.5 34.5t81 11.5q42 0 76 -11t58.5 -26t40.5 -29.5t23 -22.5l-51 -66q-26 27 -63.5 50.5t-88.5 23.5t-85.5 -24t-34.5 -72q0 -24 8 -41t21 -29t28.5 -20.5t31.5 -14.5l127 -53q54 -25 87 -67.5t33 -104.5zM325 742h-79l-91 145h70
l61 -100l60 100h70z" />
    <glyph glyph-name="scaron" unicode="&#x161;" horiz-adv-x="414" 
d="M248 545h-79l-91 145h70l61 -100l60 100h70zM386 139q0 -38 -15.5 -66.5t-40.5 -47t-57.5 -27.5t-67.5 -9q-60 0 -107.5 23t-77.5 62l46 56q27 -33 67 -50.5t73 -17.5q17 0 33 3.5t29 11t21 21t8 32.5q0 20 -12 33t-29.5 22t-35.5 14.5t-30 9.5q-26 9 -51.5 19t-45 25.5
t-31.5 38t-12 56.5q0 33 13 58.5t35.5 42.5t51.5 26t60 9q63 0 101 -19t61 -43l-40 -59q-21 22 -53 36.5t-67 14.5t-55.5 -15t-20.5 -44q0 -15 8 -25.5t21 -19t29.5 -14.5l34.5 -12l34.5 -12t29.5 -11q40 -17 66.5 -46t26.5 -76z" />
    <glyph glyph-name="Tcommaaccent" unicode="&#x162;" horiz-adv-x="501" 
d="M299 609v-609h-97v609h-195v81h486v-81h-194zM254 -190h-71l36 140h98z" />
    <glyph glyph-name="Tcaron" unicode="&#x164;" horiz-adv-x="501" 
d="M299 609v-609h-97v609h-195v81h486v-81h-194zM290 759h-79l-91 145h70l60 -100l61 100h70z" />
    <glyph glyph-name="tcaron" unicode="&#x165;" horiz-adv-x="311" 
d="M297 5q-36 -16 -87 -16q-45 0 -70 17t-37 44t-15 61t-3 69v217h-70v77h70v142h96v-142h114v-77h-114v-215q0 -30 2 -51t10 -36q7 -11 18 -17.5t31 -6.5q11 0 19.5 1.5t15.5 4.5q8 2 14 5zM313 528h-76l67 214h98z" />
    <glyph glyph-name="Tbar" unicode="&#x166;" horiz-adv-x="501" 
d="M299 609v-182h91v-75h-91v-352h-97v352h-91v75h91v182h-195v81h486v-81h-194z" />
    <glyph glyph-name="tbar" unicode="&#x167;" horiz-adv-x="311" 
d="M181 244v-62q0 -30 2 -51t10 -36q7 -11 18 -17.5t31 -6.5q11 0 19.5 1.5t15.5 4.5q8 2 14 5l6 -77q-11 -4 -25 -8q-12 -3 -27.5 -5.5t-34.5 -2.5q-45 0 -70 17t-37 44t-15 61t-3 69v64h-52v80h52v73h-70v77h70v142h96v-142h114v-77h-114v-73h94v-80h-94z" />
    <glyph glyph-name="Utilde" unicode="&#x168;" 
d="M596 282q0 -65 -10 -116.5t-45 -93.5q-35 -41 -86.5 -62.5t-120.5 -21.5t-120.5 21.5t-86.5 62.5q-36 42 -46 93.5t-10 116.5v408h98v-399q0 -44 4.5 -84t27.5 -71q21 -29 54.5 -45t78.5 -16t78 16t55 45q23 31 27.5 71.5t4.5 83.5v399h97v-408zM490 873
q-3 -42 -30.5 -67t-61.5 -25q-29 0 -46 8.5t-25 13.5q-9 5 -25 15t-34 10t-29.5 -13t-14.5 -30l-47 10q3 42 30.5 67.5t61.5 25.5q29 0 45.5 -9l25.5 -14l25 -14.5t34 -9.5t29 12.5t15 29.5z" />
    <glyph glyph-name="utilde" unicode="&#x169;" horiz-adv-x="536" 
d="M377 0l-1 68q-20 -35 -58 -57t-89 -22q-49 0 -81.5 15t-51.5 42t-26.5 64t-7.5 81v285h95v-281q0 -24 3.5 -47t14 -40.5t30 -28t51.5 -10.5t54 12.5t36.5 33.5t21 48.5t6.5 57.5v255h96v-476h-93zM424 659q-3 -42 -30.5 -67t-61.5 -25q-29 0 -46 8.5t-25 13.5
q-9 5 -25 15t-34 10t-29.5 -13t-14.5 -30l-47 10q3 42 30.5 67.5t61.5 25.5q29 0 45.5 -9l25.5 -14l25 -14.5t34 -9.5t29 12.5t15 29.5z" />
    <glyph glyph-name="Umacron" unicode="&#x16a;" 
d="M596 282q0 -65 -10 -116.5t-45 -93.5q-35 -41 -86.5 -62.5t-120.5 -21.5t-120.5 21.5t-86.5 62.5q-36 42 -46 93.5t-10 116.5v408h98v-399q0 -44 4.5 -84t27.5 -71q21 -29 54.5 -45t78.5 -16t78 16t55 45q23 31 27.5 71.5t4.5 83.5v399h97v-408zM204 806v55h259v-55h-259
z" />
    <glyph glyph-name="umacron" unicode="&#x16b;" horiz-adv-x="536" 
d="M377 0l-1 68q-20 -35 -58 -57t-89 -22q-49 0 -81.5 15t-51.5 42t-26.5 64t-7.5 81v285h95v-281q0 -24 3.5 -47t14 -40.5t30 -28t51.5 -10.5t54 12.5t36.5 33.5t21 48.5t6.5 57.5v255h96v-476h-93zM138 592v55h259v-55h-259z" />
    <glyph glyph-name="Ubreve" unicode="&#x16c;" 
d="M596 282q0 -65 -10 -116.5t-45 -93.5q-35 -41 -86.5 -62.5t-120.5 -21.5t-120.5 21.5t-86.5 62.5q-36 42 -46 93.5t-10 116.5v408h98v-399q0 -44 4.5 -84t27.5 -71q21 -29 54.5 -45t78.5 -16t78 16t55 45q23 31 27.5 71.5t4.5 83.5v399h97v-408zM482 893
q-8 -62 -47.5 -92.5t-101.5 -30.5q-61 0 -100.5 30.5t-47.5 92.5h48q9 -35 36.5 -50t63.5 -15q37 0 64.5 15t35.5 50h49z" />
    <glyph glyph-name="ubreve" unicode="&#x16d;" horiz-adv-x="536" 
d="M377 0l-1 68q-20 -35 -58 -57t-89 -22q-49 0 -81.5 15t-51.5 42t-26.5 64t-7.5 81v285h95v-281q0 -24 3.5 -47t14 -40.5t30 -28t51.5 -10.5t54 12.5t36.5 33.5t21 48.5t6.5 57.5v255h96v-476h-93zM416 679q-8 -62 -47.5 -92.5t-101.5 -30.5q-61 0 -100.5 30.5t-47.5 92.5
h48q9 -35 36.5 -50t63.5 -15q37 0 64.5 15t35.5 50h49z" />
    <glyph glyph-name="Uring" unicode="&#x16e;" 
d="M596 282q0 -65 -10 -116.5t-45 -93.5q-35 -41 -86.5 -62.5t-120.5 -21.5t-120.5 21.5t-86.5 62.5q-36 42 -46 93.5t-10 116.5v408h98v-399q0 -44 4.5 -84t27.5 -71q21 -29 54.5 -45t78.5 -16t78 16t55 45q23 31 27.5 71.5t4.5 83.5v399h97v-408zM433 851q0 -42 -29 -68.5
t-71 -26.5t-71 26.5t-29 68.5t29 68.5t71 26.5t71 -26.5t29 -68.5zM385 851q0 23 -14.5 37.5t-37.5 14.5t-37 -14.5t-14 -37.5t14 -38t37 -15t37.5 15t14.5 38z" />
    <glyph glyph-name="uring" unicode="&#x16f;" horiz-adv-x="536" 
d="M377 0l-1 68q-20 -35 -58 -57t-89 -22q-49 0 -81.5 15t-51.5 42t-26.5 64t-7.5 81v285h95v-281q0 -24 3.5 -47t14 -40.5t30 -28t51.5 -10.5t54 12.5t36.5 33.5t21 48.5t6.5 57.5v255h96v-476h-93zM368 637q0 -42 -29 -68.5t-71 -26.5t-71 26.5t-29 68.5t29 68.5t71 26.5
t71 -26.5t29 -68.5zM320 637q0 23 -14.5 37.5t-37.5 14.5t-37 -14.5t-14 -37.5t14 -38t37 -15t37.5 15t14.5 38z" />
    <glyph glyph-name="Uhungarumlaut" unicode="&#x170;" 
d="M596 282q0 -65 -10 -116.5t-45 -93.5q-35 -41 -86.5 -62.5t-120.5 -21.5t-120.5 21.5t-86.5 62.5q-36 42 -46 93.5t-10 116.5v408h98v-399q0 -44 4.5 -84t27.5 -71q21 -29 54.5 -45t78.5 -16t78 16t55 45q23 31 27.5 71.5t4.5 83.5v399h97v-408zM422 759h-71l90 145h92z
M285 759h-72l90 145h93z" />
    <glyph glyph-name="uhungarumlaut" unicode="&#x171;" horiz-adv-x="536" 
d="M377 0l-1 68q-20 -35 -58 -57t-89 -22q-49 0 -81.5 15t-51.5 42t-26.5 64t-7.5 81v285h95v-281q0 -24 3.5 -47t14 -40.5t30 -28t51.5 -10.5t54 12.5t36.5 33.5t21 48.5t6.5 57.5v255h96v-476h-93zM348 545h-71l90 145h92zM211 545h-72l90 145h93z" />
    <glyph glyph-name="Uogonek" unicode="&#x172;" 
d="M475 -161q-44 -43 -104 -43q-44 0 -73.5 23.5t-29.5 66.5q0 33 17.5 58.5t38.5 43.5q-66 2 -115 23.5t-82 60.5q-36 42 -46 93.5t-10 116.5v408h98v-399q0 -44 4.5 -84t27.5 -71q21 -29 54.5 -45t78.5 -16t78 16t55 45q23 31 27.5 71.5t4.5 83.5v399h97v-408
q0 -65 -9.5 -116.5t-45.5 -93.5q-55 -64 -149 -79q-25 -19 -42.5 -44.5t-17.5 -48.5q0 -28 18 -40t41 -12q22 0 41.5 8.5t27.5 13.5z" />
    <glyph glyph-name="uogonek" unicode="&#x173;" horiz-adv-x="536" 
d="M508 -165q-44 -43 -104 -43q-44 0 -73.5 23.5t-29.5 66.5q0 20 7 37.5t18.5 32.5t25 27t25.5 21l-1 68q-20 -35 -58 -57t-89 -22q-49 0 -81.5 15t-51.5 42t-26.5 64t-7.5 81v285h95v-281q0 -24 3.5 -47t14 -40.5t30 -28t51.5 -10.5t54 12.5t36.5 33.5t21 48.5t6.5 57.5
v255h96v-476q-26 -7 -46 -19t-33 -26.5t-19.5 -30t-6.5 -28.5q0 -28 18 -40t41 -12q22 0 41.5 8.5t27.5 13.5z" />
    <glyph glyph-name="Wcircumflex" unicode="&#x174;" horiz-adv-x="929" 
d="M725 -1h-95l-166 558l-165 -558h-95l-199 691h102l149 -544l159 544h99l159 -544l149 544h102zM525 759l-61 100l-60 -100h-70l91 145h79l91 -145h-70z" />
    <glyph glyph-name="wcircumflex" unicode="&#x175;" horiz-adv-x="761" 
d="M594 0h-88l-125 355l-126 -355h-88l-157 475h97l110 -359l125 360h77l125 -360l110 359h97zM441 545l-61 100l-60 -100h-70l91 145h79l91 -145h-70z" />
    <glyph glyph-name="Ycircumflex" unicode="&#x176;" horiz-adv-x="575" 
d="M336 289v-289h-97v289l-240 401h109l179 -317l180 317h109zM348 759l-61 100l-60 -100h-70l91 145h79l91 -145h-70z" />
    <glyph glyph-name="ycircumflex" unicode="&#x177;" horiz-adv-x="479" 
d="M252 -83q-25 -62 -55 -86t-70 -24q-20 0 -36.5 2.5t-28.5 5.5q-14 4 -25 9l19 78l16 -6q8 -2 16.5 -3.5t17.5 -1.5q29 0 40.5 15t21.5 41l23 63l-190 466l100 -1l141 -369l140 370l99 -1zM300 545l-61 100l-60 -100h-70l91 145h79l91 -145h-70z" />
    <glyph glyph-name="Ydieresis" unicode="&#x178;" horiz-adv-x="575" 
d="M417 818q0 -24 -15.5 -39t-37.5 -15t-37 15t-15 39q0 25 15 39.5t37 14.5t37.5 -14.5t15.5 -39.5zM263 818q0 -24 -15 -39t-37 -15t-37.5 15t-15.5 39q0 25 15.5 39.5t37.5 14.5t37 -14.5t15 -39.5zM336 289v-289h-97v289l-240 401h109l179 -317l180 317h109z" />
    <glyph glyph-name="Zacute" unicode="&#x179;" horiz-adv-x="566" 
d="M30 0v74l377 534h-366v82h493v-66l-383 -541h390v-83h-511zM294 759h-73l89 145h94z" />
    <glyph glyph-name="zacute" unicode="&#x17a;" horiz-adv-x="456" 
d="M21 0v59l278 338h-264v77h386v-58l-277 -337h291v-79h-414zM238 545h-73l89 145h94z" />
    <glyph glyph-name="Zdotaccent" unicode="&#x17b;" horiz-adv-x="566" 
d="M30 0v74l377 534h-366v82h493v-66l-383 -541h390v-83h-511zM346 832q0 -23 -15.5 -38t-38.5 -15t-38 15t-15 38t15 38t38 15t38.5 -15t15.5 -38z" />
    <glyph glyph-name="zdotaccent" unicode="&#x17c;" horiz-adv-x="456" 
d="M21 0v59l278 338h-264v77h386v-58l-277 -337h291v-79h-414zM281 618q0 -23 -15.5 -38t-38.5 -15t-38 15t-15 38t15 38t38 15t38.5 -15t15.5 -38z" />
    <glyph glyph-name="Zcaron" unicode="&#x17d;" horiz-adv-x="566" 
d="M327 742h-79l-91 145h70l60 -100l61 100h70zM30 0v74l377 534h-366v82h493v-66l-383 -541h390v-83h-511z" />
    <glyph glyph-name="zcaron" unicode="&#x17e;" horiz-adv-x="456" 
d="M267 545h-78l-92 145h70l61 -100l61 100h70zM21 0v59l278 338h-264v77h386v-58l-277 -337h291v-79h-414z" />
    <glyph glyph-name="florin" unicode="&#x192;" horiz-adv-x="586" 
d="M511 617q-11 7 -25.5 12t-33.5 5t-31.5 -8t-20 -21.5t-12 -31t-8.5 -36.5l-23 -119h112l-12 -71h-113l-57 -306q-6 -33 -16.5 -62.5t-28.5 -52t-45.5 -35.5t-67.5 -13q-18 0 -34 3.5t-27 7.5q-14 6 -25 12l28 72q5 -3 19 -8.5t37 -5.5q17 0 28 6t20 17q12 14 17.5 37
t9.5 43l53 285h-92l13 71h93l26 134q6 29 16.5 57.5t28 51.5t42.5 37.5t59 14.5q18 0 34 -3.5t29 -8t21.5 -8.5t11.5 -6z" />
    <glyph glyph-name="AEacute" unicode="&#x1fc;" horiz-adv-x="879" 
d="M452 0v182h-263l-110 -182h-109l434 690h424v-81h-279v-202h262v-81h-262v-244h287v-82h-384zM452 611h-2l-212 -349h214v349zM632 759h-73l89 145h94z" />
    <glyph glyph-name="aeacute" unicode="&#x1fd;" horiz-adv-x="832" 
d="M802 257q0 -8 -0.5 -15.5t-0.5 -13.5q0 -7 -1 -13h-367q4 -70 45.5 -110.5t108.5 -40.5q33 0 60 7.5t47 17.5t33 18.5t17 11.5l40 -55q-3 -2 -16 -14t-38 -25.5t-63.5 -24.5t-91.5 -11q-48 0 -81.5 12t-56.5 28.5t-36 32.5l-19 23q-36 -43 -79.5 -69.5t-111.5 -26.5
q-34 0 -64.5 10t-52.5 29t-35 46.5t-13 61.5q0 71 52 106.5t136 38.5l125 5v20q0 54 -32.5 80.5t-85.5 26.5q-26 0 -49.5 -5t-42 -11.5t-32 -13.5t-19.5 -11l-29 64q26 15 72 31.5t106 16.5q51 0 84.5 -12t53.5 -31q10 -9 16.5 -17t10.5 -14q4 -7 7 -13q29 42 75.5 64.5
t103.5 22.5q50 0 91 -17t70.5 -47t46 -71.5t16.5 -91.5zM711 279q0 20 -7.5 43.5t-24 44t-42.5 34.5t-62 14t-62 -13t-43 -33.5t-25.5 -44.5t-9.5 -45h276zM354 137q-5 11 -10 35t-5 56l-110 -7q-60 -3 -84 -26.5t-24 -55.5q0 -34 25 -58t72 -24q24 0 45.5 7.5t39.5 19.5
t31 26t20 27zM436 545h-73l89 145h94z" />
    <glyph glyph-name="Oslashacute" unicode="&#x1fe;" horiz-adv-x="786" 
d="M429 742h-72l89 145h93zM749 344q0 -83 -28 -149t-76.5 -112t-113.5 -70.5t-138 -24.5q-65 0 -123 19.5t-105 56.5l-78 -80l-48 48l77 79q-37 45 -58 103t-21 130q0 83 28.5 149t77 112t113 70.5t137.5 24.5q65 0 123 -19t106 -56l79 81l48 -48l-79 -81q38 -45 58.5 -103
t20.5 -130zM558 560q-34 27 -76 41.5t-89 14.5q-53 0 -99.5 -18.5t-81.5 -53t-55.5 -85t-20.5 -113.5q0 -50 13 -91.5t36 -73.5zM650 346q0 49 -12 90t-35 74l-372 -379q34 -26 75 -40.5t87 -14.5q53 0 99.5 18.5t81.5 53.5t55.5 85t20.5 113z" />
    <glyph glyph-name="oslashacute" unicode="&#x1ff;" horiz-adv-x="571" 
d="M304 545h-72l89 145h93zM485 393q25 -31 38.5 -70.5t13.5 -86.5q0 -55 -19 -101t-53 -78t-80 -50t-99 -18q-46 0 -86 13t-72 37l-59 -58l-42 41l58 59q-24 31 -37.5 70t-13.5 85q0 55 19.5 100.5t53.5 78.5t80 51t99 18q48 0 86 -13t70 -36l59 59l43 -42zM381 375
q-39 31 -95 31q-36 0 -64.5 -13t-49 -35.5t-31 -53t-10.5 -65.5q0 -50 22 -91zM440 239q0 50 -21 89l-228 -226q39 -31 95 -31q36 0 64.5 13t48.5 35.5t30.5 53.5t10.5 66z" />
    <glyph glyph-name="tcommaaccent" unicode="&#x21b;" horiz-adv-x="311" 
d="M297 5q-36 -16 -87 -16q-45 0 -70 17t-37 44t-15 61t-3 69v217h-70v77h70v142h96v-142h114v-77h-114v-215q0 -30 2 -51t10 -36q7 -11 18 -17.5t31 -6.5q11 0 19.5 1.5t15.5 4.5q8 2 14 5zM176 -190h-71l36 140h98z" />
    <glyph glyph-name="dotlessj" unicode="&#x237;" horiz-adv-x="236" 
d="M166 -1q0 -38 -6.5 -73t-23.5 -62t-46 -43.5t-74 -16.5q-15 0 -26 1t-19 3q-9 2 -15 4l1 76q6 -2 13 -4q7 -1 15 -2t17 -1q23 0 36.5 9.5t20.5 26t9 38.5t2 47v473h96v-476z" />
    <glyph glyph-name="circumflex" unicode="&#x2c6;" horiz-adv-x="335" 
d="M228 545l-61 100l-60 -100h-70l91 145h79l91 -145h-70z" />
    <glyph glyph-name="caron" unicode="&#x2c7;" horiz-adv-x="335" 
d="M207 545h-79l-91 145h70l60 -100l61 100h70z" />
    <glyph glyph-name="breve" unicode="&#x2d8;" horiz-adv-x="335" 
d="M316 679q-8 -62 -47.5 -92.5t-101.5 -30.5q-61 0 -100.5 30.5t-47.5 92.5h48q9 -35 36.5 -50t63.5 -15q37 0 64.5 15t35.5 50h49z" />
    <glyph glyph-name="dotaccent" unicode="&#x2d9;" horiz-adv-x="335" 
d="M221 618q0 -23 -15.5 -38t-38.5 -15t-38 15t-15 38t15 38t38 15t38.5 -15t15.5 -38z" />
    <glyph glyph-name="ring" unicode="&#x2da;" horiz-adv-x="335" 
d="M267 637q0 -42 -29 -68.5t-71 -26.5t-71 26.5t-29 68.5t29 68.5t71 26.5t71 -26.5t29 -68.5zM219 637q0 23 -14.5 37.5t-37.5 14.5t-37 -14.5t-14 -37.5t14 -38t37 -15t37.5 15t14.5 38z" />
    <glyph glyph-name="ogonek" unicode="&#x2db;" horiz-adv-x="335" 
d="M271 -165q-44 -43 -104 -43q-44 0 -73.5 23.5t-29.5 66.5q0 22 8.5 40.5t21 34t27 27.5t26.5 21h59v-5q-15 -9 -29 -21t-25 -26t-17.5 -29t-6.5 -28q0 -28 18 -40t41 -12q22 0 41.5 8.5t27.5 13.5z" />
    <glyph glyph-name="tilde" unicode="&#x2dc;" horiz-adv-x="335" 
d="M324 659q-3 -42 -30.5 -67t-61.5 -25q-29 0 -46 8.5t-25 13.5q-9 5 -25 15t-34 10t-29.5 -13t-14.5 -30l-47 10q3 42 30.5 67.5t61.5 25.5q29 0 45.5 -9l25.5 -14l25 -14.5t34 -9.5t29 12.5t15 29.5z" />
    <glyph glyph-name="hungarumlaut" unicode="&#x2dd;" horiz-adv-x="335" 
d="M216 545h-71l90 145h92zM79 545h-72l90 145h93z" />
    <glyph glyph-name="Wgrave" unicode="&#x1e80;" horiz-adv-x="929" 
d="M725 -1h-95l-166 558l-165 -558h-95l-199 691h102l149 -544l159 544h99l159 -544l149 544h102zM483 759l-110 145h94l89 -145h-73z" />
    <glyph glyph-name="wgrave" unicode="&#x1e81;" horiz-adv-x="761" 
d="M594 0h-88l-125 355l-126 -355h-88l-157 475h97l110 -359l125 360h77l125 -360l110 359h97zM379 545l-110 145h94l89 -145h-73z" />
    <glyph glyph-name="Wacute" unicode="&#x1e82;" horiz-adv-x="929" 
d="M725 -1h-95l-166 558l-165 -558h-95l-199 691h102l149 -544l159 544h99l159 -544l149 544h102zM446 759h-73l89 145h94z" />
    <glyph glyph-name="wacute" unicode="&#x1e83;" horiz-adv-x="761" 
d="M594 0h-88l-125 355l-126 -355h-88l-157 475h97l110 -359l125 360h77l125 -360l110 359h97zM362 545h-73l89 145h94z" />
    <glyph glyph-name="Wdieresis" unicode="&#x1e84;" horiz-adv-x="929" 
d="M725 -1h-95l-166 558l-165 -558h-95l-199 691h102l149 -544l159 544h99l159 -544l149 544h102zM594 831q0 -24 -15.5 -38.5t-37.5 -14.5q-21 0 -36.5 14.5t-15.5 38.5q0 25 15.5 39.5t36.5 14.5q22 0 37.5 -14.5t15.5 -39.5zM440 831q0 -24 -15.5 -38.5t-36.5 -14.5
q-22 0 -37.5 14.5t-15.5 38.5q0 25 15.5 39.5t37.5 14.5q21 0 36.5 -14.5t15.5 -39.5z" />
    <glyph glyph-name="wdieresis" unicode="&#x1e85;" horiz-adv-x="761" 
d="M594 0h-88l-125 355l-126 -355h-88l-157 475h97l110 -359l125 360h77l125 -360l110 359h97zM510 617q0 -24 -15.5 -38.5t-37.5 -14.5q-21 0 -36.5 14.5t-15.5 38.5q0 25 15.5 39.5t36.5 14.5q22 0 37.5 -14.5t15.5 -39.5zM356 617q0 -24 -15.5 -38.5t-36.5 -14.5
q-22 0 -37.5 14.5t-15.5 38.5q0 25 15.5 39.5t37.5 14.5q21 0 36.5 -14.5t15.5 -39.5z" />
    <glyph glyph-name="Ygrave" unicode="&#x1ef2;" horiz-adv-x="575" 
d="M336 289v-289h-97v289l-240 401h109l179 -317l180 317h109zM270 759l-110 145h94l89 -145h-73z" />
    <glyph glyph-name="ygrave" unicode="&#x1ef3;" horiz-adv-x="479" 
d="M252 -83q-25 -62 -55 -86t-70 -24q-20 0 -36.5 2.5t-28.5 5.5q-14 4 -25 9l19 78l16 -6q8 -2 16.5 -3.5t17.5 -1.5q29 0 40.5 15t21.5 41l23 63l-190 466l100 -1l141 -369l140 370l99 -1zM226 545l-110 145h94l89 -145h-73z" />
    <glyph glyph-name="endash" unicode="&#x2013;" horiz-adv-x="462" 
d="M0 236v75h462v-75h-462z" />
    <glyph glyph-name="emdash" unicode="&#x2014;" horiz-adv-x="850" 
d="M6 236v75h838v-75h-838z" />
    <glyph glyph-name="quoteleft" unicode="&#x2018;" horiz-adv-x="312" 
d="M175 476h-98l89 214h76z" />
    <glyph glyph-name="quoteright" unicode="&#x2019;" horiz-adv-x="312" 
d="M146 476h-76l67 214h98z" />
    <glyph glyph-name="quotesinglbase" unicode="&#x201a;" horiz-adv-x="312" 
d="M146 -116h-76l67 213h98z" />
    <glyph glyph-name="quotedblleft" unicode="&#x201c;" horiz-adv-x="489" 
d="M350 476h-95l89 214h73zM174 476h-95l88 214h74z" />
    <glyph glyph-name="quotedblright" unicode="&#x201d;" horiz-adv-x="489" 
d="M321 476h-74l68 214h95zM145 476h-74l68 214h95z" />
    <glyph glyph-name="quotedblbase" unicode="&#x201e;" horiz-adv-x="489" 
d="M321 -116h-74l68 213h95zM145 -116h-74l68 213h95z" />
    <glyph glyph-name="dagger" unicode="&#x2020;" horiz-adv-x="601" 
d="M341 399v-575h-81v575h-193v75h193v252h81v-252h193v-75h-193z" />
    <glyph glyph-name="daggerdbl" unicode="&#x2021;" horiz-adv-x="601" 
d="M341 71v-247h-81v247h-193v75h193v258h-193v75h193v247h81v-247h193v-75h-193v-258h193v-75h-193z" />
    <glyph glyph-name="bullet" unicode="&#x2022;" horiz-adv-x="541" 
d="M421 365q0 -30 -12 -57.5t-32.5 -48.5t-48 -33t-57.5 -12q-31 0 -58.5 12t-48 33t-32.5 48.5t-12 57.5t12 57.5t32.5 48.5t48 33t58.5 12q30 0 57.5 -12t48 -33t32.5 -48.5t12 -57.5z" />
    <glyph glyph-name="ellipsis" unicode="&#x2026;" horiz-adv-x="944" 
d="M841 53q0 -27 -18.5 -44t-45.5 -17q-28 0 -46 17t-18 44t18 43.5t46 16.5q27 0 45.5 -16.5t18.5 -43.5zM536 53q0 -27 -18 -44t-46 -17t-46 17t-18 44t18 43.5t46 16.5t46 -16.5t18 -43.5zM231 53q0 -27 -18 -44t-46 -17t-46 17t-18 44t18 43.5t46 16.5t46 -16.5
t18 -43.5z" />
    <glyph glyph-name="perthousand" unicode="&#x2030;" horiz-adv-x="1129" 
d="M1098 154q0 -37 -12 -67.5t-34 -52.5t-52 -34t-65 -12t-65 12t-51.5 34t-34 52.5t-12.5 67.5t12.5 67.5t34 52.5t51.5 34t65 12t65 -12t52 -34t34 -52.5t12 -67.5zM748 154q0 -37 -12 -67.5t-34 -52.5t-52 -34t-65 -12t-65 12t-51.5 34t-34 52.5t-12.5 67.5t12.5 67.5
t34 52.5t51.5 34t65 12t65 -12t52 -34t34 -52.5t12 -67.5zM201 -23l-50 30l427 699l50 -30zM357 529q0 -37 -12 -68t-34 -53t-52 -34t-65 -12t-65 12t-51.5 34t-34 53t-12.5 68t12.5 67.5t34 52.5t51.5 34t65 12t65 -12t52 -34t34 -52.5t12 -67.5zM1028 155q0 45 -25 74.5
t-68 29.5t-68 -29.5t-25 -74.5q0 -46 25 -75t68 -29t68 29t25 75zM678 155q0 45 -25 74.5t-68 29.5t-68 -29.5t-25 -74.5q0 -46 25 -75t68 -29t68 29t25 75zM287 529q0 46 -25 75t-68 29t-68 -29t-25 -75q0 -45 25 -74t68 -29t68 29t25 74z" />
    <glyph glyph-name="guilsinglleft" unicode="&#x2039;" horiz-adv-x="317" 
d="M204 39l-149 199l149 198l52 -39l-118 -159l119 -160z" />
    <glyph glyph-name="guilsinglright" unicode="&#x203a;" horiz-adv-x="317" 
d="M114 39l-53 40l118 159l-119 160l54 38l148 -198z" />
    <glyph glyph-name="fraction" unicode="&#x2044;" horiz-adv-x="199" 
d="M-100 -26l-50 31l448 741l51 -30z" />
    <glyph glyph-name="Euro" unicode="&#x20ac;" horiz-adv-x="586" 
d="M550 80l-14.5 -18.5t-34.5 -31t-58.5 -29.5t-85.5 -13q-100 0 -167.5 68t-87.5 193h-67v65l60 1v12q-1 5 -1 11v12v34h-59v65h68q8 50 28.5 95.5t53 80t76.5 55t98 20.5q38 0 67 -8t50.5 -18.5t35.5 -22l23 -19.5l-33 -75q-8 11 -20.5 22t-29.5 21t-39.5 16t-51.5 6
q-57 0 -100.5 -41t-57.5 -132h249v-65h-258v-34v-11.5t1 -11.5v-13h257v-65h-249q11 -85 53 -131t106 -46q32 0 56.5 8.5t42.5 20.5t30 24l19 19z" />
    <glyph glyph-name="trademark" unicode="&#x2122;" horiz-adv-x="850" 
d="M729 292l-22 313h-2l-103 -313h-51l-102 313h-3l-21 -313h-65l31 398h88l97 -299h2l96 299h89l31 -398h-65zM226 634v-342h-65v342h-112v56h289v-56h-112z" />
    <glyph glyph-name="product" unicode="&#x220f;" horiz-adv-x="830" 
d="M693 216q-20 -54 -55 -94.5t-80 -67.5t-98 -40.5t-110 -13.5h-208v216h-92v75h92v113h-92v75h92v211h208q56 0 108 -13t97 -39t80 -66t56 -93h89v-75h-69q2 -14 3 -28.5t1 -30.5q0 -14 -1 -27.5t-3 -26.5h69v-75h-87zM616 345q0 32 -6 59h-371v-113h372q5 27 5 54z
M350 84q79 0 138.5 31.5t97.5 100.5h-347v-132h111zM583 479q-38 67 -96.5 97.5t-136.5 30.5h-111v-128h344z" />
    <glyph glyph-name="minus" unicode="&#x2212;" 
d="M72 308v74h523v-74h-523z" />
    <glyph glyph-name="notequal" unicode="&#x2260;" 
d="M343 217l-32 -138h-75l32 138h-196v74h212l25 108h-237v73h252l32 139h75l-32 -139h196v-73h-211l-25 -108h236v-74h-252z" />
    <glyph glyph-name="lessequal" unicode="&#x2264;" horiz-adv-x="984" 
d="M358 -1q-23 0 -39.5 16.5t-16.5 39.5t16.5 39.5t39.5 16.5t39.5 -16.5t16.5 -39.5t-16.5 -39.5t-39.5 -16.5zM273 114q-23 0 -39.5 16.5t-16.5 39.5t16.5 39.5t39.5 16.5t39.5 -16.5t16.5 -39.5t-16.5 -39.5t-39.5 -16.5zM188 229q-23 0 -39.5 16.5t-16.5 39.5t16.5 39.5
t39.5 16.5t39.5 -16.5t16.5 -39.5t-16.5 -39.5t-39.5 -16.5zM358 801q23 0 39.5 -16.5t16.5 -39.5t-16.5 -39.5t-39.5 -16.5t-39.5 16.5t-16.5 39.5t16.5 39.5t39.5 16.5zM273 686q23 0 39.5 -16.5t16.5 -39.5t-16.5 -39.5t-39.5 -16.5t-39.5 16.5t-16.5 39.5t16.5 39.5
t39.5 16.5zM188 571q23 0 39.5 -16.5t16.5 -39.5t-16.5 -39.5t-39.5 -16.5t-39.5 16.5t-16.5 39.5t16.5 39.5t39.5 16.5zM928 456q23 0 39.5 -16.5t16.5 -39.5t-16.5 -39.5t-39.5 -16.5t-39.5 16.5t-16.5 39.5t16.5 39.5t39.5 16.5zM763 456q23 0 39.5 -16.5t16.5 -39.5
t-16.5 -39.5t-39.5 -16.5t-39.5 16.5t-16.5 39.5t16.5 39.5t39.5 16.5zM268 456q23 0 39.5 -16.5t16.5 -39.5t-16.5 -39.5t-39.5 -16.5t-39.5 16.5t-16.5 39.5t16.5 39.5t39.5 16.5zM103 456q23 0 39.5 -16.5t16.5 -39.5t-16.5 -39.5t-39.5 -16.5t-39.5 16.5t-16.5 39.5
t16.5 39.5t39.5 16.5zM433 456q23 0 39.5 -16.5t16.5 -39.5t-16.5 -39.5t-39.5 -16.5t-39.5 16.5t-16.5 39.5t16.5 39.5t39.5 16.5zM598 456q23 0 39.5 -16.5t16.5 -39.5t-16.5 -39.5t-39.5 -16.5t-39.5 16.5t-16.5 39.5t16.5 39.5t39.5 16.5z" />
    <glyph glyph-name="greaterequal" unicode="&#x2265;" horiz-adv-x="984" 
d="M386 456q23 0 39.5 -16.5t16.5 -39.5t-16.5 -39.5t-39.5 -16.5t-39.5 16.5t-16.5 39.5t16.5 39.5t39.5 16.5zM551 456q23 0 39.5 -16.5t16.5 -39.5t-16.5 -39.5t-39.5 -16.5t-39.5 16.5t-16.5 39.5t16.5 39.5t39.5 16.5zM881 456q23 0 39.5 -16.5t16.5 -39.5t-16.5 -39.5
t-39.5 -16.5t-39.5 16.5t-16.5 39.5t16.5 39.5t39.5 16.5zM716 456q23 0 39.5 -16.5t16.5 -39.5t-16.5 -39.5t-39.5 -16.5t-39.5 16.5t-16.5 39.5t16.5 39.5t39.5 16.5zM221 456q23 0 39.5 -16.5t16.5 -39.5t-16.5 -39.5t-39.5 -16.5t-39.5 16.5t-16.5 39.5t16.5 39.5
t39.5 16.5zM56 456q23 0 39.5 -16.5t16.5 -39.5t-16.5 -39.5t-39.5 -16.5t-39.5 16.5t-16.5 39.5t16.5 39.5t39.5 16.5zM796 571q23 0 39.5 -16.5t16.5 -39.5t-16.5 -39.5t-39.5 -16.5t-39.5 16.5t-16.5 39.5t16.5 39.5t39.5 16.5zM711 686q23 0 39.5 -16.5t16.5 -39.5
t-16.5 -39.5t-39.5 -16.5t-39.5 16.5t-16.5 39.5t16.5 39.5t39.5 16.5zM626 801q23 0 39.5 -16.5t16.5 -39.5t-16.5 -39.5t-39.5 -16.5t-39.5 16.5t-16.5 39.5t16.5 39.5t39.5 16.5zM796 229q-23 0 -39.5 16.5t-16.5 39.5t16.5 39.5t39.5 16.5t39.5 -16.5t16.5 -39.5
t-16.5 -39.5t-39.5 -16.5zM711 114q-23 0 -39.5 16.5t-16.5 39.5t16.5 39.5t39.5 16.5t39.5 -16.5t16.5 -39.5t-16.5 -39.5t-39.5 -16.5zM626 -1q-23 0 -39.5 16.5t-16.5 39.5t16.5 39.5t39.5 16.5t39.5 -16.5t16.5 -39.5t-16.5 -39.5t-39.5 -16.5z" />
    <glyph glyph-name="commaaccent" unicode="&#xf6c3;" horiz-adv-x="301" 
d="M153 -190h-71l36 140h98z" />
    <glyph glyph-name="apple" unicode="&#xf8ff;" horiz-adv-x="872" 
d="M265 429l171 168l172 -168l-86 -429h-172zM50 146l73 139l142 -70l43 -215h-146zM608 215l141 70l73 -139l-111 -146h-146z" />
    </font>
</defs>
</svg>
